<?xml version="1.0" encoding="utf-8"?>
<!-- Generator: Adobe Illustrator 18.1.1, SVG Export Plug-In . SVG Version: 6.00 Build 0)  -->
<svg version="1.1" id="Layer_1" xmlns="http://www.w3.org/2000/svg" xmlns:xlink="http://www.w3.org/1999/xlink" x="0px" y="0px"
	 viewBox="-7283 -5266 607 513" enable-background="new -7283 -5266 607 513" xml:space="preserve">
<g id="edit" display="none">
	<g display="inline">
		
			<line fill="none" stroke="#000000" stroke-width="2" stroke-linecap="round" stroke-linejoin="round" stroke-miterlimit="10" x1="-6732" y1="-4838.1" x2="-6690.7" y2="-4764.7"/>
		<path fill="none" stroke="#000000" stroke-width="2" stroke-linecap="round" stroke-linejoin="round" stroke-miterlimit="10" d="
			M-7174.2-5076.8v-137.7c0-16.8,13.8-30.6,30.6-30.6h351.9c16.8,0,30.6,13.8,30.6,30.6v321.3c0,16.8-13.8,30.6-30.6,30.6h-428.4"/>
		<path fill="none" stroke="#000000" stroke-width="2" stroke-linecap="round" stroke-linejoin="round" stroke-miterlimit="10" d="
			M-7174.2-5093.6v185.1c0,26-19.9,45.9-45.9,45.9l0,0c-26,0-45.9-19.9-45.9-45.9v-183.6h33.7"/>
		
			<line fill="none" stroke="#000000" stroke-width="2" stroke-linecap="round" stroke-linejoin="round" stroke-miterlimit="10" x1="-6946.2" y1="-5188.5" x2="-6823.8" y2="-5188.5"/>
		
			<line fill="none" stroke="#000000" stroke-width="2" stroke-linecap="round" stroke-linejoin="round" stroke-miterlimit="10" x1="-6946.2" y1="-5127.3" x2="-6823.8" y2="-5127.3"/>
		
			<line fill="none" stroke="#000000" stroke-width="2" stroke-linecap="round" stroke-linejoin="round" stroke-miterlimit="10" x1="-6946.2" y1="-5066.1" x2="-6823.8" y2="-5066.1"/>
		
			<line fill="none" stroke="#000000" stroke-width="2" stroke-linecap="round" stroke-linejoin="round" stroke-miterlimit="10" x1="-7114.5" y1="-4989.6" x2="-6823.8" y2="-4989.6"/>
		
			<line fill="none" stroke="#000000" stroke-width="2" stroke-linecap="round" stroke-linejoin="round" stroke-miterlimit="10" x1="-7114.5" y1="-4928.4" x2="-6823.8" y2="-4928.4"/>
		
			<rect x="-7113" y="-5183.9" fill="none" stroke="#000000" stroke-width="2" stroke-linecap="round" stroke-linejoin="round" stroke-miterlimit="10" width="107.1" height="122.4"/>
		<path fill="#FFFFFF" d="M-6773.3-4795.3c-41.3,0-79.6-21.4-99.5-58.1c-32.1-55.1-12.2-125.5,41.3-156.1
			c16.8-10.7,36.7-15.3,56.6-15.3c41.3,0,79.6,21.4,99.4,58.1c32.1,55.1,12.2,125.5-41.3,156.1
			C-6733.5-4801.4-6753.4-4795.3-6773.3-4795.3z"/>
		
			<circle fill="none" stroke="#000000" stroke-width="2" stroke-linecap="round" stroke-linejoin="round" stroke-miterlimit="10" cx="-6774.8" cy="-4910" r="84.2"/>
	</g>
</g>
<g id="統合">
	<path fill="#FFFFFF" d="M-6692.2-4754c-4.6,0-10.7-3.1-13.8-7.7l-41.3-73.4c-4.6-7.6-1.5-16.8,6.1-21.4s16.8-1.5,21.4,6.1
		l41.3,73.4c4.6,7.6,1.5,16.8-6.1,21.4C-6686.1-4755.5-6689.2-4754-6692.2-4754z"/>
	<path fill="#FFFFFF" d="M-6776.4-4816.7c-35.2,0-68.9-18.4-85.7-50.5c-27.5-47.4-10.7-108.6,36.7-136.2c15.3-9.2,32.1-13.8,49-13.8
		c35.2,0,68.9,18.4,85.7,50.5c13.8,22.9,16.8,50.5,9.2,75c-6.1,26-23,47.4-45.9,59.7C-6741.2-4821.3-6758-4816.7-6776.4-4816.7z
		 M-6776.4-4985c-12.2,0-24.5,3.1-33.7,9.2c-32.1,18.4-44.4,61.2-24.5,93.3c12.2,21.4,35.2,35.2,59.7,35.2c12.2,0,24.5-3.1,33.7-9.2
		c15.3-9.2,27.5-24.5,32.1-41.3c4.6-18.4,3.1-36.7-6.1-52C-6728.9-4971.2-6751.9-4985-6776.4-4985z"/>
	<g>
		<g>
			<path fill="#FFFFFF" d="M-7131.3-4989.6c0,9.2,6.1,15.3,15.3,15.3h241.7c6.1-12.2,15.3-21.4,26-30.6h-269.3
				C-7125.2-5004.9-7131.3-4998.8-7131.3-4989.6z M-6793.2-5265h-351.9c-26,0-45.9,19.9-45.9,45.9v306c0,16.8-13.8,30.6-30.6,30.6
				s-30.6-13.8-30.6-30.6v-168.3h18.4c9.2,0,15.3-6.1,15.3-15.3s-6.1-15.3-15.3-15.3h-33.7c-9.2,0-15.3,6.1-15.3,15.3v183.6
				c0,33.7,27.5,61.2,61.2,61.2h350.4c-1.5-1.5-3.1-4.6-4.6-6.1c-4.6-7.6-7.7-15.3-10.7-24.5h-283c4.6-9.2,9.2-19.9,9.2-30.6v-306
				c0-9.2,6.1-15.3,15.3-15.3h351.9c9.2,0,15.3,6.1,15.3,15.3v188.2h1.5c9.2,0,19.9,1.5,29.1,3.1v-191.2
				C-6747.3-5245.1-6767.2-5265-6793.2-5265z M-7131.3-4928.4c0,9.2,6.1,15.3,15.3,15.3h226.4c0-10.7,1.5-19.9,3.1-30.6H-7116
				C-7125.2-4943.7-7131.3-4937.6-7131.3-4928.4z M-7114.5-5050.8h107.1c9.2,0,15.3-6.1,15.3-15.3v-122.4c0-9.2-6.1-15.3-15.3-15.3
				h-107.1c-9.2,0-15.3,6.1-15.3,15.3v122.4C-7129.8-5056.9-7123.7-5050.8-7114.5-5050.8z M-7099.2-5173.2h76.5v91.8h-76.5V-5173.2z
				 M-6825.3-5203.8h-122.4c-9.2,0-15.3,6.1-15.3,15.3s6.1,15.3,15.3,15.3h122.4c9.2,0,15.3-6.1,15.3-15.3
				S-6817.7-5203.8-6825.3-5203.8z M-6825.3-5081.4h-122.4c-9.2,0-15.3,6.1-15.3,15.3s6.1,15.3,15.3,15.3h122.4
				c9.2,0,15.3-6.1,15.3-15.3S-6817.7-5081.4-6825.3-5081.4z M-6825.3-5142.6h-122.4c-9.2,0-15.3,6.1-15.3,15.3
				c0,9.2,6.1,15.3,15.3,15.3h122.4c9.2,0,15.3-6.1,15.3-15.3C-6810-5136.5-6817.7-5142.6-6825.3-5142.6z"/>
		</g>
	</g>
</g>
<g id="補足">
</g>
</svg>
