<?xml version="1.0" encoding="utf-8"?>
<!-- Generator: Adobe Illustrator 18.1.1, SVG Export Plug-In . SVG Version: 6.00 Build 0)  -->
<svg version="1.1" id="Layer_1" xmlns="http://www.w3.org/2000/svg" xmlns:xlink="http://www.w3.org/1999/xlink" x="0px" y="0px"
	 viewBox="0 0 30 30" enable-background="new 0 0 30 30" xml:space="preserve">
<g id="統合">
	<path fill="#FFFFFF" d="M19.3,26.9H1.9c-1,0-1.9-0.9-1.9-1.9v-15c0-1,0.9-1.9,1.9-1.9h17.5c1,0,1.9,0.9,1.9,1.9v15
		C21.2,26.1,20.3,26.9,19.3,26.9z M1.9,9.5c-0.4,0-0.6,0.3-0.6,0.6v15c0,0.4,0.3,0.6,0.6,0.6h17.5c0.4,0,0.6-0.3,0.6-0.6v-15
		c0-0.4-0.3-0.6-0.6-0.6H1.9z"/>
	<path fill="#FFFFFF" d="M28.1,20.7h-5v-1.2h5c0.4,0,0.6-0.3,0.6-0.6v-15c0-0.4-0.3-0.6-0.6-0.6H10.6c-0.4,0-0.6,0.3-0.6,0.6v2.5
		H8.7V3.9c0-1,0.9-1.9,1.9-1.9H28c1,0,1.9,0.9,1.9,1.9v15C29.9,19.8,29.1,20.7,28.1,20.7z"/>
</g>
</svg>
