<?xml version="1.0" encoding="utf-8"?>
<!-- Generator: Adobe Illustrator 18.1.1, SVG Export Plug-In . SVG Version: 6.00 Build 0)  -->
<svg version="1.1" id="Layer_1" xmlns="http://www.w3.org/2000/svg" xmlns:xlink="http://www.w3.org/1999/xlink" x="0px" y="0px"
	 viewBox="-3611 -5296 613 506" enable-background="new -3611 -5296 613 506" xml:space="preserve">
<g id="edit" display="none">
	
		<path display="inline" fill="none" stroke="#000000" stroke-width="2" stroke-linecap="round" stroke-linejoin="round" stroke-miterlimit="10" d="
		M-3258.9-5280.3h-306c-16.8,0-30.6,13.8-30.6,30.6v214.2c0,16.8,13.8,30.6,30.6,30.6h45.9v76.5l76.5-76.5h183.6
		c16.8,0,30.6-13.8,30.6-30.6v-214.2C-3228.3-5266.5-3242.1-5280.3-3258.9-5280.3z"/>
	<path display="inline" fill="#FFFFFF" d="M-3179.3-4851.9h-125.5c-33.7,0-61.2-27.5-61.2-61.2v-183.6c0-33.7,27.5-61.2,61.2-61.2
		h260.1c33.7,0,61.2,27.5,61.2,61.2v183.6c0,33.7-27.5,61.2-61.2,61.2h-15.3v119.3L-3179.3-4851.9z"/>
	
		<path display="inline" fill="#FFFFFF" stroke="#000000" stroke-width="2" stroke-linecap="round" stroke-linejoin="round" stroke-miterlimit="10" d="
		M-3044.7-5127.3h-260.1c-16.8,0-30.6,13.8-30.6,30.6v183.6c0,16.8,13.8,30.6,30.6,30.6h137.7l76.5,76.5v-76.5h45.9
		c16.8,0,30.6-13.8,30.6-30.6v-183.6C-3014.1-5113.5-3027.9-5127.3-3044.7-5127.3z"/>
</g>
<g id="統合">
	<path fill="#FFFFFF" d="M-3366-5020.2h-76.5c-4.6,0-7.7,1.5-10.7,4.6l-50.5,50.5v-39.8c0-9.2-6.1-15.3-15.3-15.3h-45.9
		c-9.2,0-15.3-6.1-15.3-15.3v-214.2c0-9.2,6.1-15.3,15.3-15.3h306c9.2,0,15.3,6.1,15.3,15.3v91.8h30.6v-91.8
		c0-26-19.9-45.9-45.9-45.9h-306c-26,0-45.9,19.9-45.9,45.9v214.2c0,26,19.9,45.9,45.9,45.9h30.6v61.2c0,6.1,3.1,12.2,9.2,13.8
		c1.5,1.5,4.6,1.5,6.1,1.5c4.6,0,7.6-1.5,10.7-4.6l71.9-71.9h70.4V-5020.2z"/>
	<path fill="#FFFFFF" d="M-3090.6-4790.7c-4.6,0-7.6-1.5-10.7-4.6l-71.9-71.9h-131.6c-26,0-45.9-19.9-45.9-45.9v-183.6
		c0-26,19.9-45.9,45.9-45.9h260.1c26,0,45.9,19.9,45.9,45.9v183.6c0,26-19.9,45.9-45.9,45.9h-30.6v61.2c0,6.1-3.1,12.2-9.2,13.8
		C-3086-4790.7-3089.1-4790.7-3090.6-4790.7z M-3304.8-5112c-9.2,0-15.3,6.1-15.3,15.3v183.6c0,9.2,6.1,15.3,15.3,15.3h137.7
		c4.6,0,7.7,1.5,10.7,4.6l50.5,50.5v-39.8c0-9.2,6.1-15.3,15.3-15.3h45.9c9.2,0,15.3-6.1,15.3-15.3v-183.6c0-9.2-6.1-15.3-15.3-15.3
		L-3304.8-5112L-3304.8-5112z"/>
</g>
<g id="補足">
</g>
</svg>
