<?xml version="1.0" encoding="utf-8"?>
<!-- Generator: Adobe Illustrator 18.1.1, SVG Export Plug-In . SVG Version: 6.00 Build 0)  -->
<svg version="1.1" id="Layer_1" xmlns="http://www.w3.org/2000/svg" xmlns:xlink="http://www.w3.org/1999/xlink" x="0px" y="0px"
	 viewBox="-7345 1926 231 230" enable-background="new -7345 1926 231 230" xml:space="preserve">
<g id="edit" display="none">
	<g display="inline">
		<path d="M-7229.2,1941.3c55.1,0,99.4,44.4,99.4,99.4c0,55.1-44.4,99.4-99.4,99.4s-99.5-44.4-99.5-99.4
			S-7284.3,1941.3-7229.2,1941.3 M-7229.2,1926c-62.7,0-114.8,52-114.8,114.8c0,62.7,52,114.8,114.8,114.8s114.8-52,114.8-114.8
			C-7114.5,1978-7166.5,1926-7229.2,1926L-7229.2,1926z"/>
	</g>
	
		<polyline display="inline" fill="none" stroke="#000000" stroke-linecap="round" stroke-linejoin="round" stroke-miterlimit="10" points="
		-7290.5,2031.6 -7229.2,2048.4 -7229.2,1971.9 	"/>
</g>
<g id="統合">
	<path d="M-7229.2,1941.3c55.1,0,99.4,44.4,99.4,99.4c0,55.1-44.4,99.4-99.4,99.4s-99.5-44.4-99.5-99.4
		S-7284.3,1941.3-7229.2,1941.3 M-7229.2,1926c-62.7,0-114.8,52-114.8,114.8c0,62.7,52,114.8,114.8,114.8s114.8-52,114.8-114.8
		C-7114.5,1978-7166.5,1926-7229.2,1926L-7229.2,1926z"/>
	<path d="M-7229.2,2056.1h-1.5l-61.2-16.8c-4.6-1.5-6.1-4.6-6.1-9.2c1.5-4.6,4.6-6.1,9.2-6.1l52,13.8v-65.8c0-4.6,3.1-7.7,7.6-7.7
		s7.6,3.1,7.6,7.7v76.5c0,3.1-1.5,4.6-3.1,6.1S-7227.7,2056.1-7229.2,2056.1z"/>
</g>
<g id="補足">
</g>
</svg>
