<?xml version="1.0" encoding="utf-8"?>
<!-- Generator: Adobe Illustrator 18.1.1, SVG Export Plug-In . SVG Version: 6.00 Build 0)  -->
<svg version="1.1" id="Layer_1" xmlns="http://www.w3.org/2000/svg" xmlns:xlink="http://www.w3.org/1999/xlink" x="0px" y="0px"
	 viewBox="130 250 368 307" enable-background="new 130 250 368 307" xml:space="preserve">
<g id="edit" display="none">
	<path display="inline" fill="none" stroke="#000000" stroke-linejoin="round" stroke-miterlimit="10" d="M367.2,549H153
		c-9.2,0-15.3-6.1-15.3-15.3V350.1c0-9.2,6.1-15.3,15.3-15.3h214.2c9.2,0,15.3,6.1,15.3,15.3v183.6C382.5,542.9,376.4,549,367.2,549
		z"/>
	<path display="inline" fill="none" stroke="#000000" stroke-linejoin="round" stroke-miterlimit="10" d="M244.8,304.2v-30.6
		c0-9.2,6.1-15.3,15.3-15.3h214.2c9.2,0,15.3,6.1,15.3,15.3v183.6c0,9.2-6.1,15.3-15.3,15.3h-61.2"/>
</g>
<g id="統合">
	<path d="M367.2,556.7H153c-12.2,0-22.9-10.7-22.9-23V350.1c0-12.2,10.7-23,22.9-23h214.2c12.2,0,22.9,10.7,22.9,23v183.6
		C390.1,545.9,379.4,556.7,367.2,556.7z M153,342.5c-4.6,0-7.6,3.1-7.6,7.6v183.6c0,4.6,3.1,7.6,7.6,7.6h214.2
		c4.6,0,7.6-3.1,7.6-7.6V350.1c0-4.6-3.1-7.6-7.6-7.6H153z"/>
	<path d="M474.3,480.1h-61.2v-15.3h61.2c4.6,0,7.6-3.1,7.6-7.6V273.6c0-4.6-3.1-7.6-7.6-7.6H260.1c-4.6,0-7.7,3.1-7.7,7.6v30.6
		h-15.3v-30.6c0-12.2,10.7-22.9,22.9-22.9h214.2c12.2,0,22.9,10.7,22.9,22.9v183.6C497.2,469.4,486.5,480.1,474.3,480.1z"/>
</g>
<g id="補足">
</g>
</svg>
