<?xml version="1.0" encoding="utf-8"?>
<!-- Generator: Adobe Illustrator 18.1.1, SVG Export Plug-In . SVG Version: 6.00 Build 0)  -->
<svg version="1.1" id="Layer_1" xmlns="http://www.w3.org/2000/svg" xmlns:xlink="http://www.w3.org/1999/xlink" x="0px" y="0px"
	 viewBox="-7176 -3521 276 490" enable-background="new -7176 -3521 276 490" xml:space="preserve">
<g id="edit" display="none">
	<g display="inline">
		<path fill="none" stroke="#000000" stroke-width="2" stroke-linecap="round" stroke-linejoin="round" stroke-miterlimit="10" d="
			M-6946.2-3046.5h-183.6c-16.8,0-30.6-13.8-30.6-30.6v-397.8c0-16.8,13.8-30.6,30.6-30.6h183.6c16.8,0,30.6,13.8,30.6,30.6v397.8
			C-6915.6-3060.3-6929.4-3046.5-6946.2-3046.5z"/>
		
			<line fill="none" stroke="#000000" stroke-width="2" stroke-linecap="round" stroke-linejoin="round" stroke-miterlimit="10" x1="-7160.4" y1="-3444.3" x2="-6915.6" y2="-3444.3"/>
		
			<line fill="none" stroke="#000000" stroke-width="2" stroke-linecap="round" stroke-linejoin="round" stroke-miterlimit="10" x1="-7160.4" y1="-3138.3" x2="-6915.6" y2="-3138.3"/>
		<circle cx="-7038" cy="-3092.4" r="15.3"/>
	</g>
</g>
<g id="統合">
	<g>
		<path d="M-6946.2-3031.2h-183.6c-26,0-45.9-19.9-45.9-45.9v-397.8c0-26,19.9-45.9,45.9-45.9h183.6c26,0,45.9,19.9,45.9,45.9v397.8
			C-6900.3-3051.1-6920.2-3031.2-6946.2-3031.2z M-7129.8-3490.2c-9.2,0-15.3,6.1-15.3,15.3v397.8c0,9.2,6.1,15.3,15.3,15.3h183.6
			c9.2,0,15.3-6.1,15.3-15.3v-397.8c0-9.2-6.1-15.3-15.3-15.3H-7129.8z"/>
		<path d="M-6915.6-3429h-244.8c-9.2,0-15.3-6.1-15.3-15.3s6.1-15.3,15.3-15.3h244.8c9.2,0,15.3,6.1,15.3,15.3
			S-6906.4-3429-6915.6-3429z"/>
		<path d="M-6915.6-3123h-244.8c-9.2,0-15.3-6.1-15.3-15.3s6.1-15.3,15.3-15.3h244.8c9.2,0,15.3,6.1,15.3,15.3
			S-6906.4-3123-6915.6-3123z"/>
		<circle cx="-7038" cy="-3092.4" r="15.3"/>
	</g>
</g>
<g id="補足">
</g>
</svg>
