<?xml version="1.0" encoding="utf-8"?>
<!-- Generator: Adobe Illustrator 18.1.1, SVG Export Plug-In . SVG Version: 6.00 Build 0)  -->
<svg version="1.1" id="Layer_1" xmlns="http://www.w3.org/2000/svg" xmlns:xlink="http://www.w3.org/1999/xlink" x="0px" y="0px"
	 viewBox="2111 -5311 491 536" enable-background="new 2111 -5311 491 536" xml:space="preserve">
<g id="edit" display="none">
	<circle display="inline" cx="2356.2" cy="-4806" r="30.6"/>
	<circle display="inline" cx="2570.4" cy="-4806" r="30.6"/>
	<circle display="inline" cx="2142" cy="-4806" r="30.6"/>
	<g display="inline">
		<path d="M2356.2-5280.3c27.5,0,49,23,49,49c0,13.8-6.1,27.5-16.8,36.7c-9.2,7.6-12.2,21.4-9.2,32.1c3.1,12.2,13.8,19.9,26,21.4
			c15.3,1.5,26,10.7,26,18.4v41.3h-153v-41.3c0-7.6,10.7-16.8,26-18.4c12.2-1.5,22.9-9.2,26-21.4c3.1-12.2,0-24.5-9.2-32.1
			c-10.7-9.2-16.8-22.9-16.8-36.7C2307.2-5257.4,2328.7-5280.3,2356.2-5280.3 M2356.2-5310.9c-44.4,0-79.6,36.7-79.6,79.6
			c0,24.5,10.7,44.4,27.5,59.7c-30.6,3.1-53.6,22.9-53.6,47.4v71.9h214.2v-71.9c0-24.5-22.9-44.4-53.6-47.4
			c16.8-15.3,27.5-35.2,27.5-59.7C2435.8-5274.2,2400.6-5310.9,2356.2-5310.9L2356.2-5310.9z"/>
	</g>
	
		<polyline display="inline" fill="none" stroke="#000000" stroke-width="2" stroke-linecap="round" stroke-linejoin="round" stroke-miterlimit="10" points="
		2142,-4882.5 2142,-4928.4 2570.4,-4928.4 2570.4,-4882.5 	"/>
	
		<line display="inline" fill="none" stroke="#000000" stroke-width="2" stroke-linecap="round" stroke-linejoin="round" stroke-miterlimit="10" x1="2356.2" y1="-4882.5" x2="2356.2" y2="-4974.3"/>
</g>
<g id="統合">
	<circle fill="#FFFFFF" cx="2356.2" cy="-4806" r="30.6"/>
	<circle fill="#FFFFFF" cx="2570.4" cy="-4806" r="30.6"/>
	<circle fill="#FFFFFF" cx="2142" cy="-4806" r="30.6"/>
	<path fill="#FFFFFF" d="M2356.2-5280.3c27.5,0,49,23,49,49c0,13.8-6.1,27.5-16.8,36.7c-9.2,7.6-12.2,21.4-9.2,32.1
		c3.1,12.2,13.8,19.9,26,21.4c15.3,1.5,26,10.7,26,18.4v41.3h-153v-41.3c0-7.6,10.7-16.8,26-18.4c12.2-1.5,22.9-9.2,26-21.4
		c3.1-12.2,0-24.5-9.2-32.1c-10.7-9.2-16.8-22.9-16.8-36.7C2307.2-5257.4,2328.7-5280.3,2356.2-5280.3 M2356.2-5310.9
		c-44.4,0-79.6,36.7-79.6,79.6c0,24.5,10.7,44.4,27.5,59.7c-30.6,3.1-53.6,22.9-53.6,47.4v71.9h214.2v-71.9
		c0-24.5-22.9-44.4-53.6-47.4c16.8-15.3,27.5-35.2,27.5-59.7C2435.8-5274.2,2400.6-5310.9,2356.2-5310.9L2356.2-5310.9z"/>
	<path fill="#FFFFFF" d="M2570.4-4867.2c-9.2,0-15.3-6.1-15.3-15.3v-30.6h-397.8v30.6c0,9.2-6.1,15.3-15.3,15.3s-15.3-6.1-15.3-15.3
		v-45.9c0-9.2,6.1-15.3,15.3-15.3h428.4c9.2,0,15.3,6.1,15.3,15.3v45.9C2585.7-4873.3,2579.6-4867.2,2570.4-4867.2z"/>
	<path fill="#FFFFFF" d="M2356.2-4867.2c-9.2,0-15.3-6.1-15.3-15.3v-91.8c0-9.2,6.1-15.3,15.3-15.3c9.2,0,15.3,6.1,15.3,15.3v91.8
		C2371.5-4873.3,2365.4-4867.2,2356.2-4867.2z"/>
</g>
<g id="補足">
</g>
</svg>
