<?xml version="1.0" encoding="utf-8"?>
<!-- Generator: Adobe Illustrator 18.1.1, SVG Export Plug-In . SVG Version: 6.00 Build 0)  -->
<svg version="1.1" id="Layer_1" xmlns="http://www.w3.org/2000/svg" xmlns:xlink="http://www.w3.org/1999/xlink" x="0px" y="0px"
	 viewBox="0 0 500 500" enable-background="new 0 0 500 500" xml:space="preserve">
<g id="edit" display="none">
	<path display="inline" fill="none" stroke="#000000" stroke-linejoin="round" stroke-miterlimit="10" d="M345.9,374.6v31.1
		c0,24.4-20.1,44.5-44.5,44.5H56.8c-24.4,0-44.5-20.1-44.5-44.5V94.3c0-24.4,20.1-44.5,44.5-44.5h244.6c24.4,0,44.5,20.1,44.5,44.5
		v24.4"/>
	<g display="inline">
		<g>
			<path fill="none" stroke="#000000" stroke-miterlimit="10" d="M432.6,121.1l51.2,73.4c6.7,11.2,4.5,24.4-4.5,31.1L443.7,250
				l-75.6-109l35.6-24.4C412.6,107.7,426,112.2,432.6,121.1z"/>
			<polyline fill="none" stroke="#000000" stroke-linejoin="round" stroke-miterlimit="10" points="423.8,263.4 270.3,370.1 
				168,361.2 194.7,261.2 348.2,154.4 			"/>
			<polygon points="223.6,365.7 181.3,305.7 168,361.2 			"/>
		</g>
		<line fill="none" stroke="#000000" stroke-miterlimit="10" x1="252.6" y1="330.1" x2="399.4" y2="227.8"/>
		<line fill="none" stroke="#000000" stroke-miterlimit="10" x1="228.1" y1="292.3" x2="372.6" y2="190"/>
	</g>
</g>
<g id="統合">
	<g>
		<path d="M334.9,405.8c0,17.7-15.6,33.4-33.4,33.4H56.8c-17.7,0-33.4-15.6-33.4-33.4V94.3C23.4,76.6,39,61,56.8,61h244.6
			c17.7,0,33.4,15.6,33.4,33.3v33.4h22.2V94.3c0-31.1-24.4-55.5-55.5-55.5H57c-31.1,0-55.5,24.4-55.5,55.5v311.3
			c0,31.1,24.4,55.5,55.5,55.5h244.6c31.1,0,55.5-24.4,55.5-55.5v-33.3h-22.2V405.8z"/>
		<path d="M492.7,187.8l-51.2-73.4c-11-15.6-31.1-17.7-46.7-8.9l-44.5,31.1l89,126.7l44.5-31.1c6.7-4.5,11-13.4,13.4-22.2
			C499.4,205.7,499.4,196.7,492.7,187.8z M472.8,216.7l-26.7,20.1l-64.5-91.1l26.7-20.1c4.5-4.5,11-2.2,15.6,2.2l51.2,73.4
			c2.2,2.2,2.2,4.5,2.2,8.9C477.2,212.2,475,214.5,472.8,216.7z"/>
		<path d="M268.2,359l-51.2-4.5l-26.7-35.6l13.4-51.2l149-104.5l-13.4-17.7L185.8,252.2c-2.2,2.2-4.5,4.5-4.5,6.7L154.5,359
			c0,2.2,0,6.7,2.2,8.9c2.2,2.2,4.5,4.5,8.9,4.5l104.5,8.9l0,0c2.2,0,4.5,0,6.7-2.2l153.5-106.7l-13.4-17.7L268.2,359z"/>
		<rect x="314.8" y="190.4" transform="matrix(0.5737 0.819 -0.819 0.5737 367.7345 -147.8463)" width="22.2" height="177.9"/>
		<rect x="290.2" y="154" transform="matrix(-0.5737 -0.819 0.819 -0.5737 275.2029 629.1069)" width="22.2" height="177.9"/>
	</g>
</g>
<g id="補足">
</g>
</svg>
