<?xml version="1.0" encoding="utf-8"?>
<!-- Generator: Adobe Illustrator 18.1.1, SVG Export Plug-In . SVG Version: 6.00 Build 0)  -->
<svg version="1.1" id="Layer_1" xmlns="http://www.w3.org/2000/svg" xmlns:xlink="http://www.w3.org/1999/xlink" x="0px" y="0px"
	 viewBox="-9181 1926 246 245" enable-background="new -9181 1926 246 245" xml:space="preserve">
<g id="edit" display="none">
	<g display="inline">
		<path d="M-8965.8,1970.4c9.2,0,15.3,6.1,15.3,15.3v153c0,9.2-6.1,15.3-15.3,15.3h-183.6c-9.2,0-15.3-6.1-15.3-15.3v-153
			c0-9.2,6.1-15.3,15.3-15.3L-8965.8,1970.4 M-8965.8,1955.1h-183.6c-16.8,0-30.6,13.8-30.6,30.6v153c0,16.8,13.8,30.6,30.6,30.6
			h183.6c16.8,0,30.6-13.8,30.6-30.6v-153C-8935.2,1968.8-8949,1955.1-8965.8,1955.1L-8965.8,1955.1z"/>
	</g>
	<rect x="-9134.1" y="1941.3" display="inline" fill="#FFFFFF" width="45.9" height="45.9"/>
	
		<line display="inline" fill="none" stroke="#000000" stroke-linecap="round" stroke-linejoin="round" stroke-miterlimit="10" x1="-9111.2" y1="1941.3" x2="-9111.2" y2="1987.2"/>
	<rect x="-9027" y="1941.3" display="inline" fill="#FFFFFF" width="45.9" height="45.9"/>
	
		<line display="inline" fill="none" stroke="#000000" stroke-linecap="round" stroke-linejoin="round" stroke-miterlimit="10" x1="-9004" y1="1941.3" x2="-9004" y2="1987.2"/>
	
		<line display="inline" fill="none" stroke="#000000" stroke-linejoin="round" stroke-miterlimit="10" x1="-9180" y1="2010.2" x2="-8935.2" y2="2010.2"/>
	
		<polyline display="inline" fill="none" stroke="#000000" stroke-linecap="round" stroke-linejoin="round" stroke-miterlimit="10" points="
		-9126.5,2040.8 -9080.5,2040.8 -9080.5,2086.7 -9126.5,2086.7 -9126.5,2132.6 -9080.5,2132.6 	"/>
	<g display="inline">
		<polyline fill="none" stroke="#000000" stroke-linecap="round" stroke-linejoin="round" stroke-miterlimit="10" points="
			-9034.7,2040.8 -8988.8,2040.8 -8988.8,2086.7 -9034.7,2086.7 		"/>
		<polyline fill="none" stroke="#000000" stroke-linecap="round" stroke-linejoin="round" stroke-miterlimit="10" points="
			-9034.7,2086.7 -8988.8,2086.7 -8988.8,2132.6 -9034.7,2132.6 		"/>
	</g>
</g>
<g id="統合">
	<g>
		<path d="M-9111.2,1987.2c4.6,0,7.7-3.1,7.7-7.7v-45.9c0-4.6-3.1-7.7-7.7-7.7s-7.6,3.1-7.6,7.7v45.9
			C-9118.8,1984.1-9115.7,1987.2-9111.2,1987.2z"/>
		<path d="M-9004,1987.2c4.6,0,7.6-3.1,7.6-7.7v-45.9c0-4.6-3.1-7.7-7.6-7.7s-7.7,3.1-7.7,7.7v45.9
			C-9011.7,1984.1-9008.6,1987.2-9004,1987.2z"/>
		<rect x="-9088.2" y="1956.6" width="61.2" height="15.3"/>
		<path d="M-8965.8,1956.6h-15.3v15.3h15.3c9.2,0,15.3,6.1,15.3,15.3v15.3h-214.2v-15.3c0-9.2,6.1-15.3,15.3-15.3h15.3v-15.3h-15.3
			c-16.8,0-30.6,13.8-30.6,30.6v153c0,16.8,13.8,30.6,30.6,30.6h183.6c16.8,0,30.6-13.8,30.6-30.6v-153
			C-8935.2,1970.4-8949,1956.6-8965.8,1956.6z M-8950.5,2140.2c0,9.2-6.1,15.3-15.3,15.3h-183.6c-9.2,0-15.3-6.1-15.3-15.3v-122.4
			h214.2V2140.2z"/>
		<path d="M-9126.5,2140.2h45.9c4.6,0,7.6-3.1,7.6-7.6s-3.1-7.6-7.6-7.6h-38.2v-30.6h38.2c4.6,0,7.6-3.1,7.6-7.6v-45.9
			c0-4.6-3.1-7.7-7.6-7.7h-45.9c-4.6,0-7.7,3.1-7.7,7.7c0,4.6,3.1,7.6,7.7,7.6h38.2v30.6h-38.2c-4.6,0-7.7,3.1-7.7,7.7v45.9
			C-9134.1,2137.1-9131,2140.2-9126.5,2140.2z"/>
		<path d="M-9034.7,2124.9c-4.6,0-7.6,3.1-7.6,7.6s3.1,7.6,7.6,7.6h45.9c4.6,0,7.6-3.1,7.6-7.6v-45.9v-45.9c0-4.6-3.1-7.7-7.6-7.7
			h-45.9c-4.6,0-7.6,3.1-7.6,7.7c0,4.6,3.1,7.6,7.6,7.6h38.2v30.6h-38.2c-4.6,0-7.6,3.1-7.6,7.7c0,4.6,3.1,7.6,7.6,7.6h38.2v30.6
			H-9034.7z"/>
	</g>
</g>
<g id="補足">
</g>
</svg>
