<?xml version="1.0" encoding="utf-8"?>
<!-- Generator: Adobe Illustrator 18.0.0, SVG Export Plug-In . SVG Version: 6.00 Build 0)  -->
<!DOCTYPE svg PUBLIC "-//W3C//DTD SVG 1.1//EN" "http://www.w3.org/Graphics/SVG/1.1/DTD/svg11.dtd">
<svg version="1.1" xmlns="http://www.w3.org/2000/svg" xmlns:xlink="http://www.w3.org/1999/xlink" x="0px" y="0px"
	 viewBox="0 0 16 16" enable-background="new 0 0 16 16" xml:space="preserve">
<g id="base">
</g>
<g id="header">
</g>
<g id="h1求人詳細用" display="none">
</g>
<g id="main">
	<g>
		<g>
			<path fill="#FFFFFF" d="M2,15.5c-0.8,0-1.5-0.7-1.5-1.5V2c0-0.8,0.7-1.5,1.5-1.5h12c0.8,0,1.5,0.7,1.5,1.5v12
				c0,0.8-0.7,1.5-1.5,1.5H2z"/>
			<path fill="#38B0E1" d="M14,1c0.6,0,1,0.4,1,1v12c0,0.6-0.4,1-1,1H2c-0.6,0-1-0.4-1-1V2c0-0.6,0.4-1,1-1H14 M14,0H2
				C0.9,0,0,0.9,0,2v12c0,1.1,0.9,2,2,2h12c1.1,0,2-0.9,2-2V2C16,0.9,15.1,0,14,0L14,0z"/>
		</g>
		<g>
			<g>
				<path fill="#38B0E1" d="M8.1,8.9V10H7.3V8.6c0.8-0.5,1.4-0.9,1.6-1.2c0.2-0.3,0.3-0.6,0.3-1c0-0.4-0.1-0.7-0.4-0.9
					c-0.2-0.2-0.6-0.3-1-0.3c-0.5,0-1.1,0.2-1.7,0.5H6.1V4.8c0.6-0.2,1.3-0.4,1.9-0.4c0.7,0,1.2,0.2,1.7,0.5
					c0.4,0.3,0.6,0.8,0.6,1.4c0,0.4-0.1,0.8-0.4,1.2C9.6,8,9,8.4,8.1,8.9z M8.3,12h-1v-1h1V12z"/>
			</g>
		</g>
	</g>
</g>
<g id="headding">
</g>
<g id="hover">
	<g id="h1_1_">
	</g>
	<g id="help">
	</g>
</g>
<g id="レイヤー_3">
</g>
<g id="guide">
</g>
<g id="header_1_">
	<g id="hover_1_">
	</g>
</g>
</svg>
