<?xml version="1.0" encoding="utf-8"?>
<!-- Generator: Adobe Illustrator 18.1.1, SVG Export Plug-In . SVG Version: 6.00 Build 0)  -->
<svg version="1.1" xmlns="http://www.w3.org/2000/svg" xmlns:xlink="http://www.w3.org/1999/xlink" x="0px" y="0px"
	 viewBox="0 0 248 21" enable-background="new 0 0 248 21" xml:space="preserve">
<g id="eidt" display="none">
	<g display="inline">
		<g>
			<g>
				<g>
					<path fill="#666666" d="M73.5,19.1c0.8-0.9,1.8-1.8,2.8-2.7c1.6-1.4,3.8-2.1,6.1-2.1c3.7,0,7,1.7,9.2,4.3c0,0,0-0.1,0-0.1V1
						c0-0.2-0.1-0.4-0.3-0.5c-0.2-0.1-0.4,0-0.6,0.1L73.1,18.3c-0.2,0.2-0.2,0.4-0.1,0.6C73.1,19,73.3,19.1,73.5,19.1z"/>
				</g>
				<g>
					<path fill="#666666" d="M107.9,4.3L107.9,4.3C107.9,4.3,107.9,4.3,107.9,4.3h-9.6v1.9h7.1c-1.1,4.1-5.1,6.8-8.1,8.2l1,1.7
						c2.7-1.3,4.5-2.6,6-4.2c1.4,1.5,2.9,3.1,3.8,4.2l1.5-1.4c-1-1.3-2.3-2.7-3.9-4.3C107.2,8.2,107.9,5.5,107.9,4.3z"/>
					<path fill="#666666" d="M130.1,6.6c-1.4-1.1-2.7-2-4-2.7l-1.2,1.6c1.3,0.8,2.6,1.8,4,2.8L130.1,6.6z"/>
					<path fill="#666666" d="M137.6,14.3l1.8,1.6c0.9-1.4,1.6-2.7,2.1-4.2c0.7-2,1.2-4.5,1.5-7.5l-2.2-0.4
						C140.4,8.4,139.4,11.9,137.6,14.3z"/>
					<path fill="#666666" d="M145.7,4.3c0.3,3,0.8,5.5,1.5,7.5c0.5,1.4,1.2,2.8,2.1,4.2l1.8-1.6c-1.7-2.4-2.8-5.9-3.2-10.4
						L145.7,4.3z"/>
					<path fill="#666666" d="M162.7,3.2c-2.4,2.8-5.8,4.8-10.2,6.2l1.1,2c2-0.8,3.7-1.5,4.9-2.2v6.8h2V7.8c1.4-1,2.6-2.1,3.8-3.3
						L162.7,3.2z"/>
					<rect x="149.1" y="3" fill="#666666" width="1.2" height="2.8"/>
					<rect x="150.8" y="3" fill="#666666" width="1.2" height="2.8"/>
					<path fill="#666666" d="M110.3,9.4l1.4,1.5c0.6-0.6,1.2-1.2,1.8-1.7l4.3,2.6c-1.3,1.1-3.2,2-5.9,2.6l0.8,2
						c2.2-0.5,5.2-1.4,7.4-3.7c1.9-2.3,2.4-5.7,2.6-8.4h-8.8C113.1,6,112.1,7.8,110.3,9.4z M115.4,6.1h5c-0.2,1.5-0.6,2.9-1.3,4.1
						l-4.4-2.7C114.9,7.1,115.1,6.6,115.4,6.1z"/>
					<path fill="#666666" d="M125,13.4l0.5,2.2c3.8-0.4,10.1-1.4,11.8-9.4l-1.9-0.7C134.4,9.5,132,12.8,125,13.4z"/>
				</g>
				<g>
					<path fill="#666666" d="M168.9,3.8h3.6c0.2,0,0.4,0,0.7,0c0.3,0,0.6,0,0.9,0.1c0.3,0.1,0.7,0.2,1,0.3c0.3,0.1,0.6,0.3,0.9,0.6
						c0.3,0.2,0.5,0.6,0.7,0.9c0.2,0.4,0.3,0.8,0.3,1.4c0,0.6-0.1,1.1-0.3,1.5c-0.2,0.4-0.5,0.7-0.8,0.9c-0.3,0.2-0.6,0.4-1,0.5
						c-0.4,0.1-0.7,0.2-1.1,0.2l3.6,5.9h-1.3l-3.5-5.9h-2.5v5.9h-1.2V3.8z M170.1,9.3h2.8c0.6,0,1.1-0.1,1.5-0.2
						c0.4-0.2,0.7-0.3,0.9-0.6c0.2-0.2,0.4-0.5,0.4-0.7c0.1-0.3,0.1-0.5,0.1-0.7s0-0.4-0.1-0.7c-0.1-0.3-0.2-0.5-0.4-0.7
						c-0.2-0.2-0.5-0.4-0.9-0.6c-0.4-0.2-0.9-0.2-1.5-0.2h-2.8V9.3z"/>
					<path fill="#666666" d="M186.5,14.5c-0.4,0.6-0.9,1.1-1.5,1.3c-0.6,0.3-1.3,0.4-2,0.4c-0.6,0-1.2-0.1-1.7-0.3
						c-0.5-0.2-0.9-0.5-1.3-0.9c-0.4-0.4-0.6-0.8-0.8-1.3c-0.2-0.5-0.3-1.1-0.3-1.7c0-0.6,0.1-1.2,0.3-1.7c0.2-0.5,0.5-1,0.8-1.3
						c0.4-0.4,0.8-0.7,1.3-0.9c0.5-0.2,1-0.3,1.6-0.3c0.6,0,1.2,0.1,1.6,0.3c0.5,0.2,0.9,0.5,1.2,0.9c0.3,0.4,0.6,0.8,0.7,1.2
						c0.2,0.5,0.2,0.9,0.2,1.4v0.7H180c0,0.2,0,0.5,0.1,0.8c0.1,0.3,0.2,0.7,0.5,1c0.2,0.3,0.5,0.6,0.9,0.8c0.4,0.2,0.9,0.3,1.5,0.3
						c0.5,0,1.1-0.1,1.6-0.4c0.5-0.3,0.9-0.6,1.2-1L186.5,14.5z M185.7,11.3c0-0.4-0.1-0.7-0.2-1c-0.1-0.3-0.3-0.6-0.6-0.8
						c-0.3-0.2-0.5-0.4-0.9-0.6c-0.3-0.1-0.7-0.2-1.1-0.2c-0.6,0-1,0.1-1.4,0.3c-0.4,0.2-0.7,0.5-0.9,0.8c-0.2,0.3-0.4,0.6-0.5,0.9
						c-0.1,0.3-0.1,0.5-0.1,0.6H185.7z"/>
					<path fill="#666666" d="M195.9,14.9c-0.4,0.5-0.8,0.8-1.3,1.1c-0.5,0.2-1,0.3-1.6,0.3c-0.6,0-1.2-0.1-1.7-0.3
						c-0.5-0.2-1-0.5-1.3-0.9c-0.4-0.4-0.7-0.8-0.9-1.3c-0.2-0.5-0.3-1.1-0.3-1.7c0-0.6,0.1-1.2,0.3-1.7c0.2-0.5,0.5-1,0.9-1.3
						c0.4-0.4,0.8-0.7,1.3-0.9s1.1-0.3,1.7-0.3c0.6,0,1.1,0.1,1.6,0.4c0.5,0.2,1,0.6,1.4,1l-0.8,0.6c-0.3-0.3-0.6-0.6-1-0.8
						c-0.4-0.2-0.7-0.3-1.2-0.3c-0.5,0-0.9,0.1-1.3,0.3c-0.4,0.2-0.7,0.4-1,0.7c-0.3,0.3-0.5,0.6-0.6,1c-0.1,0.4-0.2,0.8-0.2,1.3
						s0.1,0.9,0.2,1.3c0.1,0.4,0.4,0.7,0.6,1c0.3,0.3,0.6,0.5,1,0.7c0.4,0.2,0.8,0.3,1.3,0.3c0.4,0,0.8-0.1,1.2-0.3
						c0.4-0.2,0.7-0.5,1-0.8L195.9,14.9z"/>
					<path fill="#666666" d="M214.6,4.9c0-0.2,0.1-0.4,0.2-0.6c0.2-0.2,0.3-0.2,0.6-0.2c0.2,0,0.4,0.1,0.6,0.2
						c0.2,0.2,0.2,0.3,0.2,0.6c0,0.2-0.1,0.4-0.2,0.6c-0.2,0.2-0.3,0.2-0.6,0.2c-0.2,0-0.4-0.1-0.6-0.2
						C214.7,5.3,214.6,5.1,214.6,4.9z M214.9,7.8h1v8.4h-1V7.8z"/>
					<path fill="#666666" d="M225.9,4.9c0-0.2,0.1-0.4,0.2-0.6c0.2-0.2,0.3-0.2,0.6-0.2c0.2,0,0.4,0.1,0.6,0.2
						c0.2,0.2,0.2,0.3,0.2,0.6c0,0.2-0.1,0.4-0.2,0.6c-0.2,0.2-0.3,0.2-0.6,0.2c-0.2,0-0.4-0.1-0.6-0.2C226,5.3,225.9,5.1,225.9,4.9
						z M226.1,7.8h1v8.4h-1V7.8z"/>
					<path fill="#666666" d="M248,15.7c0,1-0.1,1.8-0.4,2.4c-0.3,0.6-0.7,1.1-1.1,1.4c-0.4,0.3-0.9,0.6-1.4,0.7
						c-0.5,0.1-1,0.2-1.4,0.2c-0.4,0-0.8,0-1.2-0.1c-0.4-0.1-0.8-0.2-1.1-0.3c-0.3-0.1-0.7-0.3-1-0.5c-0.3-0.2-0.5-0.4-0.7-0.7
						l0.8-0.8c0.4,0.5,0.8,0.9,1.4,1.2c0.6,0.2,1.2,0.4,1.8,0.4c0.5,0,1-0.1,1.4-0.2c0.4-0.1,0.7-0.3,0.9-0.5
						c0.2-0.2,0.4-0.5,0.6-0.7c0.1-0.3,0.2-0.5,0.3-0.8c0.1-0.3,0.1-0.5,0.1-0.8c0-0.2,0-0.4,0-0.6v-1.1h0c-0.3,0.5-0.7,0.9-1.2,1.2
						s-1.1,0.4-1.8,0.4c-0.6,0-1.2-0.1-1.7-0.3c-0.5-0.2-1-0.5-1.4-0.9c-0.4-0.4-0.7-0.8-0.9-1.3c-0.2-0.5-0.3-1-0.3-1.6
						c0-0.6,0.1-1.1,0.3-1.6c0.2-0.5,0.5-0.9,0.9-1.3c0.4-0.4,0.8-0.7,1.4-0.9c0.5-0.2,1.1-0.3,1.7-0.3c0.7,0,1.3,0.1,1.8,0.4
						c0.5,0.3,0.9,0.7,1.2,1.2h0V7.8h1V15.7z M247,12.1c0-0.4-0.1-0.9-0.3-1.2c-0.2-0.4-0.4-0.7-0.7-1c-0.3-0.3-0.6-0.5-1-0.7
						c-0.4-0.2-0.8-0.3-1.2-0.3S243,9,242.6,9.2c-0.4,0.2-0.7,0.4-1,0.7c-0.3,0.3-0.5,0.6-0.7,1c-0.2,0.4-0.3,0.8-0.3,1.2
						c0,0.4,0.1,0.9,0.3,1.2c0.2,0.4,0.4,0.7,0.7,1c0.3,0.3,0.6,0.5,1,0.7c0.4,0.2,0.8,0.3,1.2,0.3s0.9-0.1,1.2-0.3
						c0.4-0.2,0.7-0.4,1-0.7c0.3-0.3,0.5-0.6,0.7-1C246.9,13,247,12.6,247,12.1z"/>
					<polygon fill="#666666" points="221.4,8.7 223.7,8.7 223.7,7.8 221.4,7.8 221.4,5.5 220.4,5.5 220.4,7.8 218.1,7.8 218.1,8.7 
						220.4,8.7 220.4,16.2 221.4,16.2 					"/>
					<path fill="#666666" d="M234,7.8L234,7.8c-1,0-1.8,0.4-2.5,1v-1h-1.1v3.5v4.9h1.1v-4.9c0-1.3,1.1-2.4,2.4-2.4h0
						c1.3,0,2.4,1.1,2.4,2.4v4.9h1.1v-4.9C237.5,9.4,235.9,7.8,234,7.8z"/>
					<path fill="#666666" d="M201.7,7.8c-0.9,0-1.8,0.4-2.4,1v-1h-1.1v8.4h1.1v-4.9c0-1.3,1.1-2.4,2.4-2.4h0.7V7.8H201.7z"/>
					<path fill="#666666" d="M211.5,7.9L211.5,7.9h-1.1h0v4.9c0,1.3-1.1,2.4-2.4,2.4h0c-1.3,0-2.4-1.1-2.4-2.4V7.9h-1.1v4.9
						c0,1.9,1.6,3.5,3.5,3.5h0c0.9,0,1.8-0.4,2.4-1v0.9h1.1v-3.4c0,0,0,0,0,0V7.9z"/>
				</g>
			</g>
		</g>
		<g>
			<text transform="matrix(1 0 0 1 -0.1561 15.4398)" fill="#666666" font-family="'Avenir-Book'" font-size="13">powered by</text>
		</g>
	</g>
</g>
<g id="統合">
	<g>
		<g>
			<g>
				<g>
					<path fill="#666666" d="M73.5,19.1c0.8-0.9,1.8-1.8,2.8-2.7c1.6-1.4,3.8-2.1,6.1-2.1c3.7,0,7,1.7,9.2,4.3c0,0,0-0.1,0-0.1V1
						c0-0.2-0.1-0.4-0.3-0.5c-0.2-0.1-0.4,0-0.6,0.1L73.1,18.3c-0.2,0.2-0.2,0.4-0.1,0.6C73.1,19,73.3,19.1,73.5,19.1z"/>
				</g>
				<g>
					<path fill="#666666" d="M107.9,4.3L107.9,4.3C107.9,4.3,107.9,4.3,107.9,4.3h-9.6v1.9h7.1c-1.1,4.1-5.1,6.8-8.1,8.2l1,1.7
						c2.7-1.3,4.5-2.6,6-4.2c1.4,1.5,2.9,3.1,3.8,4.2l1.5-1.4c-1-1.3-2.3-2.7-3.9-4.3C107.2,8.2,107.9,5.5,107.9,4.3z"/>
					<path fill="#666666" d="M130.1,6.6c-1.4-1.1-2.7-2-4-2.7l-1.2,1.6c1.3,0.8,2.6,1.8,4,2.8L130.1,6.6z"/>
					<path fill="#666666" d="M137.6,14.3l1.8,1.6c0.9-1.4,1.6-2.7,2.1-4.2c0.7-2,1.2-4.5,1.5-7.5l-2.2-0.4
						C140.4,8.4,139.4,11.9,137.6,14.3z"/>
					<path fill="#666666" d="M145.7,4.3c0.3,3,0.8,5.5,1.5,7.5c0.5,1.4,1.2,2.8,2.1,4.2l1.8-1.6c-1.7-2.4-2.8-5.9-3.2-10.4
						L145.7,4.3z"/>
					<path fill="#666666" d="M162.7,3.2c-2.4,2.8-5.8,4.8-10.2,6.2l1.1,2c2-0.8,3.7-1.5,4.9-2.2v6.8h2V7.8c1.4-1,2.6-2.1,3.8-3.3
						L162.7,3.2z"/>
					<rect x="149.1" y="3" fill="#666666" width="1.2" height="2.8"/>
					<rect x="150.8" y="3" fill="#666666" width="1.2" height="2.8"/>
					<path fill="#666666" d="M110.3,9.4l1.4,1.5c0.6-0.6,1.2-1.2,1.8-1.7l4.3,2.6c-1.3,1.1-3.2,2-5.9,2.6l0.8,2
						c2.2-0.5,5.2-1.4,7.4-3.7c1.9-2.3,2.4-5.7,2.6-8.4h-8.8C113.1,6,112.1,7.8,110.3,9.4z M115.4,6.1h5c-0.2,1.5-0.6,2.9-1.3,4.1
						l-4.4-2.7C114.9,7.1,115.1,6.6,115.4,6.1z"/>
					<path fill="#666666" d="M125,13.4l0.5,2.2c3.8-0.4,10.1-1.4,11.8-9.4l-1.9-0.7C134.4,9.5,132,12.8,125,13.4z"/>
				</g>
				<g>
					<path fill="#666666" d="M168.9,3.8h3.6c0.2,0,0.4,0,0.7,0c0.3,0,0.6,0,0.9,0.1c0.3,0.1,0.7,0.2,1,0.3c0.3,0.1,0.6,0.3,0.9,0.6
						c0.3,0.2,0.5,0.6,0.7,0.9c0.2,0.4,0.3,0.8,0.3,1.4c0,0.6-0.1,1.1-0.3,1.5c-0.2,0.4-0.5,0.7-0.8,0.9c-0.3,0.2-0.6,0.4-1,0.5
						c-0.4,0.1-0.7,0.2-1.1,0.2l3.6,5.9h-1.3l-3.5-5.9h-2.5v5.9h-1.2V3.8z M170.1,9.3h2.8c0.6,0,1.1-0.1,1.5-0.2
						c0.4-0.2,0.7-0.3,0.9-0.6c0.2-0.2,0.4-0.5,0.4-0.7c0.1-0.3,0.1-0.5,0.1-0.7s0-0.4-0.1-0.7c-0.1-0.3-0.2-0.5-0.4-0.7
						c-0.2-0.2-0.5-0.4-0.9-0.6c-0.4-0.2-0.9-0.2-1.5-0.2h-2.8V9.3z"/>
					<path fill="#666666" d="M186.5,14.5c-0.4,0.6-0.9,1.1-1.5,1.3c-0.6,0.3-1.3,0.4-2,0.4c-0.6,0-1.2-0.1-1.7-0.3
						c-0.5-0.2-0.9-0.5-1.3-0.9c-0.4-0.4-0.6-0.8-0.8-1.3c-0.2-0.5-0.3-1.1-0.3-1.7c0-0.6,0.1-1.2,0.3-1.7c0.2-0.5,0.5-1,0.8-1.3
						c0.4-0.4,0.8-0.7,1.3-0.9c0.5-0.2,1-0.3,1.6-0.3c0.6,0,1.2,0.1,1.6,0.3c0.5,0.2,0.9,0.5,1.2,0.9c0.3,0.4,0.6,0.8,0.7,1.2
						c0.2,0.5,0.2,0.9,0.2,1.4v0.7H180c0,0.2,0,0.5,0.1,0.8c0.1,0.3,0.2,0.7,0.5,1c0.2,0.3,0.5,0.6,0.9,0.8c0.4,0.2,0.9,0.3,1.5,0.3
						c0.5,0,1.1-0.1,1.6-0.4c0.5-0.3,0.9-0.6,1.2-1L186.5,14.5z M185.7,11.3c0-0.4-0.1-0.7-0.2-1c-0.1-0.3-0.3-0.6-0.6-0.8
						c-0.3-0.2-0.5-0.4-0.9-0.6c-0.3-0.1-0.7-0.2-1.1-0.2c-0.6,0-1,0.1-1.4,0.3c-0.4,0.2-0.7,0.5-0.9,0.8c-0.2,0.3-0.4,0.6-0.5,0.9
						c-0.1,0.3-0.1,0.5-0.1,0.6H185.7z"/>
					<path fill="#666666" d="M195.9,14.9c-0.4,0.5-0.8,0.8-1.3,1.1c-0.5,0.2-1,0.3-1.6,0.3c-0.6,0-1.2-0.1-1.7-0.3
						c-0.5-0.2-1-0.5-1.3-0.9c-0.4-0.4-0.7-0.8-0.9-1.3c-0.2-0.5-0.3-1.1-0.3-1.7c0-0.6,0.1-1.2,0.3-1.7c0.2-0.5,0.5-1,0.9-1.3
						c0.4-0.4,0.8-0.7,1.3-0.9s1.1-0.3,1.7-0.3c0.6,0,1.1,0.1,1.6,0.4c0.5,0.2,1,0.6,1.4,1l-0.8,0.6c-0.3-0.3-0.6-0.6-1-0.8
						c-0.4-0.2-0.7-0.3-1.2-0.3c-0.5,0-0.9,0.1-1.3,0.3c-0.4,0.2-0.7,0.4-1,0.7c-0.3,0.3-0.5,0.6-0.6,1c-0.1,0.4-0.2,0.8-0.2,1.3
						s0.1,0.9,0.2,1.3c0.1,0.4,0.4,0.7,0.6,1c0.3,0.3,0.6,0.5,1,0.7c0.4,0.2,0.8,0.3,1.3,0.3c0.4,0,0.8-0.1,1.2-0.3
						c0.4-0.2,0.7-0.5,1-0.8L195.9,14.9z"/>
					<path fill="#666666" d="M214.6,4.9c0-0.2,0.1-0.4,0.2-0.6c0.2-0.2,0.3-0.2,0.6-0.2c0.2,0,0.4,0.1,0.6,0.2
						c0.2,0.2,0.2,0.3,0.2,0.6c0,0.2-0.1,0.4-0.2,0.6c-0.2,0.2-0.3,0.2-0.6,0.2c-0.2,0-0.4-0.1-0.6-0.2
						C214.7,5.3,214.6,5.1,214.6,4.9z M214.9,7.8h1v8.4h-1V7.8z"/>
					<path fill="#666666" d="M225.9,4.9c0-0.2,0.1-0.4,0.2-0.6c0.2-0.2,0.3-0.2,0.6-0.2c0.2,0,0.4,0.1,0.6,0.2
						c0.2,0.2,0.2,0.3,0.2,0.6c0,0.2-0.1,0.4-0.2,0.6c-0.2,0.2-0.3,0.2-0.6,0.2c-0.2,0-0.4-0.1-0.6-0.2C226,5.3,225.9,5.1,225.9,4.9
						z M226.1,7.8h1v8.4h-1V7.8z"/>
					<path fill="#666666" d="M248,15.7c0,1-0.1,1.8-0.4,2.4c-0.3,0.6-0.7,1.1-1.1,1.4c-0.4,0.3-0.9,0.6-1.4,0.7
						c-0.5,0.1-1,0.2-1.4,0.2c-0.4,0-0.8,0-1.2-0.1c-0.4-0.1-0.8-0.2-1.1-0.3c-0.3-0.1-0.7-0.3-1-0.5c-0.3-0.2-0.5-0.4-0.7-0.7
						l0.8-0.8c0.4,0.5,0.8,0.9,1.4,1.2c0.6,0.2,1.2,0.4,1.8,0.4c0.5,0,1-0.1,1.4-0.2c0.4-0.1,0.7-0.3,0.9-0.5
						c0.2-0.2,0.4-0.5,0.6-0.7c0.1-0.3,0.2-0.5,0.3-0.8c0.1-0.3,0.1-0.5,0.1-0.8c0-0.2,0-0.4,0-0.6v-1.1h0c-0.3,0.5-0.7,0.9-1.2,1.2
						s-1.1,0.4-1.8,0.4c-0.6,0-1.2-0.1-1.7-0.3c-0.5-0.2-1-0.5-1.4-0.9c-0.4-0.4-0.7-0.8-0.9-1.3c-0.2-0.5-0.3-1-0.3-1.6
						c0-0.6,0.1-1.1,0.3-1.6c0.2-0.5,0.5-0.9,0.9-1.3c0.4-0.4,0.8-0.7,1.4-0.9c0.5-0.2,1.1-0.3,1.7-0.3c0.7,0,1.3,0.1,1.8,0.4
						c0.5,0.3,0.9,0.7,1.2,1.2h0V7.8h1V15.7z M247,12.1c0-0.4-0.1-0.9-0.3-1.2c-0.2-0.4-0.4-0.7-0.7-1c-0.3-0.3-0.6-0.5-1-0.7
						c-0.4-0.2-0.8-0.3-1.2-0.3S243,9,242.6,9.2c-0.4,0.2-0.7,0.4-1,0.7c-0.3,0.3-0.5,0.6-0.7,1c-0.2,0.4-0.3,0.8-0.3,1.2
						c0,0.4,0.1,0.9,0.3,1.2c0.2,0.4,0.4,0.7,0.7,1c0.3,0.3,0.6,0.5,1,0.7c0.4,0.2,0.8,0.3,1.2,0.3s0.9-0.1,1.2-0.3
						c0.4-0.2,0.7-0.4,1-0.7c0.3-0.3,0.5-0.6,0.7-1C246.9,13,247,12.6,247,12.1z"/>
					<polygon fill="#666666" points="221.4,8.7 223.7,8.7 223.7,7.8 221.4,7.8 221.4,5.5 220.4,5.5 220.4,7.8 218.1,7.8 218.1,8.7 
						220.4,8.7 220.4,16.2 221.4,16.2 					"/>
					<path fill="#666666" d="M234,7.8L234,7.8c-1,0-1.8,0.4-2.5,1v-1h-1.1v3.5v4.9h1.1v-4.9c0-1.3,1.1-2.4,2.4-2.4h0
						c1.3,0,2.4,1.1,2.4,2.4v4.9h1.1v-4.9C237.5,9.4,235.9,7.8,234,7.8z"/>
					<path fill="#666666" d="M201.7,7.8c-0.9,0-1.8,0.4-2.4,1v-1h-1.1v8.4h1.1v-4.9c0-1.3,1.1-2.4,2.4-2.4h0.7V7.8H201.7z"/>
					<path fill="#666666" d="M211.5,7.9L211.5,7.9h-1.1h0v4.9c0,1.3-1.1,2.4-2.4,2.4h0c-1.3,0-2.4-1.1-2.4-2.4V7.9h-1.1v4.9
						c0,1.9,1.6,3.5,3.5,3.5h0c0.9,0,1.8-0.4,2.4-1v0.9h1.1v-3.4c0,0,0,0,0,0V7.9z"/>
				</g>
			</g>
		</g>
		<g>
			<g>
				<path fill="#666666" d="M0.8,9.4h0.9v1h0C1.8,10.2,2,10,2.2,9.8c0.2-0.1,0.4-0.3,0.6-0.4C3,9.4,3.2,9.3,3.4,9.3S3.8,9.2,4,9.2
					c0.5,0,0.9,0.1,1.3,0.2c0.4,0.2,0.7,0.4,1,0.7s0.5,0.6,0.7,1s0.2,0.8,0.2,1.3S7.2,13.3,7,13.7s-0.4,0.7-0.7,1s-0.6,0.5-1,0.7
					S4.5,15.6,4,15.6c-0.2,0-0.4,0-0.6-0.1S3,15.4,2.8,15.3c-0.2-0.1-0.4-0.2-0.6-0.4c-0.2-0.1-0.4-0.3-0.5-0.5h0v4.8H0.8V9.4z
					 M6.3,12.4c0-0.3-0.1-0.7-0.2-0.9c-0.1-0.3-0.3-0.6-0.5-0.8c-0.2-0.2-0.4-0.4-0.7-0.5C4.7,10,4.4,10,4,10s-0.7,0.1-1,0.2
					s-0.6,0.3-0.8,0.5c-0.2,0.2-0.4,0.5-0.5,0.8c-0.1,0.3-0.2,0.6-0.2,0.9s0.1,0.7,0.2,0.9c0.1,0.3,0.3,0.6,0.5,0.8
					c0.2,0.2,0.5,0.4,0.8,0.5c0.3,0.1,0.6,0.2,1,0.2s0.7-0.1,1-0.2c0.3-0.1,0.5-0.3,0.7-0.5c0.2-0.2,0.4-0.5,0.5-0.8
					C6.3,13.1,6.3,12.7,6.3,12.4z"/>
				<path fill="#666666" d="M14.7,12.4c0,0.5-0.1,0.9-0.2,1.3c-0.2,0.4-0.4,0.7-0.7,1s-0.6,0.5-1,0.7s-0.8,0.2-1.3,0.2
					c-0.5,0-0.9-0.1-1.3-0.2s-0.7-0.4-1-0.7s-0.5-0.6-0.7-1s-0.2-0.8-0.2-1.3s0.1-0.9,0.2-1.3s0.4-0.7,0.7-1s0.6-0.5,1-0.7
					c0.4-0.2,0.8-0.2,1.3-0.2c0.5,0,0.9,0.1,1.3,0.2c0.4,0.2,0.7,0.4,1,0.7s0.5,0.6,0.7,1C14.7,11.5,14.7,11.9,14.7,12.4z
					 M13.8,12.4c0-0.3-0.1-0.7-0.2-0.9c-0.1-0.3-0.3-0.6-0.5-0.8c-0.2-0.2-0.4-0.4-0.7-0.5c-0.3-0.1-0.6-0.2-1-0.2s-0.7,0.1-1,0.2
					c-0.3,0.1-0.5,0.3-0.7,0.5c-0.2,0.2-0.3,0.5-0.5,0.8c-0.1,0.3-0.2,0.6-0.2,0.9s0.1,0.7,0.2,0.9c0.1,0.3,0.3,0.6,0.5,0.8
					c0.2,0.2,0.4,0.4,0.7,0.5c0.3,0.1,0.6,0.2,1,0.2s0.7-0.1,1-0.2c0.3-0.1,0.5-0.3,0.7-0.5c0.2-0.2,0.4-0.5,0.5-0.8
					C13.8,13.1,13.8,12.7,13.8,12.4z"/>
				<path fill="#666666" d="M16.4,9.4l1.4,4.9h0l1.6-4.9h0.9l1.6,4.9h0l1.4-4.9h1l-1.9,6.1h-1l-1.6-5h0l-1.6,5h-1l-1.9-6.1H16.4z"/>
				<path fill="#666666" d="M26,12.6c0,0.3,0.1,0.6,0.2,0.9c0.1,0.3,0.3,0.5,0.5,0.7c0.2,0.2,0.4,0.3,0.7,0.5s0.5,0.2,0.8,0.2
					c0.5,0,0.9-0.1,1.2-0.3c0.3-0.2,0.6-0.5,0.8-0.7l0.7,0.5c-0.4,0.5-0.8,0.8-1.2,1s-0.9,0.3-1.4,0.3c-0.5,0-0.9-0.1-1.3-0.2
					s-0.7-0.4-1-0.7c-0.3-0.3-0.5-0.6-0.7-1s-0.2-0.8-0.2-1.3s0.1-0.9,0.2-1.3c0.2-0.4,0.4-0.7,0.6-1s0.6-0.5,1-0.7
					c0.4-0.2,0.8-0.2,1.2-0.2c0.5,0,0.9,0.1,1.2,0.2c0.4,0.2,0.7,0.4,0.9,0.7s0.4,0.6,0.6,1c0.1,0.4,0.2,0.8,0.2,1.2v0.4H26z
					 M30.2,11.9c0-0.6-0.2-1.1-0.5-1.4c-0.3-0.4-0.8-0.5-1.5-0.5c-0.3,0-0.5,0.1-0.8,0.2c-0.3,0.1-0.5,0.3-0.7,0.4
					c-0.2,0.2-0.4,0.4-0.5,0.6c-0.1,0.2-0.2,0.5-0.2,0.7H30.2z"/>
				<path fill="#666666" d="M32.6,11.3c0-0.3,0-0.5,0-0.8c0-0.3,0-0.6,0-1.1h0.8v1.1h0c0.1-0.2,0.1-0.3,0.3-0.5
					c0.1-0.2,0.2-0.3,0.4-0.4s0.3-0.2,0.6-0.3c0.2-0.1,0.5-0.1,0.7-0.1c0.2,0,0.5,0,0.6,0.1l-0.2,0.8c-0.1,0-0.3-0.1-0.5-0.1
					c-0.3,0-0.6,0.1-0.8,0.2c-0.2,0.1-0.4,0.3-0.6,0.5c-0.2,0.2-0.3,0.4-0.3,0.6c-0.1,0.2-0.1,0.4-0.1,0.6v3.4h-0.9V11.3z"/>
				<path fill="#666666" d="M37.3,12.6c0,0.3,0.1,0.6,0.2,0.9c0.1,0.3,0.3,0.5,0.5,0.7c0.2,0.2,0.4,0.3,0.7,0.5s0.5,0.2,0.8,0.2
					c0.5,0,0.9-0.1,1.2-0.3c0.3-0.2,0.6-0.5,0.8-0.7l0.7,0.5c-0.4,0.5-0.8,0.8-1.2,1s-0.9,0.3-1.4,0.3c-0.5,0-0.9-0.1-1.3-0.2
					s-0.7-0.4-1-0.7c-0.3-0.3-0.5-0.6-0.7-1s-0.2-0.8-0.2-1.3s0.1-0.9,0.2-1.3c0.2-0.4,0.4-0.7,0.6-1s0.6-0.5,1-0.7
					c0.4-0.2,0.8-0.2,1.2-0.2c0.5,0,0.9,0.1,1.2,0.2c0.4,0.2,0.7,0.4,0.9,0.7s0.4,0.6,0.6,1c0.1,0.4,0.2,0.8,0.2,1.2v0.4H37.3z
					 M41.4,11.9c0-0.6-0.2-1.1-0.5-1.4c-0.3-0.4-0.8-0.5-1.5-0.5c-0.3,0-0.5,0.1-0.8,0.2c-0.3,0.1-0.5,0.3-0.7,0.4
					c-0.2,0.2-0.4,0.4-0.5,0.6c-0.1,0.2-0.2,0.5-0.2,0.7H41.4z"/>
				<path fill="#666666" d="M49.9,15.4H49v-1h0c-0.1,0.2-0.3,0.4-0.5,0.5s-0.4,0.3-0.6,0.4c-0.2,0.1-0.4,0.2-0.6,0.2
					c-0.2,0-0.4,0.1-0.6,0.1c-0.5,0-0.9-0.1-1.3-0.2s-0.7-0.4-1-0.7s-0.5-0.6-0.7-1c-0.2-0.4-0.2-0.8-0.2-1.3s0.1-0.9,0.2-1.3
					c0.2-0.4,0.4-0.7,0.7-1s0.6-0.5,1-0.7c0.4-0.2,0.8-0.2,1.3-0.2c0.2,0,0.4,0,0.6,0.1c0.2,0,0.4,0.1,0.6,0.2
					c0.2,0.1,0.4,0.2,0.6,0.4s0.4,0.3,0.5,0.5h0V5.6h0.9V15.4z M44.3,12.4c0,0.3,0.1,0.7,0.2,0.9c0.1,0.3,0.3,0.6,0.5,0.8
					c0.2,0.2,0.4,0.4,0.7,0.5c0.3,0.1,0.6,0.2,1,0.2c0.3,0,0.7-0.1,1-0.2c0.3-0.1,0.6-0.3,0.8-0.5c0.2-0.2,0.4-0.5,0.5-0.8
					c0.1-0.3,0.2-0.6,0.2-0.9s-0.1-0.7-0.2-0.9c-0.1-0.3-0.3-0.6-0.5-0.8c-0.2-0.2-0.5-0.4-0.8-0.5S47,10,46.6,10
					c-0.4,0-0.7,0.1-1,0.2c-0.3,0.1-0.5,0.3-0.7,0.5c-0.2,0.2-0.4,0.5-0.5,0.8C44.4,11.7,44.3,12.1,44.3,12.4z"/>
				<path fill="#666666" d="M55.1,5.6H56v4.8h0c0.1-0.2,0.3-0.4,0.5-0.5c0.2-0.1,0.4-0.3,0.6-0.4c0.2-0.1,0.4-0.2,0.6-0.2
					s0.4-0.1,0.6-0.1c0.5,0,0.9,0.1,1.3,0.2c0.4,0.2,0.7,0.4,1,0.7s0.5,0.6,0.7,1s0.2,0.8,0.2,1.3s-0.1,0.9-0.2,1.3s-0.4,0.7-0.7,1
					s-0.6,0.5-1,0.7s-0.8,0.2-1.3,0.2c-0.2,0-0.4,0-0.6-0.1s-0.4-0.1-0.6-0.2c-0.2-0.1-0.4-0.2-0.6-0.4c-0.2-0.1-0.4-0.3-0.5-0.5h0
					v1h-0.9V5.6z M60.7,12.4c0-0.3-0.1-0.7-0.2-0.9c-0.1-0.3-0.3-0.6-0.5-0.8c-0.2-0.2-0.4-0.4-0.7-0.5C59,10,58.7,10,58.4,10
					s-0.7,0.1-1,0.2s-0.6,0.3-0.8,0.5c-0.2,0.2-0.4,0.5-0.5,0.8c-0.1,0.3-0.2,0.6-0.2,0.9s0.1,0.7,0.2,0.9c0.1,0.3,0.3,0.6,0.5,0.8
					c0.2,0.2,0.5,0.4,0.8,0.5c0.3,0.1,0.6,0.2,1,0.2s0.7-0.1,1-0.2c0.3-0.1,0.5-0.3,0.7-0.5c0.2-0.2,0.4-0.5,0.5-0.8
					C60.6,13.1,60.7,12.7,60.7,12.4z"/>
				<path fill="#666666" d="M65.2,14.4l1.9-5h1L65,17c-0.2,0.5-0.4,0.8-0.7,1.1s-0.7,0.4-1.2,0.4c-0.1,0-0.3,0-0.4,0
					c-0.1,0-0.3,0-0.4-0.1l0.1-0.8c0.2,0.1,0.4,0.1,0.6,0.1c0.3,0,0.5-0.1,0.7-0.3c0.2-0.2,0.3-0.5,0.5-0.8l0.4-1.2l-2.5-6.2h1.1
					L65.2,14.4z"/>
			</g>
		</g>
	</g>
</g>
</svg>
