<?xml version="1.0" encoding="utf-8"?>
<!-- Generator: Adobe Illustrator 18.1.1, SVG Export Plug-In . SVG Version: 6.00 Build 0)  -->
<svg version="1.1" id="Layer_1" xmlns="http://www.w3.org/2000/svg" xmlns:xlink="http://www.w3.org/1999/xlink" x="0px" y="0px"
	 viewBox="-3520 258 292 307" enable-background="new -3520 258 292 307" xml:space="preserve">
<g id="edit" display="none">
	<path display="inline" fill="none" stroke="#000000" stroke-linejoin="round" stroke-miterlimit="10" d="M-3427.2,503.1"/>
	<path display="inline" fill="none" stroke="#000000" stroke-linejoin="round" stroke-miterlimit="10" d="M-3457.8,503.1h-30.6
		c-9.2,0-15.3-6.1-15.3-15.3v-153c0-9.2,6.1-15.3,15.3-15.3h244.8c9.2,0,15.3,6.1,15.3,15.3v153c0,9.2-6.1,15.3-15.3,15.3h-30.6"/>
	
		<line display="inline" fill="none" stroke="#000000" stroke-linejoin="round" stroke-miterlimit="10" x1="-3457.8" y1="449.6" x2="-3274.2" y2="449.6"/>
	
		<rect x="-3427.2" y="449.6" display="inline" fill="#FFFFFF" stroke="#000000" stroke-linejoin="round" stroke-miterlimit="10" width="122.4" height="107.1"/>
	
		<rect x="-3427.2" y="258.3" display="inline" fill="#FFFFFF" stroke="#000000" stroke-linejoin="round" stroke-miterlimit="10" width="122.4" height="61.2"/>
	<circle display="inline" cx="-3274.2" cy="380.7" r="15.3"/>
	
		<line display="inline" fill="none" stroke="#000000" stroke-linejoin="round" stroke-miterlimit="10" x1="-3396.6" y1="495.5" x2="-3335.4" y2="495.5"/>
	
		<line display="inline" fill="none" stroke="#000000" stroke-linejoin="round" stroke-miterlimit="10" x1="-3396.6" y1="526" x2="-3335.4" y2="526"/>
</g>
<g id="統合">
	<g>
		<path d="M-3251.2,319.5h-53.6V266c0-4.6-3.1-7.7-7.6-7.7h-122.4c-4.6,0-7.6,3.1-7.6,7.7v53.5h-53.6c-12.2,0-22.9,10.7-22.9,23v153
			c0,12.2,10.7,23,22.9,23h22.9v-15.3h-22.9c-4.6,0-7.6-3.1-7.6-7.6v-153c0-4.6,3.1-7.7,7.6-7.7h61.2h122.4h61.2
			c4.6,0,7.6,3.1,7.6,7.7v153c0,4.6-3.1,7.6-7.6,7.6h-38.2v15.3h38.2c12.2,0,22.9-10.7,22.9-23v-153
			C-3228.3,330.2-3239,319.5-3251.2,319.5z M-3427.2,319.5v-45.9h107.1v45.9H-3427.2z"/>
		<path d="M-3473.1,441.9v15.3h30.6V549c0,4.6,3.1,15.3,7.6,15.3h122.4c4.6,0,7.6-10.7,7.6-15.3v-91.8h15.3v-15.3H-3473.1z
			 M-3320.1,549h-107.1v-91.8h107.1V549z"/>
		<circle cx="-3281.9" cy="388.4" r="15.3"/>
		<rect x="-3411.9" y="487.8" width="76.5" height="15.3"/>
		<rect x="-3411.9" y="518.4" width="76.5" height="15.3"/>
	</g>
</g>
<g id="補足">
</g>
</svg>
