<?xml version="1.0" encoding="utf-8"?>
<!-- Generator: Adobe Illustrator 18.1.1, SVG Export Plug-In . SVG Version: 6.00 Build 0)  -->
<svg version="1.1" id="Layer_1" xmlns="http://www.w3.org/2000/svg" xmlns:xlink="http://www.w3.org/1999/xlink" x="0px" y="0px"
	 viewBox="-9050 -5266 444 448" enable-background="new -9050 -5266 444 448" xml:space="preserve">
<g id="edit" display="none">
	<path display="inline" d="M-9037.7-4818.2c19.9-21.4,42.8-42.8,65.8-64.3c38.2-33.7,90.3-50.5,145.4-50.5
		c88.7,0,168.3,39.8,220.3,104v-1.5v-422.3c0-4.6-3.1-9.2-7.7-12.2c-4.6-1.5-10.7-1.5-13.8,3.1l-417.7,422.3
		c-3.1,3.1-4.6,9.2-3.1,13.8C-9046.9-4821.3-9042.3-4818.2-9037.7-4818.2z"/>
</g>
<g id="統合">
	<path fill="#FFFFFF" d="M-9037.7-4818.2c19.9-21.4,42.8-42.8,65.8-64.3c38.2-33.7,90.3-50.5,145.4-50.5
		c88.7,0,168.3,39.8,220.3,104v-1.5v-422.3c0-4.6-3.1-9.2-7.7-12.2c-4.6-1.5-10.7-1.5-13.8,3.1l-417.7,422.3
		c-3.1,3.1-4.6,9.2-3.1,13.8C-9046.9-4821.3-9042.3-4818.2-9037.7-4818.2z"/>
</g>
<g id="補足">
</g>
</svg>
