<?xml version="1.0" encoding="utf-8"?>
<!-- Generator: Adobe Illustrator 18.1.1, SVG Export Plug-In . SVG Version: 6.00 Build 0)  -->
<svg version="1.1" id="Layer_1" xmlns="http://www.w3.org/2000/svg" xmlns:xlink="http://www.w3.org/1999/xlink" x="0px" y="0px"
	 viewBox="-3642 1933 169 231" enable-background="new -3642 1933 169 231" xml:space="preserve">
<g id="edit" display="none">
	<path display="inline" fill="none" stroke="#000000" stroke-linecap="round" stroke-linejoin="round" stroke-miterlimit="10" d="
		M-3465.4,2155.5v-49c0-27.5-21.4-50.5-47.4-58.1c16.8-9.2,27.5-27.5,27.5-49c0-30.6-26-55.1-56.6-55.1c-30.6,0-55.1,24.5-55.1,55.1
		c0,21.4,7.6,39.8,26,49c-24.5,7.7-47.4,30.6-47.4,58.1v49"/>
</g>
<g id="統合">
	<path d="M-3480.8,2163.2c-4.6,0-7.7-3.1-7.7-7.7v-52c0-23-15.3-44.4-38.2-50.5c-3.1-1.5-4.6-3.1-6.1-6.1c0-3.1,1.5-6.1,4.6-7.6
		c15.3-7.7,26-24.5,26-41.3c0-26-21.4-47.4-47.4-47.4c-26,0-47.4,21.4-47.4,47.4c0,23,6.1,35.2,18.4,41.3c3.1,1.5,4.6,4.6,4.6,7.6
		c0,3.1-3.1,6.1-6.1,6.1c-21.4,6.1-45.9,27.5-45.9,50.5v52c0,4.6-3.1,7.7-7.6,7.7s-7.7-3.1-7.7-7.7v-52c0-26,19.9-49,42.8-59.7
		c-12.2-13.8-13.8-32.1-13.8-47.4c0-35.2,27.5-62.7,62.7-62.7c35.2,0,62.7,27.5,62.7,62.7c0,18.4-7.7,35.2-21.4,47.4
		c21.4,12.2,35.2,35.2,35.2,59.7v52C-3473.1,2160.1-3476.2,2163.2-3480.8,2163.2z"/>
</g>
<g id="補足">
</g>
</svg>
