<?xml version="1.0" encoding="utf-8"?>
<!-- Generator: Adobe Illustrator 18.1.1, SVG Export Plug-In . SVG Version: 6.00 Build 0)  -->
<svg version="1.1" id="Layer_1" xmlns="http://www.w3.org/2000/svg" xmlns:xlink="http://www.w3.org/1999/xlink" x="0px" y="0px"
	 viewBox="-5470 1936 151 229" enable-background="new -5470 1936 151 229" xml:space="preserve">
<g id="edit" display="none">
	
		<path id="location-icon_29_" display="inline" fill="none" stroke="#000000" stroke-linecap="round" stroke-linejoin="round" stroke-miterlimit="10" d="
		M-5394.8,1942.8c-36.7,0-67.3,30.6-67.3,67.3s29.1,81.1,67.3,146.9c38.2-65.8,67.3-108.6,67.3-146.9
		C-5325.9,1973.4-5356.5,1942.8-5394.8,1942.8z M-5394.8,2045.3c-19.9,0-35.2-15.3-35.2-35.2s15.3-35.2,35.2-35.2
		c19.9,0,35.2,15.3,35.2,35.2C-5358.1,2030-5374.9,2045.3-5394.8,2045.3z"/>
</g>
<g id="統合">
	<path d="M-5394.8,2164.7c-3.1,0-4.6-1.5-6.1-3.1c-6.1-9.2-10.7-18.4-16.8-27.5c-30.6-52-52-88.7-52-122.4c0-41.3,33.7-75,75-75
		c41.3,0,75,33.7,75,75c0,33.7-21.4,71.9-52,122.4c-4.6,9.2-10.7,18.4-16.8,27.5C-5388.7,2163.2-5391.7,2164.7-5394.8,2164.7z
		 M-5394.8,1950.5c-33.7,0-59.7,27.5-59.7,59.7c0,30.6,21.4,65.8,50.5,114.8c3.1,4.6,6.1,10.7,9.2,16.8c3.1-6.1,6.1-10.7,9.2-16.8
		c29.1-49,50.5-85.7,50.5-114.8C-5333.6,1978-5361.1,1950.5-5394.8,1950.5z M-5394.8,2053c-24.5,0-42.8-19.9-42.8-42.8
		s19.9-42.8,42.8-42.8c23,0,42.8,19.9,42.8,42.8S-5370.3,2053-5394.8,2053z M-5394.8,1981.1c-15.3,0-27.5,12.2-27.5,27.5
		c0,15.3,12.2,27.5,27.5,27.5c15.3,0,27.5-12.2,27.5-27.5C-5367.2,1993.3-5379.5,1981.1-5394.8,1981.1z"/>
</g>
<g id="補足">
</g>
</svg>
