<?xml version="1.0" encoding="utf-8"?>
<!-- Generator: Adobe Illustrator 18.1.1, SVG Export Plug-In . SVG Version: 6.00 Build 0)  -->
<svg version="1.1" id="Layer_1" xmlns="http://www.w3.org/2000/svg" xmlns:xlink="http://www.w3.org/1999/xlink" x="0px" y="0px"
	 viewBox="-9089 3915 462 337" enable-background="new -9089 3915 462 337" xml:space="preserve">
<g id="edit" display="none">
	<g display="inline">
		
			<polyline fill="none" stroke="#4D4D52" stroke-width="2" stroke-linecap="round" stroke-linejoin="round" stroke-miterlimit="10" points="
			-8707.2,3996.1 -8851,3988.4 -8881.7,3934.9 -9072.9,3930.3 -9053,4236.3 -8714.9,4236.3 		"/>
		
			<polygon fill="#FFFFFF" stroke="#4D4D52" stroke-width="2" stroke-linecap="round" stroke-linejoin="round" stroke-miterlimit="10" points="
			-8699.6,4236.3 -9053,4236.3 -8988.8,4038.9 -8644.5,4048.1 		"/>
	</g>
</g>
<g id="統合">
	<path fill="#4D4D52" d="M-8632.3,4040.5c-3.1-3.1-7.6-6.1-12.2-6.1l-344.2-9.2c-7.7,0-12.2,4.6-15.3,10.7l-39.8,120.9l-13.8-209.6
		l165.2,4.6l26,45.9c3.1,4.6,7.7,7.7,12.2,7.7l145.3,7.6c7.7,0,15.3-6.1,15.3-15.3c0-9.2-6.1-15.3-15.3-15.3l-136.2-6.1l-26-47.4
		c-3.1-4.6-7.7-7.7-13.8-7.7l-188.2-6.1c-4.6,0-7.6,1.5-10.7,4.6s-4.6,7.6-4.6,12.2l19.9,306l0,0c0,1.5,0,3.1,1.5,4.6c0,0,0,0,0,1.5
		c0,0,0,1.5,1.5,1.5l1.5,1.5l0,0c1.5,1.5,3.1,1.5,4.6,3.1c0,0,0,0,1.5,0c1.5,0,3.1,1.5,4.6,1.5h339.7h15.3c6.1,0,12.2-4.6,15.3-10.7
		l55.1-188.2C-8629.2,4048.1-8629.2,4043.5-8632.3,4040.5z M-8710.3,4221h-4.6h-318.2l55.1-166.8l313.7,9.2L-8710.3,4221z"/>
</g>
<g id="補足">
</g>
</svg>
