<?xml version="1.0" encoding="utf-8"?>
<!-- Generator: Adobe Illustrator 18.1.1, SVG Export Plug-In . SVG Version: 6.00 Build 0)  -->
<svg version="1.1" id="レイヤー_1" xmlns="http://www.w3.org/2000/svg" xmlns:xlink="http://www.w3.org/1999/xlink" x="0px"
	 y="0px" viewBox="0 13.8 21.3 1.7" enable-background="new 0 13.8 21.3 1.7" xml:space="preserve">
<g id="eidt" display="none">
	<g display="inline">
		<g>
			<g>
				<g>
					<path fill="#666666" d="M8.9,16c0.1-0.1,0.2-0.2,0.3-0.3c0.2-0.2,0.5-0.3,0.7-0.3c0.4,0,0.8,0.2,1.1,0.5v0v-2.1c0,0,0,0,0-0.1
						c0,0,0,0-0.1,0L8.9,16C8.8,16,8.8,16,8.9,16C8.8,16,8.9,16,8.9,16z"/>
				</g>
				<g>
					<path fill="#666666" d="M13.1,14.2L13.1,14.2L13.1,14.2h-1.2v0.2h0.9c-0.1,0.5-0.6,0.8-1,1l0.1,0.2c0.3-0.2,0.5-0.3,0.7-0.5
						c0.2,0.2,0.4,0.4,0.5,0.5l0.2-0.2c-0.1-0.2-0.3-0.3-0.5-0.5C13,14.7,13.1,14.4,13.1,14.2z"/>
					<path fill="#666666" d="M15.7,14.5c-0.2-0.1-0.3-0.2-0.5-0.3l-0.1,0.2c0.2,0.1,0.3,0.2,0.5,0.3L15.7,14.5z"/>
					<path fill="#666666" d="M16.6,15.5l0.2,0.2c0.1-0.2,0.2-0.3,0.3-0.5c0.1-0.2,0.1-0.5,0.2-0.9l-0.3,0
						C17,14.7,16.9,15.2,16.6,15.5z"/>
					<path fill="#666666" d="M17.6,14.2c0,0.4,0.1,0.7,0.2,0.9c0.1,0.2,0.1,0.3,0.3,0.5l0.2-0.2c-0.2-0.3-0.3-0.7-0.4-1.3L17.6,14.2
						z"/>
					<path fill="#666666" d="M19.7,14.1c-0.3,0.3-0.7,0.6-1.2,0.8l0.1,0.2c0.2-0.1,0.4-0.2,0.6-0.3v0.8h0.2v-1
						c0.2-0.1,0.3-0.3,0.5-0.4L19.7,14.1z"/>
					<rect x="18" y="14.1" fill="#666666" width="0.1" height="0.3"/>
					<rect x="18.2" y="14.1" fill="#666666" width="0.1" height="0.3"/>
					<path fill="#666666" d="M13.3,14.9l0.2,0.2c0.1-0.1,0.1-0.1,0.2-0.2l0.5,0.3c-0.2,0.1-0.4,0.2-0.7,0.3l0.1,0.2
						c0.3-0.1,0.6-0.2,0.9-0.4c0.2-0.3,0.3-0.7,0.3-1h-1.1C13.7,14.5,13.6,14.7,13.3,14.9z M14,14.5h0.6c0,0.2-0.1,0.4-0.2,0.5
						l-0.5-0.3C13.9,14.6,13.9,14.5,14,14.5z"/>
					<path fill="#666666" d="M15.1,15.4l0.1,0.3c0.5,0,1.2-0.2,1.4-1.1l-0.2-0.1C16.3,14.9,16,15.3,15.1,15.4z"/>
				</g>
				<g>
					<path fill="#666666" d="M20.4,14.2h0.4c0,0,0,0,0.1,0c0,0,0.1,0,0.1,0c0,0,0.1,0,0.1,0c0,0,0.1,0,0.1,0.1c0,0,0.1,0.1,0.1,0.1
						c0,0,0,0.1,0,0.2c0,0.1,0,0.1,0,0.2c0,0-0.1,0.1-0.1,0.1s-0.1,0-0.1,0.1c0,0-0.1,0-0.1,0l0.4,0.7h-0.2L20.9,15h-0.3v0.7h-0.1
						C20.4,15.7,20.4,14.2,20.4,14.2z M20.6,14.9h0.3c0.1,0,0.1,0,0.2,0c0,0,0.1,0,0.1-0.1c0,0,0-0.1,0-0.1c0,0,0-0.1,0-0.1
						c0,0,0,0,0-0.1c0,0,0-0.1,0-0.1c0,0-0.1,0-0.1-0.1c0,0-0.1,0-0.2,0h-0.3V14.9z"/>
					<path fill="#666666" d="M22.6,15.5c0,0.1-0.1,0.1-0.2,0.2c-0.1,0-0.2,0-0.2,0c-0.1,0-0.1,0-0.2,0c-0.1,0-0.1-0.1-0.2-0.1
						c0,0-0.1-0.1-0.1-0.2s0-0.1,0-0.2c0-0.1,0-0.1,0-0.2s0.1-0.1,0.1-0.2c0,0,0.1-0.1,0.2-0.1c0.1,0,0.1,0,0.2,0c0.1,0,0.1,0,0.2,0
						c0.1,0,0.1,0.1,0.1,0.1c0,0,0.1,0.1,0.1,0.1c0,0.1,0,0.1,0,0.2v0.1h-0.8c0,0,0,0.1,0,0.1c0,0,0,0.1,0.1,0.1
						c0,0,0.1,0.1,0.1,0.1s0.1,0,0.2,0c0.1,0,0.1,0,0.2,0C22.4,15.5,22.4,15.4,22.6,15.5L22.6,15.5z M22.5,15.1c0,0,0-0.1,0-0.1
						c0,0,0-0.1-0.1-0.1s-0.1,0-0.1-0.1c0,0-0.1,0-0.1,0c-0.1,0-0.1,0-0.2,0s-0.1,0.1-0.1,0.1c0,0,0,0.1-0.1,0.1c0,0,0,0.1,0,0.1
						H22.5z"/>
					<path fill="#666666" d="M23.7,15.5c0,0.1-0.1,0.1-0.2,0.1c-0.1,0-0.1,0-0.2,0c-0.1,0-0.1,0-0.2,0S23,15.6,23,15.6
						c0,0-0.1-0.1-0.1-0.2s0-0.1,0-0.2c0-0.1,0-0.1,0-0.2s0.1-0.1,0.1-0.2c0,0,0.1-0.1,0.2-0.1s0.1,0,0.2,0c0.1,0,0.1,0,0.2,0
						c0.1,0,0.1,0.1,0.2,0.1l-0.1,0.1c0,0-0.1-0.1-0.1-0.1c0,0-0.1,0-0.1,0s-0.1,0-0.2,0s-0.1,0-0.1,0.1C23,15,23,15,23,15
						c0,0,0,0.1,0,0.2s0,0.1,0,0.2c0,0,0,0.1,0.1,0.1c0,0,0.1,0.1,0.1,0.1c0,0,0.1,0,0.2,0c0,0,0.1,0,0.1,0
						C23.5,15.5,23.6,15.5,23.7,15.5L23.7,15.5z"/>
					<path fill="#666666" d="M26,14.3C26,14.3,26,14.3,26,14.3C26,14.2,26,14.2,26,14.3c0.1-0.1,0.1-0.1,0.2-0.1c0,0,0,0,0,0.1
						c0,0,0,0,0,0.1C26.1,14.4,26.1,14.4,26,14.3C26,14.4,26,14.4,26,14.3C26,14.4,26,14.3,26,14.3z M26,14.7h0.1v1H26V14.7z"/>
					<path fill="#666666" d="M27.3,14.3C27.3,14.3,27.3,14.3,27.3,14.3C27.4,14.2,27.4,14.2,27.3,14.3c0.1-0.1,0.1-0.1,0.2-0.1
						c0,0,0,0,0,0.1c0,0,0,0,0,0.1C27.5,14.4,27.5,14.4,27.3,14.3C27.4,14.4,27.4,14.4,27.3,14.3C27.3,14.4,27.3,14.3,27.3,14.3z
						 M27.4,14.7h0.1v1h-0.1V14.7z"/>
					<path fill="#666666" d="M30,15.6c0,0.1,0,0.2,0,0.3c0,0.1-0.1,0.1-0.1,0.2c0,0-0.1,0.1-0.2,0.1c-0.1,0-0.1,0-0.2,0
						s-0.1,0-0.1,0c0,0-0.1,0-0.1,0c0,0-0.1,0-0.1-0.1c0,0-0.1,0-0.1-0.1l0.1-0.1c0,0.1,0.1,0.1,0.2,0.1c0.1,0,0.1,0,0.2,0
						c0.1,0,0.1,0,0.2,0c0,0,0.1,0,0.1-0.1c0,0,0-0.1,0.1-0.1c0,0,0-0.1,0-0.1s0-0.1,0-0.1c0,0,0,0,0-0.1v-0.1l0,0
						c0,0.1-0.1,0.1-0.1,0.1c-0.1,0-0.1,0-0.2,0c-0.1,0-0.1,0-0.2,0s-0.1-0.1-0.2-0.1c0,0-0.1-0.1-0.1-0.2s0-0.1,0-0.2
						c0-0.1,0-0.1,0-0.2s0.1-0.1,0.1-0.2c0,0,0.1-0.1,0.2-0.1c0.1,0,0.1,0,0.2,0c0.1,0,0.2,0,0.2,0s0.1,0.1,0.1,0.1l0,0v-0.3H30
						C30,14.7,30,15.6,30,15.6z M29.9,15.2c0,0,0-0.1,0-0.1c0,0,0-0.1-0.1-0.1c0,0-0.1-0.1-0.1-0.1c0,0-0.1,0-0.1,0c0,0-0.1,0-0.1,0
						c0,0-0.1,0-0.1,0.1c0,0-0.1,0.1-0.1,0.1c0,0,0,0.1,0,0.1c0,0,0,0.1,0,0.1c0,0,0,0.1,0.1,0.1c0,0,0.1,0.1,0.1,0.1
						c0,0,0.1,0,0.1,0c0,0,0.1,0,0.1,0c0,0,0.1,0,0.1-0.1c0,0,0.1-0.1,0.1-0.1C29.9,15.3,29.9,15.3,29.9,15.2z"/>
					<polygon fill="#666666" points="26.8,14.8 27.1,14.8 27.1,14.7 26.8,14.7 26.8,14.4 26.7,14.4 26.7,14.7 26.4,14.7 26.4,14.8 
						26.7,14.8 26.7,15.7 26.8,15.7 					"/>
					<path fill="#666666" d="M28.3,14.7L28.3,14.7c-0.1,0-0.2,0-0.3,0.1v-0.1h-0.1v0.4v0.6H28v-0.6c0-0.2,0.1-0.3,0.3-0.3l0,0
						c0.2,0,0.3,0.1,0.3,0.3v0.6h0.1v-0.6C28.7,14.9,28.5,14.7,28.3,14.7z"/>
					<path fill="#666666" d="M24.4,14.7c-0.1,0-0.2,0-0.3,0.1v-0.1H24v1h0.1v-0.6c0-0.2,0.1-0.3,0.3-0.3h0.1L24.4,14.7L24.4,14.7z"
						/>
					<path fill="#666666" d="M25.6,14.7L25.6,14.7h-0.1l0,0v0.6c0,0.2-0.1,0.3-0.3,0.3l0,0c-0.2,0-0.3-0.1-0.3-0.3v-0.6h-0.1v0.6
						c0,0.2,0.2,0.4,0.4,0.4l0,0c0.1,0,0.2,0,0.3-0.1v0.1h0.1v-0.4l0,0V14.7z"/>
				</g>
			</g>
		</g>
		<g>
			<text transform="matrix(1 0 0 1 -1.878150e-02 15.5976)" fill="#666666" font-family="'Avenir-Book'" font-size="1.5726">powered by</text>
		</g>
	</g>
</g>
<g id="統合">
	<g>
		<g>
			<g>
				<g>
					<path fill="#FFFFFF" d="M6.3,15.4c0.1-0.1,0.2-0.2,0.2-0.2C6.7,15,6.9,15,7.1,15c0.3,0,0.6,0.1,0.8,0.4c0,0,0,0,0,0v-1.5
						c0,0,0,0,0,0c0,0,0,0,0,0L6.3,15.4C6.3,15.3,6.3,15.4,6.3,15.4C6.3,15.4,6.3,15.4,6.3,15.4z"/>
				</g>
				<g>
					<path fill="#FFFFFF" d="M9.3,14.1L9.3,14.1L9.3,14.1H8.5v0.2h0.6C9,14.6,8.6,14.8,8.4,15l0.1,0.1C8.7,15,8.8,14.9,9,14.7
						c0.1,0.1,0.2,0.3,0.3,0.4L9.4,15c-0.1-0.1-0.2-0.2-0.3-0.4C9.2,14.4,9.3,14.2,9.3,14.1z"/>
					<path fill="#FFFFFF" d="M11.2,14.3c-0.1-0.1-0.2-0.2-0.3-0.2l-0.1,0.1c0.1,0.1,0.2,0.2,0.3,0.2L11.2,14.3z"/>
					<path fill="#FFFFFF" d="M11.8,15l0.2,0.1c0.1-0.1,0.1-0.2,0.2-0.4c0.1-0.2,0.1-0.4,0.1-0.6l-0.2,0C12.1,14.5,12,14.8,11.8,15z"
						/>
					<path fill="#FFFFFF" d="M12.5,14.1c0,0.3,0.1,0.5,0.1,0.6c0,0.1,0.1,0.2,0.2,0.4L13,15c-0.1-0.2-0.2-0.5-0.3-0.9L12.5,14.1z"/>
					<path fill="#FFFFFF" d="M14,14c-0.2,0.2-0.5,0.4-0.9,0.5l0.1,0.2c0.2-0.1,0.3-0.1,0.4-0.2v0.6h0.2v-0.7
						c0.1-0.1,0.2-0.2,0.3-0.3L14,14z"/>
					<rect x="12.8" y="14" fill="#FFFFFF" width="0.1" height="0.2"/>
					<rect x="13" y="14" fill="#FFFFFF" width="0.1" height="0.2"/>
					<path fill="#FFFFFF" d="M9.5,14.6l0.1,0.1c0.1,0,0.1-0.1,0.1-0.1l0.4,0.2C10,14.9,9.8,14.9,9.6,15l0.1,0.2
						c0.2,0,0.4-0.1,0.6-0.3c0.2-0.2,0.2-0.5,0.2-0.7H9.8C9.7,14.3,9.6,14.4,9.5,14.6z M9.9,14.3h0.4c0,0.1,0,0.3-0.1,0.4l-0.4-0.2
						C9.9,14.3,9.9,14.3,9.9,14.3z"/>
					<path fill="#FFFFFF" d="M10.7,14.9l0,0.2c0.3,0,0.9-0.1,1-0.8l-0.2-0.1C11.6,14.6,11.3,14.8,10.7,14.9z"/>
				</g>
				<g>
					<path fill="#FFFFFF" d="M14.5,14.1h0.3c0,0,0,0,0.1,0c0,0,0,0,0.1,0c0,0,0.1,0,0.1,0s0.1,0,0.1,0c0,0,0,0,0.1,0.1
						c0,0,0,0.1,0,0.1c0,0,0,0.1,0,0.1c0,0,0,0.1-0.1,0.1c0,0-0.1,0-0.1,0c0,0-0.1,0-0.1,0l0.3,0.5h-0.1l-0.3-0.5h-0.2v0.5h-0.1
						C14.5,15.1,14.5,14.1,14.5,14.1z M14.6,14.5h0.2c0,0,0.1,0,0.1,0c0,0,0.1,0,0.1,0c0,0,0,0,0-0.1c0,0,0,0,0-0.1c0,0,0,0,0-0.1
						c0,0,0,0,0-0.1c0,0,0,0-0.1,0c0,0-0.1,0-0.1,0h-0.2V14.5z"/>
					<path fill="#FFFFFF" d="M16,15c0,0-0.1,0.1-0.1,0.1c0,0-0.1,0-0.2,0c0,0-0.1,0-0.1,0c0,0-0.1,0-0.1-0.1c0,0-0.1-0.1-0.1-0.1
						c0,0,0-0.1,0-0.1c0,0,0-0.1,0-0.1c0,0,0-0.1,0.1-0.1c0,0,0.1-0.1,0.1-0.1c0,0,0.1,0,0.1,0c0,0,0.1,0,0.1,0c0,0,0.1,0,0.1,0.1
						c0,0,0,0.1,0.1,0.1c0,0,0,0.1,0,0.1v0.1h-0.6c0,0,0,0,0,0.1c0,0,0,0.1,0,0.1c0,0,0,0,0.1,0.1c0,0,0.1,0,0.1,0c0,0,0.1,0,0.1,0
						C15.9,15,15.9,15,16,15L16,15z M15.9,14.7C15.9,14.7,15.9,14.7,15.9,14.7c0-0.1,0-0.1-0.1-0.2s0,0-0.1,0c0,0-0.1,0-0.1,0
						c0,0-0.1,0-0.1,0c0,0-0.1,0-0.1,0.1c0,0,0,0,0,0.1c0,0,0,0,0,0H15.9z"/>
					<path fill="#FFFFFF" d="M16.8,15c0,0-0.1,0.1-0.1,0.1c0,0-0.1,0-0.1,0c0,0-0.1,0-0.1,0c0,0-0.1,0-0.1-0.1c0,0-0.1-0.1-0.1-0.1
						c0,0,0-0.1,0-0.1c0,0,0-0.1,0-0.1c0,0,0-0.1,0.1-0.1c0,0,0.1-0.1,0.1-0.1c0,0,0.1,0,0.1,0c0,0,0.1,0,0.1,0c0,0,0.1,0,0.1,0.1
						l-0.1,0c0,0,0,0-0.1-0.1c0,0-0.1,0-0.1,0s-0.1,0-0.1,0c0,0-0.1,0-0.1,0.1c0,0,0,0.1-0.1,0.1c0,0,0,0.1,0,0.1c0,0,0,0.1,0,0.1
						c0,0,0,0.1,0.1,0.1c0,0,0,0,0.1,0.1c0,0,0.1,0,0.1,0c0,0,0.1,0,0.1,0C16.7,15,16.7,15,16.8,15L16.8,15z"/>
					<path fill="#FFFFFF" d="M18.4,14.2C18.4,14.1,18.4,14.1,18.4,14.2C18.5,14.1,18.5,14.1,18.4,14.2c0.1-0.1,0.1-0.1,0.1,0
						c0,0,0,0,0,0s0,0,0,0C18.5,14.2,18.5,14.2,18.4,14.2C18.5,14.2,18.5,14.2,18.4,14.2C18.4,14.2,18.4,14.2,18.4,14.2z M18.4,14.4
						L18.4,14.4l0.1,0.7h-0.1V14.4z"/>
					<path fill="#FFFFFF" d="M19.4,14.2C19.4,14.1,19.4,14.1,19.4,14.2C19.4,14.1,19.4,14.1,19.4,14.2c0.1-0.1,0.1-0.1,0.1,0
						c0,0,0,0,0,0s0,0,0,0C19.5,14.2,19.5,14.2,19.4,14.2C19.4,14.2,19.4,14.2,19.4,14.2C19.4,14.2,19.4,14.2,19.4,14.2z M19.4,14.4
						L19.4,14.4l0.1,0.7h-0.1V14.4z"/>
					<path fill="#FFFFFF" d="M21.3,15.1c0,0.1,0,0.2,0,0.2c0,0-0.1,0.1-0.1,0.1c0,0-0.1,0-0.1,0.1c0,0-0.1,0-0.1,0c0,0-0.1,0-0.1,0
						c0,0-0.1,0-0.1,0c0,0-0.1,0-0.1,0c0,0,0,0-0.1-0.1l0.1-0.1c0,0,0.1,0.1,0.1,0.1c0,0,0.1,0,0.2,0c0,0,0.1,0,0.1,0s0.1,0,0.1,0
						c0,0,0,0,0-0.1c0,0,0,0,0-0.1S21.2,15.2,21.3,15.1C21.2,15.1,21.2,15.1,21.3,15.1L21.3,15.1L21.3,15.1c-0.1,0-0.1,0-0.2,0
						c0,0-0.1,0-0.2,0c0,0-0.1,0-0.1,0c0,0-0.1,0-0.1-0.1c0,0-0.1-0.1-0.1-0.1c0-0.1,0-0.1,0-0.2c0,0,0-0.1,0-0.1c0,0,0-0.1,0.1-0.1
						c0,0,0.1-0.1,0.1-0.1c0,0,0.1,0,0.1,0c0.1,0,0.1,0,0.2,0c0,0,0.1,0.1,0.1,0.1l0,0v-0.2h0.1L21.3,15.1L21.3,15.1z M21.2,14.8
						c0,0,0-0.1,0-0.1s0-0.1-0.1-0.1c0,0,0,0-0.1-0.1c0,0-0.1,0-0.1,0c0,0-0.1,0-0.1,0c0,0-0.1,0-0.1,0.1c0,0,0,0-0.1,0.1
						c0,0,0,0.1,0,0.1s0,0.1,0,0.1c0,0,0,0.1,0.1,0.1c0,0,0,0,0.1,0.1c0,0,0.1,0,0.1,0c0,0,0.1,0,0.1,0c0,0,0.1,0,0.1-0.1
						c0,0,0,0,0.1-0.1C21.2,14.9,21.2,14.8,21.2,14.8z"/>
					<polygon fill="#FFFFFF" points="19,14.5 19.2,14.5 19.2,14.4 19,14.4 19,14.2 18.9,14.2 18.9,14.4 18.7,14.4 18.7,14.5 
						18.9,14.5 18.9,15.1 19,15.1 					"/>
					<path fill="#FFFFFF" d="M20.1,14.4L20.1,14.4c-0.1,0-0.2,0-0.2,0.1v-0.1h-0.1v0.3v0.4h0.1v-0.4C19.9,14.6,20,14.5,20.1,14.4
						L20.1,14.4c0.1,0.1,0.2,0.2,0.2,0.3v0.4h0.1v-0.4C20.4,14.6,20.2,14.4,20.1,14.4z"/>
					<path fill="#FFFFFF" d="M17.3,14.4c-0.1,0-0.2,0-0.2,0.1v-0.1H17v0.7h0.1v-0.4C17.1,14.6,17.2,14.5,17.3,14.4L17.3,14.4
						L17.3,14.4L17.3,14.4z"/>
					<path fill="#FFFFFF" d="M18.2,14.4L18.2,14.4L18.2,14.4L18.2,14.4l-0.1,0.4c0,0.1-0.1,0.2-0.2,0.2l0,0c-0.1,0-0.2-0.1-0.2-0.2
						v-0.4h-0.1v0.4c0,0.2,0.1,0.3,0.3,0.3l0,0c0.1,0,0.2,0,0.2-0.1v0.1h0.1v-0.3l0,0L18.2,14.4L18.2,14.4z"/>
				</g>
			</g>
		</g>
		<g>
			<g>
				<path fill="#FFFFFF" d="M0.1,14.6L0.1,14.6L0.1,14.6L0.1,14.6c0.1,0.1,0.1,0,0.1,0c0,0,0,0,0,0c0,0,0,0,0.1,0s0,0,0,0
					c0,0,0.1,0,0.1,0c0,0,0.1,0,0.1,0.1c0,0,0,0,0.1,0.1s0,0.1,0,0.1c0,0,0,0.1,0,0.1s0,0.1-0.1,0.1c0,0,0,0-0.1,0.1
					c0,0-0.1,0-0.1,0c0,0,0,0,0,0s0,0-0.1,0c0,0,0,0,0,0c0,0,0,0,0,0l0,0v0.4H0.1V14.6z M0.6,14.8C0.6,14.8,0.6,14.7,0.6,14.8
					c0-0.1,0-0.1,0-0.1c0,0,0,0-0.1,0c0,0-0.1,0-0.1,0s-0.1,0-0.1,0c0,0,0,0-0.1,0c0,0,0,0,0,0.1s0,0.1,0,0.1c0,0,0,0.1,0,0.1
					s0,0,0,0.1c0,0,0,0,0.1,0c0,0,0,0,0.1,0s0.1,0,0.1,0c0,0,0,0,0.1,0C0.5,14.9,0.5,14.9,0.6,14.8C0.6,14.9,0.6,14.8,0.6,14.8z"/>
				<path fill="#FFFFFF" d="M1.3,14.8c0,0,0,0.1,0,0.1c0,0,0,0.1-0.1,0.1c0,0,0,0-0.1,0.1c0,0-0.1,0-0.1,0s-0.1,0-0.1,0
					c0,0-0.1,0-0.1-0.1c0,0,0,0-0.1-0.1c0,0,0-0.1,0-0.1c0,0,0-0.1,0-0.1s0-0.1,0.1-0.1c0,0,0,0,0.1-0.1c0,0,0.1,0,0.1,0
					c0,0,0.1,0,0.1,0c0,0,0.1,0,0.1,0.1c0,0,0,0,0.1,0.1C1.3,14.7,1.3,14.8,1.3,14.8z M1.2,14.8C1.2,14.8,1.2,14.7,1.2,14.8
					c0-0.1,0-0.1,0-0.1c0,0,0,0-0.1,0c0,0-0.1,0-0.1,0c0,0-0.1,0-0.1,0c0,0,0,0-0.1,0c0,0,0,0,0,0.1c0,0,0,0.1,0,0.1
					c0,0,0,0.1,0,0.1s0,0,0,0.1c0,0,0,0,0.1,0c0,0,0,0,0.1,0c0,0,0.1,0,0.1,0c0,0,0,0,0.1,0C1.2,14.9,1.2,14.9,1.2,14.8
					C1.2,14.9,1.2,14.8,1.2,14.8z"/>
				<path fill="#FFFFFF" d="M1.4,14.6L1.6,15l0,0l0.1-0.4h0.1L1.9,15l0,0L2,14.6h0.1l-0.2,0.5H1.9l-0.1-0.4l0,0l-0.1,0.4H1.5
					L1.4,14.6L1.4,14.6z"/>
				<path fill="#FFFFFF" d="M2.3,14.8C2.3,14.9,2.3,14.9,2.3,14.8c0,0.1,0,0.1,0.1,0.1c0,0,0,0,0.1,0c0,0,0,0,0.1,0c0,0,0.1,0,0.1,0
					c0,0,0,0,0.1-0.1l0.1,0c0,0-0.1,0.1-0.1,0.1c0,0-0.1,0-0.1,0c0,0-0.1,0-0.1,0c0,0-0.1,0-0.1-0.1C2.2,15,2.2,15,2.3,14.8
					C2.2,14.9,2.2,14.8,2.3,14.8c-0.1-0.1-0.1-0.1-0.1-0.1s0-0.1,0.1-0.1c0,0,0,0,0.1-0.1c0,0,0.1,0,0.1,0c0,0,0.1,0,0.1,0
					c0,0,0.1,0,0.1,0.1c0,0,0,0,0,0.1s0,0.1,0,0.1v0H2.3z M2.6,14.8c0,0,0-0.1,0-0.1c0,0-0.1,0-0.1,0c0,0,0,0-0.1,0c0,0,0,0-0.1,0
					c0,0,0,0,0,0c0,0,0,0,0,0.1L2.6,14.8L2.6,14.8z"/>
				<path fill="#FFFFFF" d="M2.8,14.7C2.8,14.7,2.8,14.7,2.8,14.7c0-0.1,0-0.1,0-0.2h0.1L2.8,14.7L2.8,14.7c0.1-0.1,0.1-0.1,0.1-0.1
					s0,0,0,0c0,0,0,0,0,0c0,0,0,0,0.1,0c0,0,0,0,0.1,0l0,0.1c0,0,0,0,0,0c0,0,0,0-0.1,0c0,0,0,0,0,0C2.9,14.7,2.9,14.7,2.8,14.7
					C2.9,14.7,2.9,14.8,2.8,14.7l0.1,0.4H2.8V14.7z"/>
				<path fill="#FFFFFF" d="M3.2,14.8C3.2,14.9,3.2,14.9,3.2,14.8c0,0.1,0,0.1,0.1,0.1c0,0,0,0,0.1,0c0,0,0,0,0.1,0c0,0,0.1,0,0.1,0
					c0,0,0,0,0.1-0.1l0.1,0c0,0-0.1,0.1-0.1,0.1c0,0-0.1,0-0.1,0c0,0-0.1,0-0.1,0c0,0-0.1,0-0.1-0.1C3.2,15,3.2,15,3.2,14.8
					C3.2,14.9,3.1,14.8,3.2,14.8c-0.1-0.1-0.1-0.1-0.1-0.1c0,0,0-0.1,0.1-0.1c0,0,0,0,0.1-0.1c0,0,0.1,0,0.1,0c0,0,0.1,0,0.1,0
					c0,0,0.1,0,0.1,0.1c0,0,0,0,0,0.1s0,0.1,0,0.1v0H3.2z M3.6,14.8c0,0,0-0.1,0-0.1c0,0-0.1,0-0.1,0c0,0,0,0-0.1,0c0,0,0,0-0.1,0
					c0,0,0,0,0,0c0,0,0,0,0,0.1L3.6,14.8L3.6,14.8z"/>
				<path fill="#FFFFFF" d="M4.3,15.1L4.3,15.1L4.3,15.1L4.3,15.1c-0.1-0.1-0.1,0-0.1,0s0,0,0,0c0,0,0,0-0.1,0s0,0,0,0
					c0,0-0.1,0-0.1,0c0,0-0.1,0-0.1-0.1c0,0,0,0-0.1-0.1c0,0,0-0.1,0-0.1c0,0,0-0.1,0-0.1c0,0,0-0.1,0.1-0.1c0,0,0,0,0.1-0.1
					c0,0,0.1,0,0.1,0c0,0,0,0,0,0c0,0,0,0,0.1,0c0,0,0,0,0,0c0,0,0,0,0,0l0,0v-0.4h0.1L4.3,15.1L4.3,15.1z M3.8,14.8
					C3.8,14.8,3.8,14.9,3.8,14.8c0,0.1,0,0.1,0,0.1c0,0,0,0,0.1,0c0,0,0,0,0.1,0c0,0,0.1,0,0.1,0c0,0,0,0,0.1,0c0,0,0,0,0-0.1
					c0,0,0-0.1,0-0.1c0,0,0-0.1,0-0.1c0,0,0,0,0-0.1c0,0,0,0-0.1,0c0,0,0,0-0.1,0s-0.1,0-0.1,0c0,0,0,0-0.1,0
					C3.9,14.7,3.8,14.7,3.8,14.8C3.8,14.7,3.8,14.8,3.8,14.8z"/>
				<path fill="#FFFFFF" d="M4.8,14.2L4.8,14.2l0.1,0.4l0,0c0,0,0,0,0,0c0,0,0,0,0,0c0,0,0,0,0.1,0s0,0,0,0c0,0,0.1,0,0.1,0
					c0,0,0.1,0,0.1,0.1c0,0,0,0,0.1,0.1c0,0,0,0.1,0,0.1s0,0.1,0,0.1c0,0,0,0.1-0.1,0.1c0,0,0,0-0.1,0.1c0,0-0.1,0-0.1,0
					c0,0,0,0,0,0c0,0,0,0-0.1,0c0,0,0,0,0,0c0,0,0,0,0,0l0,0v0.1H4.8V14.2z M5.2,14.8C5.2,14.8,5.2,14.7,5.2,14.8c0-0.1,0-0.1,0-0.1
					c0,0,0,0-0.1,0c0,0,0,0-0.1,0s-0.1,0-0.1,0c0,0,0,0-0.1,0c0,0,0,0,0,0.1c0,0,0,0,0,0.1c0,0,0,0.1,0,0.1c0,0,0,0,0,0.1
					c0,0,0,0,0.1,0c0,0,0,0,0.1,0s0.1,0,0.1,0c0,0,0,0,0.1,0C5.2,14.9,5.2,14.9,5.2,14.8C5.2,14.9,5.2,14.8,5.2,14.8z"/>
				<path fill="#FFFFFF" d="M5.6,15l0.2-0.4h0.1l-0.3,0.7c0,0,0,0.1-0.1,0.1c0,0-0.1,0-0.1,0c0,0,0,0,0,0c0,0,0,0,0,0l0-0.1
					c0,0,0,0,0.1,0c0,0,0,0,0.1,0c0,0,0,0,0-0.1L5.6,15l-0.3-0.4h0.1L5.6,15z"/>
			</g>
		</g>
	</g>
</g>
</svg>
