<?xml version="1.0" encoding="utf-8"?>
<!-- Generator: Adobe Illustrator 18.1.1, SVG Export Plug-In . SVG Version: 6.00 Build 0)  -->
<svg version="1.1" xmlns="http://www.w3.org/2000/svg" xmlns:xlink="http://www.w3.org/1999/xlink" x="0px" y="0px"
	 viewBox="0 0 38 38" enable-background="new 0 0 38 38" xml:space="preserve">
<g id="edit" display="none">
	<g id="loading" display="inline">
	</g>
</g>
<g id="統合">
</g>
<g id="補足">
	<g id="レイヤー_5">
	</g>
	<rect x="8" y="1" display="none" width="19" height="36"/>
	<path fill="#FFFFFF" d="M25.2,37.3H10.5c-1.1,0-2-0.9-2-2V2.8c0-1.1,0.9-2,2-2h14.7c1.1,0,2,0.9,2,2v32.5
		C27.2,36.4,26.3,37.3,25.2,37.3z M25.5,4h-15v27.5h15V4z M17.9,32.6c-1,0-1.8,0.8-1.8,1.8s0.8,1.8,1.8,1.8s1.8-0.8,1.8-1.8
		S18.9,32.6,17.9,32.6z M23.2,2.4L23.2,2.4c0-0.2-0.2-0.3-0.3-0.3h-9.7c-0.2,0-0.3,0.2-0.3,0.3v0c0,0.2,0.2,0.3,0.3,0.3h9.7
		C23,2.8,23.2,2.6,23.2,2.4z"/>
</g>
</svg>
