<?xml version="1.0" encoding="utf-8"?>
<!-- Generator: Adobe Illustrator 18.1.1, SVG Export Plug-In . SVG Version: 6.00 Build 0)  -->
<svg version="1.1" id="レイヤー_1" xmlns="http://www.w3.org/2000/svg" xmlns:xlink="http://www.w3.org/1999/xlink" x="0px"
	 y="0px" viewBox="0 0 178 19.9" enable-background="new 0 0 178 19.9" xml:space="preserve">
<g>
	
		<text transform="matrix(1 0 0 1 2.441406e-04 15.4335)" fill="#FFFFFF" font-family="'HiraKakuPro-W3-83pv-RKSJ-H'" font-size="12">powered by </text>
	<g>
		<g>
			<path fill="#FFFFFF" d="M90.4,2v3.3c1.5,1.1,2.5,2.9,2.5,4.9c0,3.3-2.7,6-6,6s-6-2.7-6-6c0-2,1-3.8,2.5-4.9V2
				C80.2,3.4,78,6.5,78,10.2c0,4.9,4,8.9,8.9,8.9c4.9,0,8.9-4,8.9-8.9C95.8,6.5,93.6,3.4,90.4,2z"/>
			<path fill="#FFFFFF" d="M85.5,0C85.5,0,85.5,0,85.5,0l0,10.2c0,0.8,0.6,1.4,1.4,1.4c0.8,0,1.4-0.6,1.4-1.4V0c0,0,0,0,0,0L85.5,0z
				"/>
		</g>
		<g>
			<rect x="133.6" y="4.6" fill="#FFFFFF" width="6.3" height="2.3"/>
			<polygon fill="#FFFFFF" points="116.3,4.6 103.7,4.6 103.7,6.9 111,6.9 103,16.1 106.3,16.1 110.1,11.8 114,16.1 117.3,16.1 
				111.7,10 			"/>
			<polygon fill="#FFFFFF" points="175.4,4.6 175.4,6.1 164.6,6.7 164.6,9 170,8.7 170,16.1 172.6,16.1 172.6,8.5 178,8.2 178,4.6 
							"/>
			<polygon fill="#FFFFFF" points="148.7,16.1 151.5,16.1 152.6,4.6 149.8,4.6 			"/>
			<polygon fill="#FFFFFF" points="142.5,13.8 133.7,13.8 133.7,16.1 144.9,16.1 146.1,4.6 143.3,4.6 			"/>
			<polygon fill="#FFFFFF" points="118.3,9.4 121,9.4 121.4,6.9 127.9,6.9 127.5,9.1 122.8,9.1 122.8,11.2 127.1,11.2 126.6,13.8 
				120.2,13.8 120.2,16.1 128.9,16.1 131,4.6 119.1,4.6 			"/>
			<polygon fill="#FFFFFF" points="159.2,8 159.9,16.1 162.4,16.1 161.7,8 			"/>
			<rect x="156.7" y="4.6" fill="#FFFFFF" width="1.9" height="1.9"/>
			<rect x="159.8" y="4.6" fill="#FFFFFF" width="1.9" height="1.9"/>
		</g>
	</g>
</g>
</svg>
