<?xml version="1.0" encoding="utf-8"?>
<!-- Generator: Adobe Illustrator 18.1.1, SVG Export Plug-In . SVG Version: 6.00 Build 0)  -->
<svg version="1.1" id="レイヤー_1" xmlns="http://www.w3.org/2000/svg" xmlns:xlink="http://www.w3.org/1999/xlink" x="0px"
	 y="0px" viewBox="4340 779 613 709" enable-background="new 4340 779 613 709" xml:space="preserve">
<g id="edit" display="none">
</g>
<g id="統合">
	<g>
		<path fill="#888888" d="M4942.2,1406l-130.4-171.2c36.7-40.8,61.1-89.6,69.3-146.9c20.3-146.9-81.7-285.6-232.4-305.8
			c-151-20.3-285.6,81.7-305.8,232.4c-20.3,151,81.7,285.6,232.4,305.8c57,8.2,110.1-4.1,158.9-24.4l130.4,171.2
			c8.2,12.3,20.3,16.5,32.6,20.3c12.3,0,24.4,0,36.7-8.2C4954.6,1459.2,4958.7,1430.7,4942.2,1406z M4754.9,1153.3
			c-20.3,28.5-49.1,49.1-77.5,61.1c-24.4,8.2-52.9,12.3-81.7,8.2c-93.7-12.3-158.9-101.9-146.9-195.7
			c12.3-93.7,101.9-158.9,195.7-146.9c93.7,12.3,158.9,101.9,146.9,195.7C4783.4,1104.3,4771,1132.8,4754.9,1153.3z"/>
	</g>
</g>
</svg>
