<?xml version="1.0" encoding="utf-8"?>
<!-- Generator: Adobe Illustrator 18.1.1, SVG Export Plug-In . SVG Version: 6.00 Build 0)  -->
<svg version="1.1" id="レイヤー_1" xmlns="http://www.w3.org/2000/svg" xmlns:xlink="http://www.w3.org/1999/xlink" x="0px"
	 y="0px" viewBox="179.1 306.9 223.4 258.4" enable-background="new 179.1 306.9 223.4 258.4" xml:space="preserve">
<g id="edit" display="none">
	
		<line display="inline" fill="none" stroke="#4D4D52" stroke-width="2" stroke-linecap="round" stroke-linejoin="round" stroke-miterlimit="10" x1="-10640.6" y1="-1275.6" x2="-10075.1" y2="-1275.6"/>
	
		<line display="inline" fill="none" stroke="#4D4D52" stroke-width="2" stroke-linecap="round" stroke-linejoin="round" stroke-miterlimit="10" x1="-10610.9" y1="-1216.1" x2="-10104.9" y2="-1216.1"/>
	
		<line display="inline" fill="none" stroke="#4D4D52" stroke-width="2" stroke-linecap="round" stroke-linejoin="round" stroke-miterlimit="10" x1="-10610.9" y1="-1335.1" x2="-10104.9" y2="-1335.1"/>
	
		<line display="inline" fill="none" stroke="#4D4D52" stroke-width="2" stroke-linecap="round" stroke-linejoin="round" stroke-miterlimit="10" x1="-10566.2" y1="-1156.5" x2="-10149.5" y2="-1156.5"/>
	
		<line display="inline" fill="none" stroke="#4D4D52" stroke-width="2" stroke-linecap="round" stroke-linejoin="round" stroke-miterlimit="10" x1="-10521.6" y1="-1097" x2="-10194.2" y2="-1097"/>
	
		<path display="inline" fill="none" stroke="#000000" stroke-width="2" stroke-linecap="round" stroke-linejoin="round" stroke-miterlimit="10" d="
		M-4955.7-5100.3h-297.6c-16.4,0-29.8,13.4-29.8,29.8v208.3c0,16.4,13.4,29.8,29.8,29.8h44.6v74.4l74.4-74.4h178.6
		c16.4,0,29.8-13.4,29.8-29.8v-208.3C-4925.9-5086.9-4939.3-5100.3-4955.7-5100.3z"/>
	<path display="inline" fill="#FFFFFF" d="M-4878.3-4683.6h-122c-32.7,0-59.5-26.8-59.5-59.5v-178.6c0-32.7,26.8-59.5,59.5-59.5h253
		c32.7,0,59.5,26.8,59.5,59.5v178.6c0,32.7-26.8,59.5-59.5,59.5h-14.9v116.1L-4878.3-4683.6z"/>
	
		<path display="inline" fill="#FFFFFF" stroke="#000000" stroke-width="2" stroke-linecap="round" stroke-linejoin="round" stroke-miterlimit="10" d="
		M-4747.4-4951.5h-253c-16.4,0-29.8,13.4-29.8,29.8v178.6c0,16.4,13.4,29.8,29.8,29.8h133.9l74.4,74.4v-74.4h44.6
		c16.4,0,29.8-13.4,29.8-29.8v-178.6C-4717.6-4938.1-4731-4951.5-4747.4-4951.5z"/>
	
		<path display="inline" fill="none" stroke="#000000" stroke-width="2" stroke-linecap="round" stroke-linejoin="round" stroke-miterlimit="10" d="
		M-3169.9-5100.3h-297.6c-16.4,0-29.8,13.4-29.8,29.8v208.3c0,16.4,13.4,29.8,29.8,29.8h44.6v74.4l74.4-74.4h178.6
		c16.4,0,29.8-13.4,29.8-29.8v-208.3C-3140.1-5086.9-3153.5-5100.3-3169.9-5100.3z"/>
	<path display="inline" fill="#FFFFFF" d="M-3092.5-4683.6h-122c-32.7,0-59.5-26.8-59.5-59.5v-178.6c0-32.7,26.8-59.5,59.5-59.5h253
		c32.7,0,59.5,26.8,59.5,59.5v178.6c0,32.7-26.8,59.5-59.5,59.5h-14.9v116.1L-3092.5-4683.6z"/>
	
		<path display="inline" stroke="#000000" stroke-width="2" stroke-linecap="round" stroke-linejoin="round" stroke-miterlimit="10" d="
		M-2961.5-4951.5h-253c-16.4,0-29.8,13.4-29.8,29.8v178.6c0,16.4,13.4,29.8,29.8,29.8h133.9l74.4,74.4v-74.4h44.6
		c16.4,0,29.8-13.4,29.8-29.8v-178.6C-2931.8-4938.1-2945.1-4951.5-2961.5-4951.5z"/>
	<g display="inline">
		
			<line fill="none" stroke="#000000" stroke-width="2" stroke-linecap="round" stroke-linejoin="round" stroke-miterlimit="10" x1="-8333.9" y1="-4670.2" x2="-8293.7" y2="-4598.8"/>
		<path fill="none" stroke="#000000" stroke-width="2" stroke-linecap="round" stroke-linejoin="round" stroke-miterlimit="10" d="
			M-8764-4902.3v-133.9c0-16.4,13.4-29.8,29.8-29.8h342.3c16.4,0,29.8,13.4,29.8,29.8v312.5c0,16.4-13.4,29.8-29.8,29.8h-416.7"/>
		<path fill="none" stroke="#000000" stroke-width="2" stroke-linecap="round" stroke-linejoin="round" stroke-miterlimit="10" d="
			M-8764-4918.7v180.1c0,25.3-19.3,44.6-44.6,44.6l0,0c-25.3,0-44.6-19.3-44.6-44.6v-178.6h32.7"/>
		
			<line fill="none" stroke="#000000" stroke-width="2" stroke-linecap="round" stroke-linejoin="round" stroke-miterlimit="10" x1="-8542.3" y1="-5011" x2="-8423.2" y2="-5011"/>
		
			<line fill="none" stroke="#000000" stroke-width="2" stroke-linecap="round" stroke-linejoin="round" stroke-miterlimit="10" x1="-8542.3" y1="-4951.5" x2="-8423.2" y2="-4951.5"/>
		
			<line fill="none" stroke="#000000" stroke-width="2" stroke-linecap="round" stroke-linejoin="round" stroke-miterlimit="10" x1="-8542.3" y1="-4891.9" x2="-8423.2" y2="-4891.9"/>
		
			<line fill="none" stroke="#000000" stroke-width="2" stroke-linecap="round" stroke-linejoin="round" stroke-miterlimit="10" x1="-8706" y1="-4817.5" x2="-8423.2" y2="-4817.5"/>
		
			<line fill="none" stroke="#000000" stroke-width="2" stroke-linecap="round" stroke-linejoin="round" stroke-miterlimit="10" x1="-8706" y1="-4758" x2="-8423.2" y2="-4758"/>
		
			<rect x="-8704.5" y="-5006.5" fill="none" stroke="#000000" stroke-width="2" stroke-linecap="round" stroke-linejoin="round" stroke-miterlimit="10" width="104.2" height="119.1"/>
		<path fill="#FFFFFF" d="M-8374.1-4628.5c-40.2,0-77.4-20.8-96.7-56.6c-31.3-53.6-11.9-122,40.2-151.8
			c16.4-10.4,35.7-14.9,55.1-14.9c40.2,0,77.4,20.8,96.7,56.6c31.3,53.6,11.9,122-40.2,151.8
			C-8335.4-4634.5-8354.8-4628.5-8374.1-4628.5z"/>
		
			<circle fill="none" stroke="#000000" stroke-width="2" stroke-linecap="round" stroke-linejoin="round" stroke-miterlimit="10" cx="-8375.6" cy="-4740.1" r="81.9"/>
	</g>
	<g display="inline">
		
			<circle fill="none" stroke="#000000" stroke-width="2" stroke-linecap="round" stroke-linejoin="round" stroke-miterlimit="10" cx="-6786.2" cy="-4993.1" r="44.6"/>
		<path fill="none" stroke="#000000" stroke-width="2" stroke-linecap="round" stroke-linejoin="round" stroke-miterlimit="10" d="
			M-6741.5-4698.5v-71.4c14.9,0,29.8-13.4,29.8-28.3v-80.4c0-16.4-13.4-28.3-28.3-28.3h-92.3c-16.4,0-28.3,13.4-28.3,28.3v80.4
			c0,16.4,14.9,28.3,29.8,28.3v71.4"/>
	</g>
	<g display="inline">
		<path fill="none" stroke="#000000" stroke-width="2" stroke-linecap="round" stroke-linejoin="round" stroke-miterlimit="10" d="
			M-6994.5-5025.9v349.7c0,16.4,11.9,37.2,28.3,37.2h357.2c16.4,0,31.3-20.8,31.3-37.2v-416.7c0-16.4-14.9-22.3-31.3-22.3h-281.3"/>
		<path fill="none" stroke="#000000" stroke-width="2" stroke-linecap="round" stroke-linejoin="round" stroke-miterlimit="10" d="
			M-6949.9-4996.1h29.8c16.4,0,29.8-13.4,29.8-29.8v-89.3l-104.2,89.3"/>
	</g>
	
		<path display="inline" fill="none" stroke="#4D4D52" stroke-width="2" stroke-linecap="round" stroke-linejoin="round" stroke-miterlimit="10" d="
		M-10610.9-1439.3h74.4c16.4,0,29.8-13.4,29.8-29.8V-1603"/>
	<path display="inline" fill="none" stroke="#000000" stroke-width="2" stroke-linejoin="round" stroke-miterlimit="10" d="
		M-1577.5-4668.7v-386.9c0-16.4,13.4-29.8,29.8-29.8h238.1c16.4,0,29.8,13.4,29.8,29.8v386.9"/>
	
		<line display="inline" fill="none" stroke="#000000" stroke-width="2" stroke-linecap="round" stroke-linejoin="round" stroke-miterlimit="10" x1="-1205.4" y1="-4668.7" x2="-1651.9" y2="-4668.7"/>
	<path display="inline" fill="none" stroke="#4D4D52" stroke-width="2" stroke-miterlimit="10" d="M-1369.1-4549.6"/>
	
		<path display="inline" fill="none" stroke="#000000" stroke-width="2" stroke-linecap="round" stroke-linejoin="round" stroke-miterlimit="10" d="
		M-1488.2-4679.1v-74.4c0-16.4,13.4-29.8,29.8-29.8h59.5c16.4,0,29.8,13.4,29.8,29.8v74.4"/>
	
		<line display="inline" fill="none" stroke="#000000" stroke-width="2" stroke-linecap="round" stroke-linejoin="round" stroke-miterlimit="10" x1="-1518" y1="-4906.8" x2="-1339.4" y2="-4906.8"/>
	
		<line display="inline" fill="none" stroke="#000000" stroke-width="2" stroke-linecap="round" stroke-linejoin="round" stroke-miterlimit="10" x1="-1518" y1="-4847.3" x2="-1339.4" y2="-4847.3"/>
	
		<line display="inline" fill="none" stroke="#000000" stroke-width="2" stroke-linecap="round" stroke-linejoin="round" stroke-miterlimit="10" x1="-1518" y1="-4966.3" x2="-1339.4" y2="-4966.3"/>
	
		<line display="inline" fill="none" stroke="#000000" stroke-width="2" stroke-linecap="round" stroke-linejoin="round" stroke-miterlimit="10" x1="-1518" y1="-5025.9" x2="-1339.4" y2="-5025.9"/>
	<circle display="inline" cx="506" cy="-4638.9" r="29.8"/>
	<circle display="inline" cx="714.3" cy="-4638.9" r="29.8"/>
	<circle display="inline" cx="297.6" cy="-4638.9" r="29.8"/>
	<g display="inline">
		<path d="M506-5100.3c26.8,0,47.6,22.3,47.6,47.6c0,13.4-6,26.8-16.4,35.7c-8.9,7.4-11.9,20.8-8.9,31.3c3,11.9,13.4,19.3,25.3,20.8
			c14.9,1.5,25.3,10.4,25.3,17.9v40.2H431.6v-40.2c0-7.4,10.4-16.4,25.3-17.9c11.9-1.5,22.3-8.9,25.3-20.8c3-11.9,0-23.8-8.9-31.3
			c-10.4-8.9-16.4-22.3-16.4-35.7C458.4-5078,479.2-5100.3,506-5100.3 M506-5130c-43.2,0-78.9,35.7-78.9,77.4
			c0,23.8,10.4,43.2,26.8,58c-29.8,3-52.1,22.3-52.1,46.1v69.9h208.3v-69.9c0-23.8-22.3-43.2-52.1-46.1c16.4-14.9,26.8-34.2,26.8-58
			C584.9-5094.3,549.1-5130,506-5130L506-5130z"/>
	</g>
	
		<polyline display="inline" fill="none" stroke="#000000" stroke-width="2" stroke-linecap="round" stroke-linejoin="round" stroke-miterlimit="10" points="
		297.6,-4713.3 297.6,-4758 714.3,-4758 714.3,-4713.3 	"/>
	
		<line display="inline" fill="none" stroke="#000000" stroke-width="2" stroke-linecap="round" stroke-linejoin="round" stroke-miterlimit="10" x1="506" y1="-4713.3" x2="506" y2="-4802.6"/>
	<g display="inline">
		<path fill="none" stroke="#000000" stroke-width="2" stroke-linecap="round" stroke-linejoin="round" stroke-miterlimit="10" d="
			M-10194.2-3001.9h-446.5c-16.4,0-29.8-13.4-29.8-29.8v-282.8c0-16.4,13.4-29.8,29.8-29.8h446.5c16.4,0,29.8,13.4,29.8,29.8v282.8
			C-10164.4-3015.3-10177.8-3001.9-10194.2-3001.9z"/>
		
			<line fill="none" stroke="#000000" stroke-width="2" stroke-linecap="round" stroke-linejoin="round" stroke-miterlimit="10" x1="-10536.5" y1="-2927.5" x2="-10298.3" y2="-2927.5"/>
		<g>
			
				<line fill="none" stroke="#000000" stroke-width="2" stroke-linejoin="round" stroke-miterlimit="10" x1="-10447.2" y1="-3001.9" x2="-10447.2" y2="-2927.5"/>
			
				<line fill="none" stroke="#000000" stroke-width="2" stroke-linejoin="round" stroke-miterlimit="10" x1="-10387.6" y1="-3001.9" x2="-10387.6" y2="-2927.5"/>
		</g>
	</g>
	<g display="inline">
		<path fill="none" stroke="#000000" stroke-width="2" stroke-linecap="round" stroke-linejoin="round" stroke-miterlimit="10" d="
			M-8542.3-2927.5h-178.6c-16.4,0-29.8-13.4-29.8-29.8v-386.9c0-16.4,13.4-29.8,29.8-29.8h178.6c16.4,0,29.8,13.4,29.8,29.8v386.9
			C-8512.5-2940.9-8525.9-2927.5-8542.3-2927.5z"/>
		
			<line fill="none" stroke="#000000" stroke-width="2" stroke-linecap="round" stroke-linejoin="round" stroke-miterlimit="10" x1="-8750.6" y1="-3314.4" x2="-8512.5" y2="-3314.4"/>
		
			<line fill="none" stroke="#000000" stroke-width="2" stroke-linecap="round" stroke-linejoin="round" stroke-miterlimit="10" x1="-8750.6" y1="-3016.8" x2="-8512.5" y2="-3016.8"/>
		<circle cx="-8631.6" cy="-2972.2" r="14.9"/>
	</g>
	<path display="inline" fill="#FFFFFF" d="M-10357.9-1192.3c-41.7,0-74.4-32.7-74.4-74.4s32.7-74.4,74.4-74.4
		c41.7,0,74.4,32.7,74.4,74.4S-10316.2-1192.3-10357.9-1192.3z"/>
	<path display="inline" fill="#FFFFFF" d="M-10283.5-978h-59.5v-89.3h29.8v-84.8c0-1.5-1.5-3-1.5-4.5h-84.8c-1.5,1.5-1.5,3-1.5,4.5
		v84.8h29.8v23.8v65.5h-59.5v-43.2c-17.9-10.4-29.8-29.8-29.8-50.6v-80.4c0-29.8,23.8-64,58-64h92.3c34.2,0,58,34.2,58,64v80.4
		c0,20.8-11.9,40.2-29.8,50.6v43.2H-10283.5z"/>
	<path display="inline" fill="#4D4D52" d="M-10313.2-978v-65.5c14.9,0,29.8-13.4,29.8-28.3v-80.4c0-16.4-13.4-34.2-28.3-34.2h-92.3
		c-16.4,0-28.3,17.9-28.3,34.2v80.4c0,16.4,14.9,28.3,29.8,28.3v65.5"/>
	
		<line display="inline" fill="none" stroke="#4D4D52" stroke-width="2" stroke-linecap="round" stroke-linejoin="round" stroke-miterlimit="10" x1="-10432.3" y1="-1558.4" x2="-10313.2" y2="-1558.4"/>
	
		<line display="inline" fill="none" stroke="#4D4D52" stroke-width="2" stroke-linecap="round" stroke-linejoin="round" stroke-miterlimit="10" x1="-10432.3" y1="-1498.8" x2="-10313.2" y2="-1498.8"/>
	
		<line display="inline" fill="none" stroke="#4D4D52" stroke-width="2" stroke-linecap="round" stroke-linejoin="round" stroke-miterlimit="10" x1="-10432.3" y1="-1439.3" x2="-10313.2" y2="-1439.3"/>
	<circle display="inline" fill="#4D4D52" cx="-10357.9" cy="-1266.7" r="44.6"/>
	<g display="inline">
		<path fill="#4D4D52" d="M-10357.9-1632.8c180.1,0,327.4,147.3,327.4,327.4s-147.3,327.4-327.4,327.4
			c-180.1,0-327.4-147.3-327.4-327.4S-10537.9-1632.8-10357.9-1632.8 M-10357.9-1662.5c-197.9,0-357.2,159.2-357.2,357.2
			s159.2,357.2,357.2,357.2c197.9,0,357.2-159.2,357.2-357.2S-10159.9-1662.5-10357.9-1662.5L-10357.9-1662.5z"/>
	</g>
	
		<path display="inline" fill="#4D4D52" stroke="#4D4D52" stroke-width="2" stroke-linecap="round" stroke-linejoin="round" stroke-miterlimit="10" d="
		M-10134.6-1439.3c0-65.5-53.6-119.1-119.1-119.1v119.1H-10134.6z"/>
	<g display="inline">
		<g>
			<defs>
				<circle id="SVGID_1_" cx="-6838.3" cy="-1067.4" r="357.2"/>
			</defs>
			<clipPath id="SVGID_2_">
				<use xlink:href="#SVGID_1_"  overflow="visible"/>
			</clipPath>
			
				<rect x="-6659.4" y="-1238.5" transform="matrix(-0.7071 0.7071 -0.7071 -0.7071 -11932.6719 2696.2625)" clip-path="url(#SVGID_2_)" fill="none" stroke="#4D4D52" stroke-width="2" stroke-linecap="round" stroke-linejoin="round" stroke-miterlimit="10" width="269.4" height="230.7"/>
		</g>
		<g>
			<defs>
				<circle id="SVGID_3_" cx="-6786.2" cy="-1305.4" r="357.2"/>
			</defs>
			<clipPath id="SVGID_4_">
				<use xlink:href="#SVGID_3_"  overflow="visible"/>
			</clipPath>
			<g clip-path="url(#SVGID_4_)">
				<path fill="none" stroke="#4D4D52" stroke-width="2" stroke-linejoin="round" stroke-miterlimit="10" d="M-6565.9-1300.9
					l-13.4-13.4c0,0-35.7-43.2-61-84.8c-14.9-25.3-34.2-92.3-34.2-92.3l-272.3-55.1l55.1,272.3c1.5,0,67,17.9,92.3,34.2
					c40.2,25.3,84.8,61,84.8,61l13.4,13.4"/>
				<circle fill="none" stroke="#4D4D52" stroke-width="2" stroke-miterlimit="10" cx="-6750.5" cy="-1348.5" r="38.7"/>
				
					<line fill="none" stroke="#4D4D52" stroke-width="2" stroke-linejoin="round" stroke-miterlimit="10" x1="-6946.9" y1="-1545" x2="-6777.3" y2="-1376.8"/>
			</g>
		</g>
	</g>
	<g display="inline">
		<path fill="#4D4D52" d="M-6786.2-1632.8c180.1,0,327.4,147.3,327.4,327.4S-6606.1-978-6786.2-978s-327.4-147.3-327.4-327.4
			S-6966.3-1632.8-6786.2-1632.8 M-6786.2-1662.5c-197.9,0-357.2,159.2-357.2,357.2s159.2,357.2,357.2,357.2
			c197.9,0,357.2-159.2,357.2-357.2S-6588.3-1662.5-6786.2-1662.5L-6786.2-1662.5z"/>
	</g>
	<g display="inline">
		<g>
			<defs>
				<circle id="SVGID_5_" cx="-6786.2" cy="-1305.4" r="357.2"/>
			</defs>
			<clipPath id="SVGID_6_">
				<use xlink:href="#SVGID_5_"  overflow="visible"/>
			</clipPath>
			<g clip-path="url(#SVGID_6_)">
				<circle fill="#4D4D52" cx="-6905.2" cy="-1162.5" r="59.5"/>
				<path fill="#4D4D52" d="M-6830.8-903.6l14.9-159.2c0-16.4-14.9-34.2-34.2-34.2h-19.3l-35.7,59.5l-35.7-59.5h-19.3
					c-19.3,0-34.2,17.9-34.2,34.2l14.9,159.2"/>
			</g>
		</g>
	</g>
	<g display="inline">
		<path fill="#4D4D52" d="M-8572-1632.8c180.1,0,327.4,147.3,327.4,327.4S-8392-978-8572-978c-180.1,0-327.4-147.3-327.4-327.4
			S-8752.1-1632.8-8572-1632.8 M-8572-1662.5c-197.9,0-357.2,159.2-357.2,357.2S-8770-948.2-8572-948.2
			c197.9,0,357.2-159.2,357.2-357.2S-8374.1-1662.5-8572-1662.5L-8572-1662.5z"/>
	</g>
	<g display="inline">
		<g>
			<defs>
				<circle id="SVGID_7_" cx="-8572" cy="-1305.4" r="357.2"/>
			</defs>
			<clipPath id="SVGID_8_">
				<use xlink:href="#SVGID_7_"  overflow="visible"/>
			</clipPath>
			<g clip-path="url(#SVGID_8_)">
				<circle fill="#4D4D52" cx="-8691.1" cy="-1162.5" r="59.5"/>
				<path fill="#4D4D52" d="M-8616.7-903.6l14.9-159.2c0-16.4-14.9-34.2-34.2-34.2h-19.3l-35.7,59.5l-35.7-59.5h-19.3
					c-19.3,0-34.2,17.9-34.2,34.2l14.9,159.2"/>
			</g>
		</g>
	</g>
	<g display="inline">
		
			<polyline fill="none" stroke="#4D4D52" stroke-width="2" stroke-linecap="round" stroke-linejoin="round" stroke-miterlimit="10" points="
			-10255.2,3922.7 -10395.1,3915.2 -10424.8,3863.2 -10610.9,3858.7 -10591.5,4156.3 -10262.6,4156.3 		"/>
		
			<polygon fill="#FFFFFF" stroke="#4D4D52" stroke-width="2" stroke-linecap="round" stroke-linejoin="round" stroke-miterlimit="10" points="
			-10247.7,4156.3 -10591.5,4156.3 -10529,3964.3 -10194.2,3973.3 		"/>
	</g>
	<g display="inline">
		<g>
			<defs>
				<circle id="SVGID_9_" cx="-8572" cy="-1305.4" r="357.2"/>
			</defs>
			<clipPath id="SVGID_10_">
				<use xlink:href="#SVGID_9_"  overflow="visible"/>
			</clipPath>
			<g clip-path="url(#SVGID_10_)">
				<g>
					<g>
						
							<path fill="none" stroke="#4D4D52" stroke-width="2" stroke-linecap="round" stroke-linejoin="round" stroke-miterlimit="10" d="
							M-8134.5-1321.7v-96.7h-72.9c-4.5-17.9-10.4-34.2-17.9-49.1l50.6-50.6l-68.5-68.5l-47.6,47.6c-16.4-10.4-32.7-17.9-52.1-23.8
							v-65.5h-96.7v64c-19.3,4.5-38.7,11.9-55.1,22.3l-44.6-44.6l-68.5,68.5l46.1,46.1c-8.9,16.4-16.4,34.2-20.8,53.6h-65.5v96.7
							h68.5c4.5,17.9,13.4,34.2,22.3,49.1l-50.6,50.6l68.5,68.5l52.1-52.1c14.9,7.4,31.3,13.4,47.6,17.9v75.9h96.7v-77.4
							c16.4-4.5,31.3-10.4,44.6-19.3l55.1,55.1l68.5-68.5l-55.1-55.1c8.9-13.4,14.9-29.8,19.3-44.6L-8134.5-1321.7L-8134.5-1321.7z
							 M-8396.4-1275.6c-52.1,0-95.2-41.7-95.2-95.2c0-52.1,41.7-95.2,95.2-95.2c52.1,0,95.2,41.7,95.2,95.2
							C-8302.7-1317.3-8344.3-1275.6-8396.4-1275.6z"/>
					</g>
				</g>
				<g>
					<g>
						
							<path fill="none" stroke="#4D4D52" stroke-width="2" stroke-linecap="round" stroke-linejoin="round" stroke-miterlimit="10" d="
							M-8750.6-1439.3h-17.9c-1.5-3-3-7.4-4.5-10.4l13.4-13.4c6-6,6-14.9,0-20.8l-20.8-20.8c-6-6-14.9-6-20.8,0l-13.4,13.4
							c-3-1.5-6-3-8.9-3v-19.3c0-8.9-6-14.9-14.9-14.9h-29.8c-8.9,0-14.9,6-14.9,14.9v20.8c-3,1.5-6,1.5-7.4,3l-14.9-14.9
							c-6-6-14.9-6-20.8,0l-20.8,20.8c-6,6-6,14.9,0,20.8l14.9,14.9c-1.5,3-1.5,4.5-3,7.4h-22.3c-8.9,0-14.9,6-14.9,14.9v29.8
							c0,8.9,6,14.9,14.9,14.9h22.3c1.5,3,1.5,4.5,3,7.4l-14.9,14.9c-6,6-6,14.9,0,20.8l20.8,20.8c6,6,14.9,6,20.8,0l14.9-14.9
							c3,1.5,6,3,7.4,3v20.8c0,8.9,6,14.9,14.9,14.9h29.8c8.9,0,14.9-6,14.9-14.9v-19.3c3-1.5,6-3,8.9-3l13.4,13.4
							c6,6,14.9,6,20.8,0l20.8-20.8c6-6,6-14.9,0-20.8l-13.4-13.4c1.5-3,3-6,4.5-10.4h17.9c8.9,0,14.9-6,14.9-14.9v-29.8
							C-8735.7-1433.4-8741.7-1439.3-8750.6-1439.3z M-8853.3-1372.3c-20.8,0-37.2-16.4-37.2-37.2s16.4-37.2,37.2-37.2
							s37.2,16.4,37.2,37.2S-8832.5-1372.3-8853.3-1372.3z"/>
					</g>
				</g>
			</g>
		</g>
	</g>
	<path display="inline" fill="#FFFFFF" d="M-3006.2-4728.2v-40.2c0-16.4-13.4-34.2-28.3-34.2h-92.3c-16.4,0-28.3,17.9-28.3,34.2
		v40.2"/>
	<circle display="inline" fill="#FFFFFF" cx="-3080.6" cy="-4868.1" r="44.6"/>
	<path display="inline" fill="#020202" d="M-5178.9-1454.2h-148.8c-16.4,0-29.8-13.4-29.8-29.8v-148.8c0-16.4,13.4-29.8,29.8-29.8
		h148.8c16.4,0,29.8,13.4,29.8,29.8v148.8C-5149.2-1467.6-5162.6-1454.2-5178.9-1454.2z"/>
	<path display="inline" fill="#020202" d="M-3393.1-1454.2h-148.8c-16.4,0-29.8-13.4-29.8-29.8v-148.8c0-16.4,13.4-29.8,29.8-29.8
		h148.8c16.4,0,29.8,13.4,29.8,29.8v148.8C-3363.3-1467.6-3376.7-1454.2-3393.1-1454.2z"/>
	<path display="inline" fill="#020202" d="M-1607.3-1454.2h-148.8c-16.4,0-29.8-13.4-29.8-29.8v-148.8c0-16.4,13.4-29.8,29.8-29.8
		h148.8c16.4,0,29.8,13.4,29.8,29.8v148.8C-1577.5-1467.6-1590.9-1454.2-1607.3-1454.2z"/>
	
		<line display="inline" fill="none" stroke="#FFFFFF" stroke-miterlimit="10" x1="-5327.8" y1="-1521.2" x2="-5178.9" y2="-1521.2"/>
	
		<line display="inline" fill="none" stroke="#FFFFFF" stroke-miterlimit="10" x1="-5327.8" y1="-1491.4" x2="-5178.9" y2="-1491.4"/>
	
		<text transform="matrix(1 0 0 1 -5309.8188 -1549.0598)" display="inline" fill="#FFFFFF" font-family="'Avenir-Medium'" font-size="148.82">w</text>
	
		<line display="inline" fill="none" stroke="#FFFFFF" stroke-miterlimit="10" x1="-3571.7" y1="-1595.6" x2="-3363.3" y2="-1595.6"/>
	
		<line display="inline" fill="none" stroke="#FFFFFF" stroke-miterlimit="10" x1="-3571.7" y1="-1521.2" x2="-3363.3" y2="-1521.2"/>
	
		<line display="inline" fill="none" stroke="#FFFFFF" stroke-miterlimit="10" x1="-3504.7" y1="-1662.5" x2="-3504.7" y2="-1454.2"/>
	<circle display="inline" fill="#FFFFFF" cx="-1718.9" cy="-1595.6" r="37.2"/>
	<polygon display="inline" fill="#FFFFFF" points="-1607.3,-1588.1 -1607.3,-1484 -1726.3,-1484 	"/>
	<path display="inline" fill="#020202" d="M1964.4-1454.2h-148.8c-16.4,0-29.8-13.4-29.8-29.8v-148.8c0-16.4,13.4-29.8,29.8-29.8
		h148.8c16.4,0,29.8,13.4,29.8,29.8v148.8C1994.2-1467.6,1980.8-1454.2,1964.4-1454.2z"/>
	<rect x="1815.6" y="-1626.8" display="inline" fill="#FFFFFF" width="148.8" height="104.2"/>
	<circle display="inline" cx="1848.3" cy="-1591.1" r="17.9"/>
	<g display="inline">
		<g>
			<defs>
				<rect id="SVGID_11_" x="1815.6" y="-1626.8" width="148.8" height="104.2"/>
			</defs>
			<clipPath id="SVGID_12_">
				<use xlink:href="#SVGID_11_"  overflow="visible"/>
			</clipPath>
			<g clip-path="url(#SVGID_12_)">
				<polygon fill="none" stroke="#020202" stroke-linecap="round" stroke-linejoin="round" stroke-miterlimit="10" points="
					1875.1,-1506.3 1936.1,-1595.6 1994.2,-1506.3 				"/>
				<polygon fill="#FFFFFF" stroke="#020202" stroke-linecap="round" stroke-linejoin="round" stroke-miterlimit="10" points="
					1836.4,-1506.3 1882.6,-1565.8 1925.7,-1506.3 				"/>
			</g>
		</g>
	</g>
	
		<polyline display="inline" fill="none" stroke="#000000" stroke-width="2" stroke-linecap="round" stroke-linejoin="round" stroke-miterlimit="10" points="
		-10380.2,510.2 -10469.5,420.9 -10380.2,331.7 	"/>
	
		<polyline display="inline" fill="none" stroke="#000000" stroke-width="2" stroke-linecap="round" stroke-linejoin="round" stroke-miterlimit="10" points="
		-8676.2,331.7 -8586.9,420.9 -8676.2,510.2 	"/>
	<g id="Clip" display="inline">
		<g>
			<path fill="#3E3E3E" d="M-3274,257.2c-44.6,0-81.9,37.2-81.9,81.9v184.5c0,34.2,28.3,61,61,61c32.7,0,61-28.3,61-61V339.1
				c0-22.3-17.9-41.7-41.7-41.7c-22.3,0-41.7,17.9-41.7,41.7v153.3c0,6,4.5,10.4,10.4,10.4s10.4-4.5,10.4-10.4V339.1
				c0-11.9,8.9-20.8,20.8-20.8c11.9,0,20.8,8.9,20.8,20.8v184.5c0,22.3-17.9,41.7-41.7,41.7c-22.3,0-41.7-17.9-41.7-41.7V339.1
				c0-34.2,28.3-61,61-61c32.7,0,61,28.3,61,61v153.3c0,6,4.5,10.4,10.4,10.4c6,0,10.4-4.5,10.4-10.4V339.1
				C-3192.2,294.4-3229.4,257.2-3274,257.2z"/>
		</g>
	</g>
	<g display="inline">
		<path fill="none" stroke="#000000" stroke-miterlimit="10" d="M-6912.7,1075.8h-44.6c-8.9,0-14.9-6-14.9-14.9v-29.8h74.4v29.8
			C-6897.8,1069.8-6903.8,1075.8-6912.7,1075.8z"/>
		<polyline fill="none" stroke="#000000" stroke-linejoin="round" stroke-miterlimit="10" points="-6972.2,1016.2 -6972.2,891.2 
			-6935,837.6 -6897.8,891.2 -6897.8,1016.2 		"/>
		<polygon points="-6955.8,867.4 -6914.2,867.4 -6935,837.6 		"/>
	</g>
	<g display="inline">
		<g>
			<path fill="none" stroke="#000000" stroke-miterlimit="10" d="M-6749,1075.8h-59.5c-8.9,0-14.9-6-14.9-14.9v-29.8h89.3v29.8
				C-6734.1,1069.8-6740.1,1075.8-6749,1075.8z"/>
			<polyline fill="none" stroke="#000000" stroke-linejoin="round" stroke-miterlimit="10" points="-6823.4,1016.2 -6823.4,891.2 
				-6778.8,837.6 -6734.1,891.2 -6734.1,1016.2 			"/>
			<polygon points="-6804.1,867.4 -6753.5,867.4 -6778.8,837.6 			"/>
		</g>
		<line fill="none" stroke="#000000" stroke-miterlimit="10" x1="-6793.6" y1="897.2" x2="-6793.6" y2="1016.2"/>
		<line fill="none" stroke="#000000" stroke-miterlimit="10" x1="-6763.9" y1="897.2" x2="-6763.9" y2="1016.2"/>
	</g>
	<path display="inline" fill="none" stroke="#000000" stroke-linejoin="round" stroke-miterlimit="10" d="M-6719.2,525.1V546
		c0,16.4-13.4,29.8-29.8,29.8h-163.7c-16.4,0-29.8-13.4-29.8-29.8V337.6c0-16.4,13.4-29.8,29.8-29.8h163.7
		c16.4,0,29.8,13.4,29.8,29.8V354"/>
	<g display="inline">
		<g>
			<path fill="none" stroke="#000000" stroke-miterlimit="10" d="M-6661.2,355.5l34.2,49.1c4.5,7.4,3,16.4-3,20.8l-23.8,16.4
				l-50.6-72.9l23.8-16.4C-6674.6,346.5-6665.6,349.5-6661.2,355.5z"/>
			<polyline fill="none" stroke="#000000" stroke-linejoin="round" stroke-miterlimit="10" points="-6667.1,450.7 -6769.8,522.1 
				-6838.3,516.2 -6820.4,449.2 -6717.7,377.8 			"/>
			<polygon points="-6801.1,519.2 -6829.4,479 -6838.3,516.2 			"/>
		</g>
		<line fill="none" stroke="#000000" stroke-miterlimit="10" x1="-6781.7" y1="495.4" x2="-6683.5" y2="426.9"/>
		<line fill="none" stroke="#000000" stroke-miterlimit="10" x1="-6798.1" y1="470.1" x2="-6701.4" y2="401.6"/>
	</g>
	<path display="inline" fill="none" stroke="#000000" stroke-linejoin="round" stroke-miterlimit="10" d="M-5119.4,525.1"/>
	<path display="inline" fill="none" stroke="#000000" stroke-linejoin="round" stroke-miterlimit="10" d="M-5149.2,525.1h-29.8
		c-8.9,0-14.9-6-14.9-14.9V361.4c0-8.9,6-14.9,14.9-14.9h238.1c8.9,0,14.9,6,14.9,14.9v148.8c0,8.9-6,14.9-14.9,14.9h-29.8"/>
	
		<line display="inline" fill="none" stroke="#000000" stroke-linejoin="round" stroke-miterlimit="10" x1="-5149.2" y1="473" x2="-4970.6" y2="473"/>
	
		<rect x="-5119.4" y="473" display="inline" fill="#FFFFFF" stroke="#000000" stroke-linejoin="round" stroke-miterlimit="10" width="119.1" height="104.2"/>
	
		<rect x="-5119.4" y="287" display="inline" fill="#FFFFFF" stroke="#000000" stroke-linejoin="round" stroke-miterlimit="10" width="119.1" height="59.5"/>
	<circle display="inline" cx="-4970.6" cy="406.1" r="14.9"/>
	
		<line display="inline" fill="none" stroke="#000000" stroke-linejoin="round" stroke-miterlimit="10" x1="-5089.6" y1="517.7" x2="-5030.1" y2="517.7"/>
	
		<line display="inline" fill="none" stroke="#000000" stroke-linejoin="round" stroke-miterlimit="10" x1="-5089.6" y1="547.4" x2="-5030.1" y2="547.4"/>
	<path display="inline" fill="none" stroke="#000000" stroke-linejoin="round" stroke-miterlimit="10" d="M-1428.7,569.8H-1637
		c-8.9,0-14.9-6-14.9-14.9V376.3c0-8.9,6-14.9,14.9-14.9h208.3c8.9,0,14.9,6,14.9,14.9v178.6
		C-1413.8,563.8-1419.7,569.8-1428.7,569.8z"/>
	<path display="inline" fill="none" stroke="#000000" stroke-linejoin="round" stroke-miterlimit="10" d="M-1547.7,331.7v-29.8
		c0-8.9,6-14.9,14.9-14.9h208.3c8.9,0,14.9,6,14.9,14.9v178.6c0,8.9-6,14.9-14.9,14.9h-59.5"/>
	<g display="inline">
		<path d="M398.8,535.5L351.2,473c13.4-14.9,22.3-32.7,25.3-53.6c7.4-53.6-29.8-104.2-84.8-111.6c-55.1-7.4-104.2,29.8-111.6,84.8
			c-7.4,55.1,29.8,104.2,84.8,111.6c20.8,3,40.2-1.5,58-8.9l47.6,62.5c3,4.5,7.4,6,11.9,7.4c4.5,0,8.9,0,13.4-3
			C403.3,554.9,404.8,544.5,398.8,535.5z M330.4,443.3c-7.4,10.4-17.9,17.9-28.3,22.3c-8.9,3-19.3,4.5-29.8,3
			c-34.2-4.5-58-37.2-53.6-71.4c4.5-34.2,37.2-58,71.4-53.6c34.2,4.5,58,37.2,53.6,71.4C340.8,425.4,336.3,435.8,330.4,443.3z"/>
	</g>
	<g display="inline">
		<path d="M-10506.7,1952.3c8.9,0,14.9,6,14.9,14.9V2116c0,8.9-6,14.9-14.9,14.9h-178.6c-8.9,0-14.9-6-14.9-14.9v-148.8
			c0-8.9,6-14.9,14.9-14.9L-10506.7,1952.3 M-10506.7,1937.4h-178.6c-16.4,0-29.8,13.4-29.8,29.8V2116c0,16.4,13.4,29.8,29.8,29.8
			h178.6c16.4,0,29.8-13.4,29.8-29.8v-148.8C-10476.9,1950.8-10490.3,1937.4-10506.7,1937.4L-10506.7,1937.4z"/>
	</g>
	<rect x="-10670.4" y="1924" display="inline" fill="#FFFFFF" width="44.6" height="44.6"/>
	
		<line display="inline" fill="none" stroke="#000000" stroke-linecap="round" stroke-linejoin="round" stroke-miterlimit="10" x1="-10648.1" y1="1924" x2="-10648.1" y2="1968.7"/>
	<rect x="-10566.2" y="1924" display="inline" fill="#FFFFFF" width="44.6" height="44.6"/>
	
		<line display="inline" fill="none" stroke="#000000" stroke-linecap="round" stroke-linejoin="round" stroke-miterlimit="10" x1="-10543.9" y1="1924" x2="-10543.9" y2="1968.7"/>
	
		<line display="inline" fill="none" stroke="#000000" stroke-linejoin="round" stroke-miterlimit="10" x1="-10715" y1="1991" x2="-10476.9" y2="1991"/>
	
		<polyline display="inline" fill="none" stroke="#000000" stroke-linecap="round" stroke-linejoin="round" stroke-miterlimit="10" points="
		-10663,2020.8 -10618.3,2020.8 -10618.3,2065.4 -10663,2065.4 -10663,2110.1 -10618.3,2110.1 	"/>
	<g display="inline">
		<polyline fill="none" stroke="#000000" stroke-linecap="round" stroke-linejoin="round" stroke-miterlimit="10" points="
			-10573.7,2020.8 -10529,2020.8 -10529,2065.4 -10573.7,2065.4 		"/>
		<polyline fill="none" stroke="#000000" stroke-linecap="round" stroke-linejoin="round" stroke-miterlimit="10" points="
			-10573.7,2065.4 -10529,2065.4 -10529,2110.1 -10573.7,2110.1 		"/>
	</g>
	
		<path id="location-icon_29_" display="inline" fill="none" stroke="#000000" stroke-linecap="round" stroke-linejoin="round" stroke-miterlimit="10" d="
		M-7033.2,1925.5c-35.7,0-65.5,29.8-65.5,65.5s28.3,78.9,65.5,142.9c37.2-64,65.5-105.7,65.5-142.9
		C-6966.3,1955.3-6996,1925.5-7033.2,1925.5z M-7033.2,2025.2c-19.3,0-34.2-14.9-34.2-34.2s14.9-34.2,34.2-34.2
		c19.3,0,34.2,14.9,34.2,34.2C-6997.5,2010.3-7013.9,2025.2-7033.2,2025.2z"/>
	<g display="inline">
		<path d="M-8817.6,1924c53.6,0,96.7,43.2,96.7,96.7c0,53.6-43.2,96.7-96.7,96.7c-53.6,0-96.7-43.2-96.7-96.7
			S-8871.2,1924-8817.6,1924 M-8817.6,1909.1c-61,0-111.6,50.6-111.6,111.6s50.6,111.6,111.6,111.6c61,0,111.6-50.6,111.6-111.6
			C-8706,1959.7-8756.6,1909.1-8817.6,1909.1L-8817.6,1909.1z"/>
	</g>
	
		<polyline display="inline" fill="none" stroke="#000000" stroke-linecap="round" stroke-linejoin="round" stroke-miterlimit="10" points="
		-8877.1,2011.8 -8817.6,2028.2 -8817.6,1953.8 	"/>
	<path display="inline" fill="none" stroke="#000000" stroke-linecap="round" stroke-linejoin="round" stroke-miterlimit="10" d="
		M-5156.6,2132.4v-47.6c0-26.8-20.8-49.1-46.1-56.6c16.4-8.9,26.8-26.8,26.8-47.6c0-29.8-25.3-53.6-55.1-53.6
		c-29.8,0-53.6,23.8-53.6,53.6c0,20.8,7.4,38.7,25.3,47.6c-23.8,7.4-46.1,29.8-46.1,56.6v47.6"/>
	<path display="inline" d="M-10576.6-4650.8c19.3-20.8,41.7-41.7,64-62.5c37.2-32.7,87.8-49.1,141.4-49.1
		c86.3,0,163.7,38.7,214.3,101.2v-1.5v-410.7c0-4.5-3-8.9-7.4-11.9c-4.5-1.5-10.4-1.5-13.4,3l-406.3,410.7c-3,3-4.5,8.9-3,13.4
		S-10581.1-4650.8-10576.6-4650.8z"/>
	<path display="inline" fill="#020202" d="M-5506.3-1171.4h-148.8c-16.4,0-29.8-13.4-29.8-29.8V-1350c0-16.4,13.4-29.8,29.8-29.8
		h148.8c16.4,0,29.8,13.4,29.8,29.8v148.8C-5476.6-1184.8-5490-1171.4-5506.3-1171.4z"/>
	<rect x="-5655.2" y="-1344.1" display="inline" fill="#FFFFFF" width="148.8" height="104.2"/>
	<circle display="inline" cx="-5622.4" cy="-1308.3" r="17.9"/>
	<g display="inline">
		<g>
			<defs>
				<rect id="SVGID_13_" x="-5655.2" y="-1344.1" width="148.8" height="104.2"/>
			</defs>
			<clipPath id="SVGID_14_">
				<use xlink:href="#SVGID_13_"  overflow="visible"/>
			</clipPath>
			<g clip-path="url(#SVGID_14_)">
				<polygon fill="none" stroke="#020202" stroke-linecap="round" stroke-linejoin="round" stroke-miterlimit="10" points="
					-5595.6,-1223.5 -5534.6,-1312.8 -5476.6,-1223.5 				"/>
				<polygon fill="#FFFFFF" stroke="#020202" stroke-linecap="round" stroke-linejoin="round" stroke-miterlimit="10" points="
					-5634.3,-1223.5 -5588.2,-1283 -5545,-1223.5 				"/>
			</g>
		</g>
	</g>
	<path display="inline" fill="#020202" d="M-5506.3-1171.4h-148.8c-16.4,0-29.8-13.4-29.8-29.8V-1350c0-16.4,13.4-29.8,29.8-29.8
		h148.8c16.4,0,29.8,13.4,29.8,29.8v148.8C-5476.6-1184.8-5490-1171.4-5506.3-1171.4z"/>
	<rect x="-5655.2" y="-1344.1" display="inline" fill="#FFFFFF" width="148.8" height="104.2"/>
	<circle display="inline" cx="-5622.4" cy="-1308.3" r="17.9"/>
	<path display="inline" fill="#020202" d="M178.6-1454.2H29.8c-16.4,0-29.8-13.4-29.8-29.8v-148.8c0-16.4,13.4-29.8,29.8-29.8h148.8
		c16.4,0,29.8,13.4,29.8,29.8v148.8C208.3-1467.6,195-1454.2,178.6-1454.2z"/>
	<g display="inline">
		<path fill="#FFFFFF" d="M22.3-1513.7L22.3-1513.7c-4.5,0-7.4-3-7.4-7.4v-74.4c0-4.5,3-7.4,7.4-7.4l0,0c4.5,0,7.4,3,7.4,7.4v74.4
			C29.8-1516.7,26.8-1513.7,22.3-1513.7z"/>
		<path fill="#FFFFFF" d="M156.3-1513.7L156.3-1513.7c-4.5,0-7.4-3-7.4-7.4v-74.4c0-4.5,3-7.4,7.4-7.4h7.4v81.9
			C163.7-1516.7,160.7-1513.7,156.3-1513.7z"/>
		<g>
			<path fill="#FFFFFF" d="M44.6-1588.1c8.9,0,14.9,6,14.9,14.9s-6,14.9-14.9,14.9H29.8v-29.8H44.6 M44.6-1603H22.3
				c-4.5,0-7.4,3-7.4,7.4v52.1h29.8c16.4,0,29.8-13.4,29.8-29.8C74.4-1589.6,61-1603,44.6-1603L44.6-1603z"/>
		</g>
		<g>
			<g>
				<path fill="#FFFFFF" d="M89.3-1589.6c17.9,0,31.3,13.4,31.3,31.3c0,17.9-13.4,31.3-31.3,31.3h-1.5v-62.5H89.3 M89.3-1603h-7.4
					c-4.5,0-7.4,3-7.4,7.4v74.4c0,4.5,3,7.4,7.4,7.4h7.4c25.3,0,44.6-19.3,44.6-44.6C133.9-1583.7,114.6-1603,89.3-1603L89.3-1603z"
					/>
			</g>
		</g>
		<path fill="#FFFFFF" d="M186-1588.1h-37.2v-7.4c0-4.5,3-7.4,7.4-7.4H186c4.5,0,7.4,3,7.4,7.4l0,0
			C193.5-1591.1,190.5-1588.1,186-1588.1z"/>
		<path fill="#FFFFFF" d="M186-1543.5h-37.2v-14.9H186c4.5,0,7.4,3,7.4,7.4l0,0C193.5-1546.5,190.5-1543.5,186-1543.5z"/>
	</g>
</g>
<g id="統合">
	<path fill="#FFFFFF" d="M-5059.9-4847.3h-74.4c-4.5,0-7.4,1.5-10.4,4.5l-49.1,49.1v-38.7c0-8.9-6-14.9-14.9-14.9h-44.6
		c-8.9,0-14.9-6-14.9-14.9v-208.3c0-8.9,6-14.9,14.9-14.9h297.6c8.9,0,14.9,6,14.9,14.9v89.3h29.8v-89.3c0-25.3-19.3-44.6-44.6-44.6
		h-297.6c-25.3,0-44.6,19.3-44.6,44.6v208.3c0,25.3,19.3,44.6,44.6,44.6h29.8v59.5c0,6,3,11.9,8.9,13.4c1.5,1.5,4.5,1.5,6,1.5
		c4.5,0,7.4-1.5,10.4-4.5l69.9-69.9h68.5L-5059.9-4847.3L-5059.9-4847.3z"/>
	<path fill="#FFFFFF" d="M-4792-4624.1c-4.5,0-7.4-1.5-10.4-4.5l-69.9-69.9h-128c-25.3,0-44.6-19.3-44.6-44.6v-178.6
		c0-25.3,19.3-44.6,44.6-44.6h253c25.3,0,44.6,19.3,44.6,44.6v178.6c0,25.3-19.3,44.6-44.6,44.6h-29.8v59.5c0,6-3,11.9-8.9,13.4
		C-4787.5-4624.1-4790.5-4624.1-4792-4624.1z M-5000.4-4936.6c-8.9,0-14.9,6-14.9,14.9v178.6c0,8.9,6,14.9,14.9,14.9h133.9
		c4.5,0,7.4,1.5,10.4,4.5l49.1,49.1v-38.7c0-8.9,6-14.9,14.9-14.9h44.6c8.9,0,14.9-6,14.9-14.9v-178.6c0-8.9-6-14.9-14.9-14.9
		L-5000.4-4936.6L-5000.4-4936.6z"/>
	<path fill="#FFFFFF" d="M-3274-4847.3h-74.4c-4.5,0-7.4,1.5-10.4,4.5l-49.1,49.1v-38.7c0-8.9-6-14.9-14.9-14.9h-44.6
		c-8.9,0-14.9-6-14.9-14.9v-208.3c0-8.9,6-14.9,14.9-14.9h297.6c8.9,0,14.9,6,14.9,14.9v89.3h29.8v-89.3c0-25.3-19.3-44.6-44.6-44.6
		h-297.6c-25.3,0-44.6,19.3-44.6,44.6v208.3c0,25.3,19.3,44.6,44.6,44.6h29.8v59.5c0,6,3,11.9,8.9,13.4c1.5,1.5,4.5,1.5,6,1.5
		c4.5,0,7.4-1.5,10.4-4.5l69.9-69.9h68.5V-4847.3z"/>
	<path fill="#FFFFFF" d="M-8295.2-4588.3c-4.5,0-10.4-3-13.4-7.4l-40.2-71.4c-4.5-7.4-1.5-16.4,6-20.8c7.4-4.5,16.4-1.5,20.8,6
		l40.2,71.4c4.5,7.4,1.5,16.4-6,20.8C-8289.3-4589.8-8292.3-4588.3-8295.2-4588.3z"/>
	<path fill="#FFFFFF" d="M-8377.1-4649.4c-34.2,0-67-17.9-83.3-49.1c-26.8-46.1-10.4-105.7,35.7-132.4c14.9-8.9,31.3-13.4,47.6-13.4
		c34.2,0,67,17.9,83.3,49.1c13.4,22.3,16.4,49.1,8.9,72.9c-6,25.3-22.3,46.1-44.6,58C-8342.8-4653.8-8359.2-4649.4-8377.1-4649.4z
		 M-8377.1-4813.1c-11.9,0-23.8,3-32.7,8.9c-31.3,17.9-43.2,59.5-23.8,90.8c11.9,20.8,34.2,34.2,58,34.2c11.9,0,23.8-3,32.7-8.9
		c14.9-8.9,26.8-23.8,31.3-40.2c4.5-17.9,3-35.7-6-50.6C-8330.9-4799.7-8353.3-4813.1-8377.1-4813.1z"/>
	<g>
		<path fill="#FFFFFF" d="M-6786.2-4933.6c32.7,0,59.5-26.8,59.5-59.5c0-32.7-26.8-59.5-59.5-59.5s-59.5,26.8-59.5,59.5
			C-6845.7-4960.4-6818.9-4933.6-6786.2-4933.6z M-6786.2-5022.9c16.4,0,29.8,13.4,29.8,29.8c0,16.4-13.4,29.8-29.8,29.8
			s-29.8-13.4-29.8-29.8C-6816-5009.5-6802.6-5022.9-6786.2-5022.9z"/>
		<path fill="#FFFFFF" d="M-6740.1-4921.7h-92.3c-23.8,0-43.2,19.3-43.2,43.2v80.4c0,17.9,13.4,34.2,29.8,40.2v58
			c0,8.9,6,14.9,14.9,14.9s14.9-6,14.9-14.9v-71.4c0-8.9-6-14.9-14.9-14.9c-7.4,0-14.9-6-14.9-13.4v-80.4c0-7.4,6-13.4,13.4-13.4
			h92.3c7.4,0,13.4,6,13.4,13.4v80.4c0,7.4-7.4,13.4-14.9,13.4c-8.9,0-14.9,6-14.9,14.9v71.4c0,8.9,6,14.9,14.9,14.9
			s14.9-6,14.9-14.9v-58c16.4-6,29.8-22.3,29.8-40.2v-80.4C-6696.9-4902.3-6716.2-4921.7-6740.1-4921.7z"/>
		<path fill="#FFFFFF" d="M-6609.1-5130h-281.3l0,0c-1.5,0-3,0-4.5,1.5l0,0c-1.5,0-3,1.5-4.5,3l-104.2,89.3l0,0
			c-1.5,0-1.5,1.5-1.5,3l-1.5,1.5c0,1.5,0,1.5,0,3c0,1.5,0,1.5,0,3l0,0v349.7c0,25.3,17.9,52.1,43.2,52.1h357.2
			c25.3,0,46.1-28.3,46.1-52.1v-416.7C-6563-5115.2-6580.8-5130-6609.1-5130z M-6592.7-4676.1c0,8.9-8.9,22.3-16.4,22.3h-357.2
			c-6,0-13.4-11.9-13.4-22.3v-342.3l74.4-64v56.6c0,8.9-6,14.9-14.9,14.9h-29.8c-8.9,0-14.9,6-14.9,14.9c0,8.9,6,14.9,14.9,14.9
			h29.8c25.3,0,44.6-19.3,44.6-44.6v-74.4h266.4c7.4,0,16.4,1.5,16.4,7.4V-4676.1z"/>
	</g>
	<g>
		<path fill="#FFFFFF" d="M-1265-4668.7h-29.8v-386.9c0-8.9-6-14.9-14.9-14.9h-238.1c-8.9,0-14.9,6-14.9,14.9v386.9h-29.8v-386.9
			c0-25.3,19.3-44.6,44.6-44.6h238.1c25.3,0,44.6,19.3,44.6,44.6V-4668.7z"/>
		<path fill="#FFFFFF" d="M-1205.4-4653.8h-446.5c-8.9,0-14.9-6-14.9-14.9s6-14.9,14.9-14.9h446.5c8.9,0,14.9,6,14.9,14.9
			S-1196.5-4653.8-1205.4-4653.8z"/>
		<path fill="none" stroke="#4D4D52" stroke-width="2" stroke-miterlimit="10" d="M-1369.1-4549.6"/>
		<path fill="#FFFFFF" d="M-1369.1-4664.2c-8.9,0-14.9-6-14.9-14.9v-74.4c0-8.9-6-14.9-14.9-14.9h-59.5c-8.9,0-14.9,6-14.9,14.9
			v74.4c0,8.9-6,14.9-14.9,14.9s-14.9-6-14.9-14.9v-74.4c0-25.3,19.3-44.6,44.6-44.6h59.5c25.3,0,44.6,19.3,44.6,44.6v74.4
			C-1354.3-4670.2-1360.2-4664.2-1369.1-4664.2z"/>
		<path fill="#FFFFFF" d="M-1339.4-4891.9H-1518c-8.9,0-14.9-6-14.9-14.9c0-8.9,6-14.9,14.9-14.9h178.6c8.9,0,14.9,6,14.9,14.9
			C-1324.5-4897.9-1330.5-4891.9-1339.4-4891.9z"/>
		<path fill="#FFFFFF" d="M-1339.4-4832.4H-1518c-8.9,0-14.9-6-14.9-14.9s6-14.9,14.9-14.9h178.6c8.9,0,14.9,6,14.9,14.9
			S-1330.5-4832.4-1339.4-4832.4z"/>
		<path fill="#FFFFFF" d="M-1339.4-4951.5H-1518c-8.9,0-14.9-6-14.9-14.9s6-14.9,14.9-14.9h178.6c8.9,0,14.9,6,14.9,14.9
			S-1330.5-4951.5-1339.4-4951.5z"/>
		<path fill="#FFFFFF" d="M-1339.4-5011H-1518c-8.9,0-14.9-6-14.9-14.9c0-8.9,6-14.9,14.9-14.9h178.6c8.9,0,14.9,6,14.9,14.9
			C-1324.5-5016.9-1330.5-5011-1339.4-5011z"/>
	</g>
	<circle fill="#FFFFFF" cx="506" cy="-4638.9" r="29.8"/>
	<circle fill="#FFFFFF" cx="714.3" cy="-4638.9" r="29.8"/>
	<circle fill="#FFFFFF" cx="297.6" cy="-4638.9" r="29.8"/>
	<path fill="#FFFFFF" d="M506-5100.3c26.8,0,47.6,22.3,47.6,47.6c0,13.4-6,26.8-16.4,35.7c-8.9,7.4-11.9,20.8-8.9,31.3
		c3,11.9,13.4,19.3,25.3,20.8c14.9,1.5,25.3,10.4,25.3,17.9v40.2H431.6v-40.2c0-7.4,10.4-16.4,25.3-17.9
		c11.9-1.5,22.3-8.9,25.3-20.8c3-11.9,0-23.8-8.9-31.3c-10.4-8.9-16.4-22.3-16.4-35.7C458.4-5078,479.2-5100.3,506-5100.3 M506-5130
		c-43.2,0-78.9,35.7-78.9,77.4c0,23.8,10.4,43.2,26.8,58c-29.8,3-52.1,22.3-52.1,46.1v69.9h208.3v-69.9c0-23.8-22.3-43.2-52.1-46.1
		c16.4-14.9,26.8-34.2,26.8-58C584.9-5094.3,549.1-5130,506-5130L506-5130z"/>
	<path fill="#FFFFFF" d="M714.3-4698.5c-8.9,0-14.9-6-14.9-14.9v-29.8H312.5v29.8c0,8.9-6,14.9-14.9,14.9s-14.9-6-14.9-14.9v-44.6
		c0-8.9,6-14.9,14.9-14.9h416.7c8.9,0,14.9,6,14.9,14.9v44.6C729.2-4704.4,723.3-4698.5,714.3-4698.5z"/>
	<path fill="#FFFFFF" d="M506-4698.5c-8.9,0-14.9-6-14.9-14.9v-89.3c0-8.9,6-14.9,14.9-14.9s14.9,6,14.9,14.9v89.3
		C520.9-4704.4,514.9-4698.5,506-4698.5z"/>
	<g>
		<path d="M-10194.2-2987h-446.5c-25.3,0-44.6-19.3-44.6-44.6v-282.8c0-25.3,19.3-44.6,44.6-44.6h446.5c25.3,0,44.6,19.3,44.6,44.6
			v282.8C-10149.5-3006.4-10168.9-2987-10194.2-2987z M-10640.6-3329.3c-8.9,0-14.9,6-14.9,14.9v282.8c0,8.9,6,14.9,14.9,14.9h446.5
			c8.9,0,14.9-6,14.9-14.9v-282.8c0-8.9-6-14.9-14.9-14.9H-10640.6z"/>
		<path d="M-10298.3-2912.6h-238.1c-8.9,0-14.9-6-14.9-14.9c0-8.9,6-14.9,14.9-14.9h238.1c8.9,0,14.9,6,14.9,14.9
			C-10283.5-2918.6-10289.4-2912.6-10298.3-2912.6z"/>
		<g>
			<rect x="-10462" y="-3001.9" width="29.8" height="74.4"/>
			<rect x="-10402.5" y="-3001.9" width="29.8" height="74.4"/>
		</g>
	</g>
	<g>
		<path d="M-8542.3-2912.6h-178.6c-25.3,0-44.6-19.3-44.6-44.6v-386.9c0-25.3,19.3-44.6,44.6-44.6h178.6c25.3,0,44.6,19.3,44.6,44.6
			v386.9C-8497.6-2932-8517-2912.6-8542.3-2912.6z M-8720.9-3359.1c-8.9,0-14.9,6-14.9,14.9v386.9c0,8.9,6,14.9,14.9,14.9h178.6
			c8.9,0,14.9-6,14.9-14.9v-386.9c0-8.9-6-14.9-14.9-14.9H-8720.9z"/>
		<path d="M-8512.5-3299.6h-238.1c-8.9,0-14.9-6-14.9-14.9s6-14.9,14.9-14.9h238.1c8.9,0,14.9,6,14.9,14.9
			S-8503.6-3299.6-8512.5-3299.6z"/>
		<path d="M-8512.5-3001.9h-238.1c-8.9,0-14.9-6-14.9-14.9c0-8.9,6-14.9,14.9-14.9h238.1c8.9,0,14.9,6,14.9,14.9
			C-8497.6-3007.9-8503.6-3001.9-8512.5-3001.9z"/>
		<circle cx="-8631.6" cy="-2972.2" r="14.9"/>
	</g>
	<g>
		<g>
			<path d="M-10610.9-1231c-8.9,0-14.9,6-14.9,14.9s6,14.9,14.9,14.9h171.1c7.4-7.4,17.9-11.9,28.3-13.4
				c-4.5-4.5-7.4-10.4-11.9-16.4H-10610.9z M-10432.3-1266.7c0-8.9,1.5-16.4,4.5-23.8h-212.8c-8.9,0-14.9,6-14.9,14.9
				s6,14.9,14.9,14.9h208.3C-10432.3-1262.2-10432.3-1265.2-10432.3-1266.7z M-10090-1335.1c0-8.9-6-14.9-14.9-14.9h-506
				c-8.9,0-14.9,6-14.9,14.9s6,14.9,14.9,14.9h202.4c13.4-13.4,31.3-20.8,50.6-20.8c19.3,0,37.2,7.4,50.6,20.8h202.4
				C-10096-1320.2-10090-1326.2-10090-1335.1z M-10581.1-1156.5c0,8.9,6,14.9,14.9,14.9h104.2v-10.4c0-6,1.5-13.4,3-19.3h-107.2
				C-10575.1-1171.4-10581.1-1165.5-10581.1-1156.5z M-10149.5-1171.4h-107.2c1.5,6,3,13.4,3,19.3v10.4h104.2
				c8.9,0,14.9-6,14.9-14.9S-10140.6-1171.4-10149.5-1171.4z M-10075.1-1290.5h-212.8c3,7.4,4.5,14.9,4.5,23.8c0,1.5,0,4.5,0,6
				h208.3c8.9,0,14.9-6,14.9-14.9S-10066.2-1290.5-10075.1-1290.5z M-10104.9-1231h-187.5c-3,6-7.4,10.4-11.9,16.4
				c10.4,1.5,20.8,7.4,28.3,13.4h171.1c8.9,0,14.9-6,14.9-14.9S-10096-1231-10104.9-1231z M-10194.2-1111.9h-59.5v29.8h59.5
				c8.9,0,14.9-6,14.9-14.9C-10179.3-1105.9-10185.2-1111.9-10194.2-1111.9z M-10536.5-1097c0,8.9,6,14.9,14.9,14.9h59.5v-29.8
				h-59.5C-10530.5-1111.9-10536.5-1105.9-10536.5-1097z"/>
		</g>
	</g>
	<path d="M-10313.2-978v-65.5c14.9,0,29.8-13.4,29.8-28.3v-80.4c0-16.4-13.4-34.2-28.3-34.2h-92.3c-16.4,0-28.3,17.9-28.3,34.2v80.4
		c0,16.4,14.9,28.3,29.8,28.3v65.5"/>
	<g>
		<path d="M-10313.2-1543.5h-119.1c-8.9,0-14.9-6-14.9-14.9c0-8.9,6-14.9,14.9-14.9h119.1c8.9,0,14.9,6,14.9,14.9
			C-10298.3-1549.4-10304.3-1543.5-10313.2-1543.5z"/>
	</g>
	<g>
		<path d="M-10313.2-1484h-119.1c-8.9,0-14.9-6-14.9-14.9s6-14.9,14.9-14.9h119.1c8.9,0,14.9,6,14.9,14.9
			S-10304.3-1484-10313.2-1484z"/>
	</g>
	<g>
		<path d="M-10313.2-1424.4h-119.1c-8.9,0-14.9-6-14.9-14.9c0-8.9,6-14.9,14.9-14.9h119.1c8.9,0,14.9,6,14.9,14.9
			C-10298.3-1430.4-10304.3-1424.4-10313.2-1424.4z"/>
	</g>
	<circle cx="-10357.9" cy="-1266.7" r="44.6"/>
	<path d="M-10357.9-1662.5c-197.9,0-357.2,159.2-357.2,357.2s159.2,357.2,357.2,357.2c197.9,0,357.2-159.2,357.2-357.2
		S-10159.9-1662.5-10357.9-1662.5z M-10357.9-978c-180.1,0-327.4-147.3-327.4-327.4c0-120.5,65.5-226.2,163.7-282.8v119.1
		c0,8.9-6,14.9-14.9,14.9h-74.4c-8.9,0-14.9,6-14.9,14.9c0,8.9,6,14.9,14.9,14.9h74.4c25.3,0,44.6-19.3,44.6-44.6V-1603
		c0,0,0,0,0-1.5c41.7-17.9,86.3-28.3,133.9-28.3c180.1,0,327.4,147.3,327.4,327.4S-10177.8-978-10357.9-978z"/>
	<path d="M-10253.7-1573.2c-8.9,0-14.9,6-14.9,14.9v119.1c0,8.9,6,14.9,14.9,14.9h119.1c8.9,0,14.9-6,14.9-14.9
		C-10119.8-1513.7-10179.3-1573.2-10253.7-1573.2z"/>
	<g>
		<g>
			<defs>
				<circle id="SVGID_15_" cx="-6786.2" cy="-1305.4" r="357.2"/>
			</defs>
			<clipPath id="SVGID_16_">
				<use xlink:href="#SVGID_15_"  overflow="visible"/>
			</clipPath>
			<path clip-path="url(#SVGID_16_)" d="M-6539.2-931.8c-4.5,0-7.4-1.5-10.4-4.5l-163.7-163.7c-6-6-6-14.9,0-20.8l190.5-190.5
				c6-6,14.9-6,20.8,0l163.7,163.7c6,6,6,14.9,0,20.8l-190.5,190.5C-6530.2-933.3-6534.7-931.8-6539.2-931.8z M-6680.5-1110.4
				l142.9,142.9l169.7-169.7l-142.9-142.9L-6680.5-1110.4z"/>
		</g>
		<g>
			<defs>
				<circle id="SVGID_17_" cx="-6786.2" cy="-1305.4" r="357.2"/>
			</defs>
			<clipPath id="SVGID_18_">
				<use xlink:href="#SVGID_17_"  overflow="visible"/>
			</clipPath>
			<g clip-path="url(#SVGID_18_)">
				<path d="M-6711.8-1153.6l-13.4-13.4l0,0c0,0-41.7-34.2-81.9-59.5c-13.4-7.4-41.7-17.9-84.8-31.3c-6-1.5-6-1.5-7.4-3
					c-3-1.5-6-6-7.4-10.4l-55.1-272.3c-1.5-4.5,0-10.4,4.5-13.4c3-3,8.9-4.5,13.4-4.5l272.3,55.1c4.5,1.5,7.4,3,10.4,7.4
					c1.5,1.5,1.5,3,3,7.4c11.9,43.2,22.3,71.4,31.3,84.8c23.8,40.2,59.5,81.9,59.5,81.9l13.4,11.9l-20.8,20.8l-13.4-13.4
					c-3-3-37.2-46.1-64-86.3c-13.4-22.3-26.8-67-32.7-87.8l-241.1-47.6l47.6,241.1c19.3,6,65.5,19.3,87.8,32.7
					c41.7,25.3,84.8,61,86.3,62.5l14.9,14.9L-6711.8-1153.6z"/>
				<path d="M-6750.5-1294.9c-14.9,0-28.3-6-37.2-16.4c-10.4-10.4-16.4-23.8-16.4-37.2c0-14.9,6-28.3,16.4-37.2
					c20.8-20.8,55.1-20.8,75.9,0c20.8,20.8,20.8,55.1,0,75.9C-6722.2-1300.9-6735.6-1294.9-6750.5-1294.9z M-6750.5-1372.3
					c-6,0-11.9,3-16.4,7.4c-4.5,4.5-7.4,10.4-7.4,16.4c0,6,3,11.9,7.4,16.4c8.9,8.9,23.8,8.9,32.7,0s8.9-23.8,0-32.7
					C-6738.6-1369.4-6744.5-1372.3-6750.5-1372.3z"/>
				
					<rect x="-6982.8" y="-1475.5" transform="matrix(-0.7071 -0.7071 0.7071 -0.7071 -10683.0723 -7346.2783)" width="239.6" height="29.8"/>
			</g>
		</g>
	</g>
	<path d="M-6786.2-1632.8c180.1,0,327.4,147.3,327.4,327.4S-6606.1-978-6786.2-978s-327.4-147.3-327.4-327.4
		S-6966.3-1632.8-6786.2-1632.8 M-6786.2-1662.5c-197.9,0-357.2,159.2-357.2,357.2s159.2,357.2,357.2,357.2
		c197.9,0,357.2-159.2,357.2-357.2S-6588.3-1662.5-6786.2-1662.5L-6786.2-1662.5z"/>
	<g>
		<g>
			<defs>
				<circle id="SVGID_19_" cx="-6786.2" cy="-1305.4" r="357.2"/>
			</defs>
			<clipPath id="SVGID_20_">
				<use xlink:href="#SVGID_19_"  overflow="visible"/>
			</clipPath>
			<g clip-path="url(#SVGID_20_)">
				<circle cx="-6905.2" cy="-1162.5" r="59.5"/>
				<path d="M-6830.8-903.6l14.9-159.2c0-16.4-14.9-34.2-34.2-34.2h-19.3l-35.7,59.5l-35.7-59.5h-19.3c-19.3,0-34.2,17.9-34.2,34.2
					l14.9,159.2"/>
			</g>
		</g>
	</g>
	<g>
		<path d="M-8572-1632.8c180.1,0,327.4,147.3,327.4,327.4S-8392-978-8572-978c-180.1,0-327.4-147.3-327.4-327.4
			S-8752.1-1632.8-8572-1632.8 M-8572-1662.5c-197.9,0-357.2,159.2-357.2,357.2S-8770-948.2-8572-948.2
			c197.9,0,357.2-159.2,357.2-357.2S-8374.1-1662.5-8572-1662.5L-8572-1662.5z"/>
	</g>
	<g>
		<g>
			<defs>
				<circle id="SVGID_21_" cx="-8572" cy="-1305.4" r="357.2"/>
			</defs>
			<clipPath id="SVGID_22_">
				<use xlink:href="#SVGID_21_"  overflow="visible"/>
			</clipPath>
			<circle clip-path="url(#SVGID_22_)" cx="-8691.1" cy="-1162.5" r="59.5"/>
		</g>
		<g>
			<defs>
				<circle id="SVGID_23_" cx="-8572" cy="-1305.4" r="357.2"/>
			</defs>
			<clipPath id="SVGID_24_">
				<use xlink:href="#SVGID_23_"  overflow="visible"/>
			</clipPath>
			<path clip-path="url(#SVGID_24_)" d="M-8616.7-903.6l14.9-159.2c0-16.4-14.9-34.2-34.2-34.2h-19.3l-35.7,59.5l-35.7-59.5h-19.3
				c-19.3,0-34.2,17.9-34.2,34.2l14.9,159.2"/>
		</g>
	</g>
	<path fill="#4D4D52" d="M-10182.3,3965.8c-3-3-7.4-6-11.9-6l-334.8-8.9c-7.4,0-11.9,4.5-14.9,10.4l-38.7,117.6l-13.4-203.9
		l160.7,4.5l25.3,44.6c3,4.5,7.4,7.4,11.9,7.4l141.4,7.4c7.4,0,14.9-6,14.9-14.9c0-8.9-6-14.9-14.9-14.9l-132.5-6l-25.3-46.1
		c-3-4.5-7.4-7.4-13.4-7.4l-183-6c-4.5,0-7.4,1.5-10.4,4.5s-4.5,7.4-4.5,11.9l19.3,297.6l0,0c0,1.5,0,3,1.5,4.5c0,0,0,0,0,1.5
		c0,0,0,1.5,1.5,1.5l1.5,1.5l0,0c1.5,1.5,3,1.5,4.5,3c0,0,0,0,1.5,0c1.5,0,3,1.5,4.5,1.5h330.4h14.9c6,0,11.9-4.5,14.9-10.4
		l53.6-183C-10179.3,3973.3-10179.3,3968.8-10182.3,3965.8z M-10258.2,4141.4h-4.5h-309.5l53.6-162.2l305.1,8.9L-10258.2,4141.4z"/>
	<g>
		<g>
			<defs>
				<circle id="SVGID_25_" cx="-8572" cy="-1305.4" r="357.2"/>
			</defs>
			<clipPath id="SVGID_26_">
				<use xlink:href="#SVGID_25_"  overflow="visible"/>
			</clipPath>
			<g clip-path="url(#SVGID_26_)">
				<g>
					
						<path fill="none" stroke="#000000" stroke-width="2" stroke-linecap="round" stroke-linejoin="round" stroke-miterlimit="10" d="
						M-8134.5-1321.7v-96.7h-72.9c-4.5-17.9-10.4-34.2-17.9-49.1l50.6-50.6l-68.5-68.5l-47.6,47.6c-16.4-10.4-32.7-17.9-52.1-23.8
						v-65.5h-96.7v64c-19.3,4.5-38.7,11.9-55.1,22.3l-44.6-44.6l-68.5,68.5l46.1,46.1c-8.9,16.4-16.4,34.2-20.8,53.6h-65.5v96.7
						h68.5c4.5,17.9,13.4,34.2,22.3,49.1l-50.6,50.6l68.5,68.5l52.1-52.1c14.9,7.4,31.3,13.4,47.6,17.9v75.9h96.7v-77.4
						c16.4-4.5,31.3-10.4,44.6-19.3l55.1,55.1l68.5-68.5l-55.1-55.1c8.9-13.4,14.9-29.8,19.3-44.6L-8134.5-1321.7L-8134.5-1321.7z
						 M-8396.4-1275.6c-52.1,0-95.2-41.7-95.2-95.2c0-52.1,41.7-95.2,95.2-95.2c52.1,0,95.2,41.7,95.2,95.2
						C-8302.7-1317.3-8344.3-1275.6-8396.4-1275.6z"/>
				</g>
			</g>
		</g>
		<g>
			<defs>
				<circle id="SVGID_27_" cx="-8572" cy="-1305.4" r="357.2"/>
			</defs>
			<clipPath id="SVGID_28_">
				<use xlink:href="#SVGID_27_"  overflow="visible"/>
			</clipPath>
			<g clip-path="url(#SVGID_28_)">
				<g>
					
						<path fill="none" stroke="#000000" stroke-width="2" stroke-linecap="round" stroke-linejoin="round" stroke-miterlimit="10" d="
						M-8750.6-1439.3h-17.9c-1.5-3-3-7.4-4.5-10.4l13.4-13.4c6-6,6-14.9,0-20.8l-20.8-20.8c-6-6-14.9-6-20.8,0l-13.4,13.4
						c-3-1.5-6-3-8.9-3v-19.3c0-8.9-6-14.9-14.9-14.9h-29.8c-8.9,0-14.9,6-14.9,14.9v20.8c-3,1.5-6,1.5-7.4,3l-14.9-14.9
						c-6-6-14.9-6-20.8,0l-20.8,20.8c-6,6-6,14.9,0,20.8l14.9,14.9c-1.5,3-1.5,4.5-3,7.4h-22.3c-8.9,0-14.9,6-14.9,14.9v29.8
						c0,8.9,6,14.9,14.9,14.9h22.3c1.5,3,1.5,4.5,3,7.4l-14.9,14.9c-6,6-6,14.9,0,20.8l20.8,20.8c6,6,14.9,6,20.8,0l14.9-14.9
						c3,1.5,6,3,7.4,3v20.8c0,8.9,6,14.9,14.9,14.9h29.8c8.9,0,14.9-6,14.9-14.9v-19.3c3-1.5,6-3,8.9-3l13.4,13.4c6,6,14.9,6,20.8,0
						l20.8-20.8c6-6,6-14.9,0-20.8l-13.4-13.4c1.5-3,3-6,4.5-10.4h17.9c8.9,0,14.9-6,14.9-14.9v-29.8
						C-8735.7-1433.4-8741.7-1439.3-8750.6-1439.3z M-8853.3-1372.3c-20.8,0-37.2-16.4-37.2-37.2s16.4-37.2,37.2-37.2
						s37.2,16.4,37.2,37.2S-8832.5-1372.3-8853.3-1372.3z"/>
				</g>
			</g>
		</g>
	</g>
	<path fill="#FFFFFF" d="M-2961.5-4966.3h-253c-25.3,0-44.6,19.3-44.6,44.6v178.6c0,25.3,19.3,44.6,44.6,44.6h128l69.9,69.9
		c3,3,6,4.5,10.4,4.5c1.5,0,4.5,0,6-1.5c6-3,8.9-7.4,8.9-13.4v-59.5h29.8c25.3,0,44.6-19.3,44.6-44.6v-178.6
		C-2916.9-4947-2936.2-4966.3-2961.5-4966.3z M-3080.6-4912.8c25.3,0,44.6,19.3,44.6,44.6c0,25.3-19.3,44.6-44.6,44.6
		s-44.6-19.3-44.6-44.6C-3125.2-4893.4-3105.9-4912.8-3080.6-4912.8z M-3006.2-4728.2H-3155v-40.2c0-16.4,13.4-34.2,28.3-34.2h92.3
		c16.4,0,28.3,17.9,28.3,34.2V-4728.2L-3006.2-4728.2z"/>
	<path fill="#020202" d="M-5178.9-1662.5h-148.8c-16.4,0-29.8,13.4-29.8,29.8v148.8c0,16.4,13.4,29.8,29.8,29.8h148.8
		c16.4,0,29.8-13.4,29.8-29.8v-148.8C-5149.2-1649.1-5162.6-1662.5-5178.9-1662.5z M-5293.5-1617.9l16.4,44.6l0,0l16.4-44.6h14.9
		l17.9,44.6l0,0l14.9-44.6h14.9l-22.3,74.4h-13.4l-19.3-59.5l0,0l-16.4,59.5h-14.9l-23.8-74.4H-5293.5z M-5178.9-1484h-148.8v-14.9
		h148.8V-1484z M-5178.9-1513.7h-148.8v-14.9h148.8V-1513.7z"/>
	<g>
		<path fill="#020202" d="M-3571.7-1513.7v29.8c0,16.4,13.4,29.8,29.8,29.8h29.8v-59.5H-3571.7z"/>
		<rect x="-3571.7" y="-1588.1" fill="#020202" width="59.5" height="59.5"/>
		<path fill="#020202" d="M-3512.2-1662.5h-29.8c-16.4,0-29.8,13.4-29.8,29.8v29.8h59.5V-1662.5z"/>
		<path fill="#020202" d="M-3393.1-1662.5h-104.2v59.5h133.9v-29.8C-3363.3-1649.1-3376.7-1662.5-3393.1-1662.5z"/>
		<path fill="#020202" d="M-3497.3-1454.2h104.2c16.4,0,29.8-13.4,29.8-29.8v-29.8h-133.9V-1454.2z"/>
		<rect x="-3497.3" y="-1588.1" fill="#020202" width="133.9" height="59.5"/>
	</g>
	<path fill="#020202" d="M-1607.3-1662.5h-148.8c-16.4,0-29.8,13.4-29.8,29.8v148.8c0,16.4,13.4,29.8,29.8,29.8h148.8
		c16.4,0,29.8-13.4,29.8-29.8v-148.8C-1577.5-1649.1-1590.9-1662.5-1607.3-1662.5z M-1756.1-1595.6c0-20.8,16.4-37.2,37.2-37.2
		s37.2,16.4,37.2,37.2s-16.4,37.2-37.2,37.2S-1756.1-1574.7-1756.1-1595.6z M-1607.3-1484h-119.1l119.1-104.2V-1484z"/>
	<path d="M-10380.2,525.1c-4.5,0-7.4-1.5-10.4-4.5l-89.3-89.3c-6-6-6-14.9,0-20.8l89.3-89.3c6-6,14.9-6,20.8,0s6,14.9,0,20.8
		l-78.9,78.9l78.9,78.9c6,6,6,14.9,0,20.8C-10372.8,523.6-10375.7,525.1-10380.2,525.1z"/>
	<path d="M-8676.2,525.1c-4.5,0-7.4-1.5-10.4-4.5c-6-6-6-14.9,0-20.8l78.9-78.9l-78.9-78.9c-6-6-6-14.9,0-20.8s14.9-6,20.8,0
		l89.3,89.3c6,6,6,14.9,0,20.8l-89.3,89.3C-8668.8,523.6-8671.7,525.1-8676.2,525.1z"/>
	<g id="Clip_2_">
		<g>
			<path d="M-3274,257.2c-44.6,0-81.9,37.2-81.9,81.9v184.5c0,34.2,28.3,61,61,61c32.7,0,61-28.3,61-61V339.1
				c0-22.3-17.9-41.7-41.7-41.7c-22.3,0-41.7,17.9-41.7,41.7v153.3c0,6,4.5,10.4,10.4,10.4s10.4-4.5,10.4-10.4V339.1
				c0-11.9,8.9-20.8,20.8-20.8c11.9,0,20.8,8.9,20.8,20.8v184.5c0,22.3-17.9,41.7-41.7,41.7c-22.3,0-41.7-17.9-41.7-41.7V339.1
				c0-34.2,28.3-61,61-61c32.7,0,61,28.3,61,61v153.3c0,6,4.5,10.4,10.4,10.4c6,0,10.4-4.5,10.4-10.4V339.1
				C-3192.2,294.4-3229.4,257.2-3274,257.2z"/>
		</g>
	</g>
	<g>
		<path d="M-6912.7,1083.2h-44.6c-11.9,0-22.3-10.4-22.3-22.3v-37.2h89.3v37.2C-6890.4,1072.8-6900.8,1083.2-6912.7,1083.2z
			 M-6964.8,1038.5v22.3c0,4.5,3,7.4,7.4,7.4h44.6c4.5,0,7.4-3,7.4-7.4v-22.3H-6964.8z"/>
		<path d="M-6890.4,1016.2h-14.9v-122L-6935,851l-29.8,43.2v122h-14.9v-125c0-1.5,0-3,1.5-4.5l37.2-53.6c3-4.5,8.9-4.5,11.9,0
			l37.2,53.6c1.5,1.5,1.5,3,1.5,4.5V1016.2z"/>
		<polygon points="-6955.8,867.4 -6914.2,867.4 -6935,837.6 		"/>
	</g>
	<g>
		<g>
			<path d="M-6749,1083.2h-59.5c-11.9,0-22.3-10.4-22.3-22.3v-37.2h104.2v37.2C-6726.7,1072.8-6737.1,1083.2-6749,1083.2z
				 M-6816,1038.5v22.3c0,4.5,3,7.4,7.4,7.4h59.5c4.5,0,7.4-3,7.4-7.4v-22.3H-6816z"/>
			<path d="M-6726.7,1016.2h-14.9v-122l-37.2-44.6l-37.2,44.6v122h-14.9v-125c0-1.5,0-3,1.5-4.5l44.6-53.6c3-3,8.9-3,11.9,0
				l44.6,53.6c1.5,1.5,1.5,3,1.5,4.5V1016.2z"/>
			<polygon points="-6804.1,867.4 -6753.5,867.4 -6778.8,837.6 			"/>
		</g>
		<rect x="-6801.1" y="897.2" width="14.9" height="119.1"/>
		<rect x="-6771.3" y="897.2" width="14.9" height="119.1"/>
	</g>
	<g>
		<path d="M-6726.7,532.6c0,11.9-10.4,22.3-22.3,22.3h-163.7c-11.9,0-22.3-10.4-22.3-22.3V324.2c0-11.9,10.4-22.3,22.3-22.3h163.7
			c11.9,0,22.3,10.4,22.3,22.3v22.3h14.9v-22.3c0-20.8-16.4-37.2-37.2-37.2h-163.7c-20.8,0-37.2,16.4-37.2,37.2v208.3
			c0,20.8,16.4,37.2,37.2,37.2h163.7c20.8,0,37.2-16.4,37.2-37.2v-22.3h-14.9V532.6z"/>
		<path d="M-6621,386.7l-34.2-49.1c-7.4-10.4-20.8-11.9-31.3-6l-29.8,20.8l59.5,84.8l29.8-20.8c4.5-3,7.4-8.9,8.9-14.9
			C-6616.5,398.6-6616.5,392.7-6621,386.7z M-6634.4,406.1l-17.9,13.4l-43.2-61l17.9-13.4c3-3,7.4-1.5,10.4,1.5l34.2,49.1
			c1.5,1.5,1.5,3,1.5,6C-6631.4,403.1-6632.9,404.6-6634.4,406.1z"/>
		<path d="M-6771.3,501.3l-34.2-3l-17.9-23.8l8.9-34.2l99.7-69.9l-8.9-11.9l-102.7,71.4c-1.5,1.5-3,3-3,4.5l-17.9,67
			c0,1.5,0,4.5,1.5,6c1.5,1.5,3,3,6,3l69.9,6l0,0c1.5,0,3,0,4.5-1.5l102.7-71.4l-8.9-11.9L-6771.3,501.3z"/>
		
			<rect x="-6739.9" y="388.7" transform="matrix(-0.5737 -0.819 0.819 -0.5737 -10962.2598 -4808.7544)" width="14.9" height="119"/>
		<rect x="-6756.8" y="363.8" transform="matrix(0.5737 0.819 -0.819 0.5737 -2530.3613 5708.4561)" width="14.9" height="119"/>
	</g>
	<g>
		<path d="M-4948.3,346.5h-52.1v-52.1c0-4.5-3-7.4-7.4-7.4h-119.1c-4.5,0-7.4,3-7.4,7.4v52.1h-52.1c-11.9,0-22.3,10.4-22.3,22.3
			v148.8c0,11.9,10.4,22.3,22.3,22.3h22.3v-14.9h-22.3c-4.5,0-7.4-3-7.4-7.4V368.9c0-4.5,3-7.4,7.4-7.4h59.5h119.1h59.5
			c4.5,0,7.4,3,7.4,7.4v148.8c0,4.5-3,7.4-7.4,7.4h-37.2V540h37.2c11.9,0,22.3-10.4,22.3-22.3V368.9
			C-4925.9,357-4936.4,346.5-4948.3,346.5z M-5119.4,346.5v-44.6h104.2v44.6H-5119.4z"/>
		<path d="M-5164.1,465.6v14.9h29.8v89.3c0,4.5,3,14.9,7.4,14.9h119.1c4.5,0,7.4-10.4,7.4-14.9v-89.3h14.9v-14.9H-5164.1z
			 M-5015.2,569.8h-104.2v-89.3h104.2V569.8z"/>
		<circle cx="-4978" cy="413.5" r="14.9"/>
		<rect x="-5104.5" y="510.2" width="74.4" height="14.9"/>
		<rect x="-5104.5" y="540" width="74.4" height="14.9"/>
	</g>
	<path d="M-1428.7,577.2H-1637c-11.9,0-22.3-10.4-22.3-22.3V376.3c0-11.9,10.4-22.3,22.3-22.3h208.3c11.9,0,22.3,10.4,22.3,22.3
		v178.6C-1406.3,566.8-1416.8,577.2-1428.7,577.2z M-1637,368.9c-4.5,0-7.4,3-7.4,7.4v178.6c0,4.5,3,7.4,7.4,7.4h208.3
		c4.5,0,7.4-3,7.4-7.4V376.3c0-4.5-3-7.4-7.4-7.4H-1637z"/>
	<path d="M-1324.5,502.8h-59.5v-14.9h59.5c4.5,0,7.4-3,7.4-7.4V301.9c0-4.5-3-7.4-7.4-7.4h-208.3c-4.5,0-7.4,3-7.4,7.4v29.8h-14.9
		v-29.8c0-11.9,10.4-22.3,22.3-22.3h208.3c11.9,0,22.3,10.4,22.3,22.3v178.6C-1302.2,492.4-1312.6,502.8-1324.5,502.8z"/>
	<g>
		<path fill="#323232" d="M398.8,535.5L351.2,473c13.4-14.9,22.3-32.7,25.3-53.6c7.4-53.6-29.8-104.2-84.8-111.6
			c-55.1-7.4-104.2,29.8-111.6,84.8c-7.4,55.1,29.8,104.2,84.8,111.6c20.8,3,40.2-1.5,58-8.9l47.6,62.5c3,4.5,7.4,6,11.9,7.4
			c4.5,0,8.9,0,13.4-3C403.3,554.9,404.8,544.5,398.8,535.5z M330.4,443.3c-7.4,10.4-17.9,17.9-28.3,22.3c-8.9,3-19.3,4.5-29.8,3
			c-34.2-4.5-58-37.2-53.6-71.4c4.5-34.2,37.2-58,71.4-53.6c34.2,4.5,58,37.2,53.6,71.4C340.8,425.4,336.3,435.8,330.4,443.3z"/>
	</g>
	<g>
		<path d="M-10648.1,1968.7c4.5,0,7.4-3,7.4-7.4v-44.6c0-4.5-3-7.4-7.4-7.4c-4.5,0-7.4,3-7.4,7.4v44.6
			C-10655.5,1965.7-10652.5,1968.7-10648.1,1968.7z"/>
		<path d="M-10543.9,1968.7c4.5,0,7.4-3,7.4-7.4v-44.6c0-4.5-3-7.4-7.4-7.4c-4.5,0-7.4,3-7.4,7.4v44.6
			C-10551.3,1965.7-10548.4,1968.7-10543.9,1968.7z"/>
		<rect x="-10625.7" y="1938.9" width="59.5" height="14.9"/>
		<path d="M-10506.7,1938.9h-14.9v14.9h14.9c8.9,0,14.9,6,14.9,14.9v14.9h-208.3v-14.9c0-8.9,6-14.9,14.9-14.9h14.9v-14.9h-14.9
			c-16.4,0-29.8,13.4-29.8,29.8v148.8c0,16.4,13.4,29.8,29.8,29.8h178.6c16.4,0,29.8-13.4,29.8-29.8v-148.8
			C-10476.9,1952.3-10490.3,1938.9-10506.7,1938.9z M-10491.8,2117.5c0,8.9-6,14.9-14.9,14.9h-178.6c-8.9,0-14.9-6-14.9-14.9v-119.1
			h208.3V2117.5z"/>
		<path d="M-10663,2117.5h44.6c4.5,0,7.4-3,7.4-7.4c0-4.5-3-7.4-7.4-7.4h-37.2v-29.8h37.2c4.5,0,7.4-3,7.4-7.4v-44.6
			c0-4.5-3-7.4-7.4-7.4h-44.6c-4.5,0-7.4,3-7.4,7.4c0,4.5,3,7.4,7.4,7.4h37.2v29.8h-37.2c-4.5,0-7.4,3-7.4,7.4v44.6
			C-10670.4,2114.5-10667.4,2117.5-10663,2117.5z"/>
		<path d="M-10573.7,2102.6c-4.5,0-7.4,3-7.4,7.4c0,4.5,3,7.4,7.4,7.4h44.6c4.5,0,7.4-3,7.4-7.4v-44.6v-44.6c0-4.5-3-7.4-7.4-7.4
			h-44.6c-4.5,0-7.4,3-7.4,7.4c0,4.5,3,7.4,7.4,7.4h37.2v29.8h-37.2c-4.5,0-7.4,3-7.4,7.4c0,4.5,3,7.4,7.4,7.4h37.2v29.8H-10573.7z"
			/>
	</g>
	<path d="M-7033.2,2141.3c-3,0-4.5-1.5-6-3c-6-8.9-10.4-17.9-16.4-26.8c-29.8-50.6-50.6-86.3-50.6-119.1c0-40.2,32.7-72.9,72.9-72.9
		s72.9,32.7,72.9,72.9c0,32.7-20.8,69.9-50.6,119.1c-4.5,8.9-10.4,17.9-16.4,26.8C-7027.3,2139.8-7030.3,2141.3-7033.2,2141.3z
		 M-7033.2,1933c-32.7,0-58,26.8-58,58c0,29.8,20.8,64,49.1,111.6c3,4.5,6,10.4,8.9,16.4c3-6,6-10.4,8.9-16.4
		c28.3-47.6,49.1-83.3,49.1-111.6C-6973.7,1959.7-7000.5,1933-7033.2,1933z M-7033.2,2032.7c-23.8,0-41.7-19.3-41.7-41.7
		s19.3-41.7,41.7-41.7c22.3,0,41.7,19.3,41.7,41.7S-7009.4,2032.7-7033.2,2032.7z M-7033.2,1962.7c-14.9,0-26.8,11.9-26.8,26.8
		c0,14.9,11.9,26.8,26.8,26.8c14.9,0,26.8-11.9,26.8-26.8C-7006.4,1974.6-7018.4,1962.7-7033.2,1962.7z"/>
	<path d="M-8817.6,1924c53.6,0,96.7,43.2,96.7,96.7c0,53.6-43.2,96.7-96.7,96.7c-53.6,0-96.7-43.2-96.7-96.7
		S-8871.2,1924-8817.6,1924 M-8817.6,1909.1c-61,0-111.6,50.6-111.6,111.6s50.6,111.6,111.6,111.6c61,0,111.6-50.6,111.6-111.6
		C-8706,1959.7-8756.6,1909.1-8817.6,1909.1L-8817.6,1909.1z"/>
	<path d="M-8817.6,2035.6h-1.5l-59.5-16.4c-4.5-1.5-6-4.5-6-8.9c1.5-4.5,4.5-6,8.9-6l50.6,13.4v-64c0-4.5,3-7.4,7.4-7.4
		c4.5,0,7.4,3,7.4,7.4v74.4c0,3-1.5,4.5-3,6C-8814.6,2035.6-8816.1,2035.6-8817.6,2035.6z"/>
	<path d="M-5171.5,2139.8c-4.5,0-7.4-3-7.4-7.4v-50.6c0-22.3-14.9-43.2-37.2-49.1c-3-1.5-4.5-3-6-6c0-3,1.5-6,4.5-7.4
		c14.9-7.4,25.3-23.8,25.3-40.2c0-25.3-20.8-46.1-46.1-46.1c-25.3,0-46.1,20.8-46.1,46.1c0,22.3,6,34.2,17.9,40.2
		c3,1.5,4.5,4.5,4.5,7.4c0,3-3,6-6,6c-20.8,6-44.6,26.8-44.6,49.1v50.6c0,4.5-3,7.4-7.4,7.4s-7.4-3-7.4-7.4v-50.6
		c0-25.3,19.3-47.6,41.7-58c-11.9-13.4-13.4-31.3-13.4-46.1c0-34.2,26.8-61,61-61c34.2,0,61,26.8,61,61c0,17.9-7.4,34.2-20.8,46.1
		c20.8,11.9,34.2,34.2,34.2,58v50.6C-5164.1,2136.8-5167,2139.8-5171.5,2139.8z"/>
	<path fill="#FFFFFF" d="M-10576.6-4650.8c19.3-20.8,41.7-41.7,64-62.5c37.2-32.7,87.8-49.1,141.4-49.1
		c86.3,0,163.7,38.7,214.3,101.2v-1.5v-410.7c0-4.5-3-8.9-7.4-11.9c-4.5-1.5-10.4-1.5-13.4,3l-406.3,410.7c-3,3-4.5,8.9-3,13.4
		S-10581.1-4650.8-10576.6-4650.8z"/>
	<g>
		<g>
			<path fill="#FFFFFF" d="M-8722.3-4758c0,8.9,6,14.9,14.9,14.9h220.3c0-10.4,1.5-19.3,3-29.8h-223.2
				C-8716.4-4772.9-8722.3-4766.9-8722.3-4758z M-8393.4-5085.4h-342.3c-25.3,0-44.6,19.3-44.6,44.6v297.6
				c0,16.4-13.4,29.8-29.8,29.8s-29.8-13.4-29.8-29.8v-163.7h17.9c8.9,0,14.9-6,14.9-14.9s-6-14.9-14.9-14.9h-32.7
				c-8.9,0-14.9,6-14.9,14.9v178.6c0,32.7,26.8,59.5,59.5,59.5h340.8c-1.5-1.5-3-4.5-4.5-6c-4.5-7.4-7.4-14.9-10.4-23.8h-275.3
				c4.5-8.9,8.9-19.3,8.9-29.8v-297.6c0-8.9,6-14.9,14.9-14.9h342.3c8.9,0,14.9,6,14.9,14.9v183h1.5c8.9,0,19.3,1.5,28.3,3v-186
				C-8348.8-5066-8368.1-5085.4-8393.4-5085.4z M-8722.3-4817.5c0,8.9,6,14.9,14.9,14.9h235.1c6-11.9,14.9-20.8,25.3-29.8h-261.9
				C-8716.4-4832.4-8722.3-4826.4-8722.3-4817.5z M-8706-4877h104.2c8.9,0,14.9-6,14.9-14.9V-5011c0-8.9-6-14.9-14.9-14.9H-8706
				c-8.9,0-14.9,6-14.9,14.9v119.1C-8720.9-4883-8714.9-4877-8706-4877z M-8691.1-4996.1h74.4v89.3h-74.4V-4996.1z M-8424.7-4906.8
				h-119.1c-8.9,0-14.9,6-14.9,14.9s6,14.9,14.9,14.9h119.1c8.9,0,14.9-6,14.9-14.9S-8417.3-4906.8-8424.7-4906.8z M-8424.7-4966.3
				h-119.1c-8.9,0-14.9,6-14.9,14.9c0,8.9,6,14.9,14.9,14.9h119.1c8.9,0,14.9-6,14.9-14.9
				C-8409.8-4960.4-8417.3-4966.3-8424.7-4966.3z M-8424.7-5025.9h-119.1c-8.9,0-14.9,6-14.9,14.9s6,14.9,14.9,14.9h119.1
				c8.9,0,14.9-6,14.9-14.9S-8417.3-5025.9-8424.7-5025.9z"/>
		</g>
	</g>
	<polygon fill="none" points="1980.8,-1498.8 1936.1,-1567.3 1909.4,-1527.1 1930.2,-1498.8 	"/>
	<path fill="#FFFFFF" d="M1836.4-1484L1836.4-1484L1836.4-1484z"/>
	<g>
		<circle fill="#020202" cx="1848.3" cy="-1583.7" r="17.9"/>
		<path fill="#020202" d="M1994.2-1632.8c0-16.4-13.4-29.8-29.8-29.8h-148.8c-16.4,0-29.8,13.4-29.8,29.8v148.8
			c0,16.4,13.4,29.8,29.8,29.8h148.8c16.4,0,29.8-13.4,29.8-29.8l0,0V-1632.8z M1909.4-1527.1l28.3-40.2l28.3,43.2v10.4h-46.1
			L1909.4-1527.1z M1815.6-1617.9h148.8v67l-20.8-32.7c-1.5-1.5-3-3-6-3c-1.5,0-4.5,1.5-6,3l-31.3,44.6l-11.9-14.9c-1.5-1.5-3-3-6-3
			l0,0c-3,0-4.5,1.5-6,3l-31.3,41.7h-29.8V-1617.9z M1903.4-1513.7h-44.6l22.3-29.8L1903.4-1513.7z"/>
	</g>
	<path fill="#020202" d="M1933.2-1491.4c0-3-1.5-4.5-3-6l-1.5-1.5h-14.9l10.4,14.9l0,0l0,0C1930.2-1484,1933.2-1486.9,1933.2-1491.4
		z"/>
	<path fill="#020202" d="M1910.8-1498.8H1890h-17.9l-1.5,3c-1.5,3-1.5,6,0,7.4c1.5,3,4.5,4.5,6,4.5h50.6l-10.4-14.9H1910.8z"/>
	<rect x="1815.6" y="-1617.9" fill="none" width="148.8" height="104.2"/>
	<g>
		<path fill="#020202" d="M44.6-1588.1H29.8v29.8h14.9c8.9,0,14.9-6,14.9-14.9S53.6-1588.1,44.6-1588.1z"/>
		<path fill="#020202" d="M178.6-1662.5H29.8c-16.4,0-29.8,13.4-29.8,29.8v148.8c0,16.4,13.4,29.8,29.8,29.8h148.8
			c16.4,0,29.8-13.4,29.8-29.8v-148.8C208.3-1649.1,195-1662.5,178.6-1662.5z M89.3-1513.7h-7.4c-4.5,0-7.4-3-7.4-7.4v-52.1
			c0,16.4-13.4,29.8-29.8,29.8H29.8v22.3c0,4.5-3,7.4-7.4,7.4s-7.4-3-7.4-7.4v-22.3v-52.1c0-4.5,3-7.4,7.4-7.4h22.3
			c16.4,0,29.8,13.4,29.8,29.8v-22.3c0-4.5,3-7.4,7.4-7.4h7.4c25.3,0,44.6,19.3,44.6,44.6C133.9-1533.1,114.6-1513.7,89.3-1513.7z
			 M186-1558.4c4.5,0,7.4,3,7.4,7.4c0,4.5-3,7.4-7.4,7.4h-22.3v22.3c0,4.5-3,7.4-7.4,7.4c-4.5,0-7.4-3-7.4-7.4v-22.3v-14.9v-29.8
			v-7.4c0-4.5,3-7.4,7.4-7.4h7.4H186c4.5,0,7.4,3,7.4,7.4c0,4.5-3,7.4-7.4,7.4h-22.3v29.8H186z"/>
		<path fill="#020202" d="M89.3-1588.1L89.3-1588.1v59.5l0,0c17.9,0,31.3-11.9,31.3-29.8C120.5-1576.2,107.2-1588.1,89.3-1588.1z"/>
	</g>
</g>
</svg>
