<?xml version="1.0" encoding="utf-8"?>
<!-- Generator: Adobe Illustrator 18.1.1, SVG Export Plug-In . SVG Version: 6.00 Build 0)  -->
<svg version="1.1" id="Layer_1" xmlns="http://www.w3.org/2000/svg" xmlns:xlink="http://www.w3.org/1999/xlink" x="0px" y="0px"
	 viewBox="0 0 500 500" enable-background="new 0 0 500 500" xml:space="preserve">
<g id="edit" display="none">
	<g id="Clip" display="inline">
		<g>
			<path fill="#3E3E3E" d="M252.2,1c-67.9,0-124.6,56.7-124.6,124.6v280.6c0,52.1,43,92.8,92.8,92.8s92.8-43,92.8-92.8V125.6
				c0-34-27.2-63.3-63.3-63.3c-33.9,0-63.3,27.2-63.3,63.3v233.1c0,9,6.8,15.8,15.8,15.8c9,0,15.8-6.8,15.8-15.8V125.6
				c0-18,13.6-31.7,31.7-31.7c18,0,31.7,13.6,31.7,31.7v280.6c0,34-27.2,63.3-63.3,63.3c-34,0-63.3-27.2-63.3-63.3V125.6
				c0-52.1,43-92.8,92.8-92.8c49.9,0,92.8,43,92.8,92.8v233.1c0,9,6.8,15.8,15.8,15.8s15.8-6.8,15.8-15.8V125.6
				C376.8,57.7,320.1,1,252.2,1z"/>
		</g>
	</g>
</g>
<g id="統合">
	<g id="Clip_2_">
		<g>
			<path d="M252.2,0c-68.2,0-125.1,56.9-125.1,125.1v281.8c0,52.3,43.2,93.1,93.1,93.1s93.1-43.2,93.1-93.1V125.1
				c0-34.2-27.3-63.6-63.6-63.6c-34,0-63.6,27.3-63.6,63.6v234.1c0,9.1,6.8,15.9,15.9,15.9c9.1,0,15.9-6.8,15.9-15.9V125.1
				c0-18.1,13.7-31.8,31.8-31.8c18.1,0,31.8,13.7,31.8,31.8v281.8c0,34.2-27.3,63.6-63.6,63.6c-34.2,0-63.6-27.3-63.6-63.6V125.1
				c0-52.3,43.2-93.1,93.1-93.1c50.1,0,93.1,43.2,93.1,93.1v234.1c0,9.1,6.8,15.9,15.9,15.9c9.1,0,15.9-6.8,15.9-15.9V125.1
				C377.3,56.9,320.4,0,252.2,0z"/>
		</g>
	</g>
</g>
<g id="補足">
</g>
</svg>
