<?xml version="1.0" encoding="utf-8"?>
<!-- Generator: Adobe Illustrator 18.1.1, SVG Export Plug-In . SVG Version: 6.00 Build 0)  -->
<svg version="1.1" id="Layer_1" xmlns="http://www.w3.org/2000/svg" xmlns:xlink="http://www.w3.org/1999/xlink" x="0px" y="0px"
	 viewBox="-1775 -5296 613 506" enable-background="new -1775 -5296 613 506" xml:space="preserve">
<g id="edit" display="none">
	
		<path display="inline" fill="none" stroke="#000000" stroke-width="2" stroke-linecap="round" stroke-linejoin="round" stroke-miterlimit="10" d="
		M-1422.9-5280.3h-306c-16.8,0-30.6,13.8-30.6,30.6v214.2c0,16.8,13.8,30.6,30.6,30.6h45.9v76.5l76.5-76.5h183.6
		c16.8,0,30.6-13.8,30.6-30.6v-214.2C-1392.3-5266.5-1406.1-5280.3-1422.9-5280.3z"/>
	<path display="inline" fill="#FFFFFF" d="M-1343.3-4851.9h-125.5c-33.7,0-61.2-27.5-61.2-61.2v-183.6c0-33.7,27.5-61.2,61.2-61.2
		h260.1c33.7,0,61.2,27.5,61.2,61.2v183.6c0,33.7-27.5,61.2-61.2,61.2h-15.3v119.3L-1343.3-4851.9z"/>
	
		<path display="inline" stroke="#000000" stroke-width="2" stroke-linecap="round" stroke-linejoin="round" stroke-miterlimit="10" d="
		M-1208.7-5127.3h-260.1c-16.8,0-30.6,13.8-30.6,30.6v183.6c0,16.8,13.8,30.6,30.6,30.6h137.7l76.5,76.5v-76.5h45.9
		c16.8,0,30.6-13.8,30.6-30.6v-183.6C-1178.1-5113.5-1191.9-5127.3-1208.7-5127.3z"/>
	<path display="inline" fill="#FFFFFF" d="M-1254.6-4897.8v-41.3c0-16.8-13.8-35.2-29.1-35.2h-94.9c-16.8,0-29.1,18.4-29.1,35.2
		v41.3"/>
	<circle display="inline" fill="#FFFFFF" cx="-1331.1" cy="-5041.6" r="45.9"/>
</g>
<g id="統合">
	<path fill="#FFFFFF" d="M-1530-5020.2h-76.5c-4.6,0-7.7,1.5-10.7,4.6l-50.5,50.5v-39.8c0-9.2-6.1-15.3-15.3-15.3h-45.9
		c-9.2,0-15.3-6.1-15.3-15.3v-214.2c0-9.2,6.1-15.3,15.3-15.3h306c9.2,0,15.3,6.1,15.3,15.3v91.8h30.6v-91.8
		c0-26-19.9-45.9-45.9-45.9h-306c-26,0-45.9,19.9-45.9,45.9v214.2c0,26,19.9,45.9,45.9,45.9h30.6v61.2c0,6.1,3.1,12.2,9.2,13.8
		c1.5,1.5,4.6,1.5,6.1,1.5c4.6,0,7.7-1.5,10.7-4.6l71.9-71.9h70.4L-1530-5020.2L-1530-5020.2z"/>
	<path fill="#FFFFFF" d="M-1208.7-5142.6h-260.1c-26,0-45.9,19.9-45.9,45.9v183.6c0,26,19.9,45.9,45.9,45.9h131.6l71.9,71.9
		c3.1,3.1,6.1,4.6,10.7,4.6c1.5,0,4.6,0,6.1-1.5c6.1-3.1,9.2-7.7,9.2-13.8v-61.2h30.6c26,0,45.9-19.9,45.9-45.9v-183.6
		C-1162.8-5122.7-1182.7-5142.6-1208.7-5142.6z M-1331.1-5087.5c26,0,45.9,19.9,45.9,45.9s-19.9,45.9-45.9,45.9
		c-26,0-45.9-19.9-45.9-45.9S-1357.1-5087.5-1331.1-5087.5z M-1254.6-4897.8h-153v-41.3c0-16.8,13.8-35.2,29.1-35.2h94.9
		c16.8,0,29.1,18.4,29.1,35.2V-4897.8z"/>
</g>
<g id="補足">
</g>
</svg>
