<?xml version="1.0" encoding="utf-8"?>
<!-- Generator: Adobe Illustrator 18.1.1, SVG Export Plug-In . SVG Version: 6.00 Build 0)  -->
<!DOCTYPE svg PUBLIC "-//W3C//DTD SVG 1.1//EN" "http://www.w3.org/Graphics/SVG/1.1/DTD/svg11.dtd">
<svg version="1.1" xmlns="http://www.w3.org/2000/svg" xmlns:xlink="http://www.w3.org/1999/xlink" x="0px" y="0px"
	 viewBox="0 0 19.5 19.5" enable-background="new 0 0 19.5 19.5" xml:space="preserve">
<g id="base">
</g>
<g id="header">
</g>
<g id="h1求人詳細用" display="none">
</g>
<g id="main">
</g>
<g id="global_navigation">
	<g>
		<path fill="none" stroke="#333333" stroke-width="1.5" stroke-miterlimit="10" d="M18.8,11.1V8.4c0-0.2-0.2-0.3-0.3-0.3h-1.3
			c-0.2,0-0.3-0.1-0.3-0.2c-0.2-0.6-0.4-1.2-0.7-1.7C16,6,16,5.8,16.2,5.7l0.9-0.9c0.1-0.1,0.1-0.3,0-0.5l-1.9-1.9
			c-0.1-0.1-0.3-0.1-0.5,0l-0.9,0.9c-0.1,0.1-0.3,0.1-0.4,0.1c-0.5-0.3-1.1-0.5-1.7-0.7c-0.1,0-0.2-0.2-0.2-0.3V1.1
			c0-0.2-0.2-0.3-0.3-0.3H8.4c-0.2,0-0.3,0.2-0.3,0.3v1.3c0,0.2-0.1,0.3-0.2,0.3C7.2,2.9,6.7,3.1,6.1,3.4C6,3.5,5.8,3.5,5.7,3.3
			L4.8,2.4c-0.1-0.1-0.3-0.1-0.5,0L2.4,4.3c-0.1,0.1-0.1,0.3,0,0.5l0.9,0.9C3.5,5.8,3.5,6,3.4,6.1C3.1,6.7,2.9,7.2,2.7,7.8
			c0,0.1-0.2,0.2-0.3,0.2H1.1c-0.2,0-0.3,0.2-0.3,0.3v2.7c0,0.2,0.2,0.3,0.3,0.3h1.3c0.2,0,0.3,0.1,0.3,0.2c0.2,0.6,0.4,1.2,0.7,1.7
			c0.1,0.1,0.1,0.3-0.1,0.4l-0.9,0.9c-0.1,0.1-0.1,0.3,0,0.5l1.9,1.9c0.1,0.1,0.3,0.1,0.5,0l0.9-0.9C5.8,16,6,16,6.1,16.1
			c0.5,0.3,1.1,0.5,1.7,0.7c0.1,0,0.2,0.2,0.2,0.3v1.3c0,0.2,0.2,0.3,0.3,0.3h2.7c0.2,0,0.3-0.2,0.3-0.3v-1.3c0-0.2,0.1-0.3,0.2-0.3
			c0.6-0.2,1.2-0.4,1.7-0.7c0.1-0.1,0.3-0.1,0.4,0.1l0.9,0.9c0.1,0.1,0.3,0.1,0.5,0l1.9-1.9c0.1-0.1,0.1-0.3,0-0.5l-0.9-0.9
			c-0.1-0.1-0.1-0.3-0.1-0.4c0.3-0.5,0.5-1.1,0.7-1.7c0-0.1,0.2-0.2,0.3-0.2h1.3C18.6,11.4,18.8,11.3,18.8,11.1z"/>
		
			<circle fill="none" stroke="#333333" stroke-width="1.5" stroke-linejoin="round" stroke-miterlimit="10" cx="9.8" cy="9.8" r="2.5"/>
	</g>
</g>
<g id="headding">
</g>
<g id="hover" display="none">
	<g id="h1_1_" display="inline">
	</g>
	<g id="help" display="inline">
	</g>
</g>
<g id="レイヤー_3">
</g>
<g id="guide">
</g>
<g id="header_1_">
	<g id="hover_1_">
	</g>
</g>
</svg>
