<?xml version="1.0" encoding="utf-8"?>
<!-- Generator: Adobe Illustrator 18.1.1, SVG Export Plug-In . SVG Version: 6.00 Build 0)  -->
<svg version="1.1" id="Layer_1" xmlns="http://www.w3.org/2000/svg" xmlns:xlink="http://www.w3.org/1999/xlink" x="0px" y="0px"
	 viewBox="-1837 -1747 216 216" enable-background="new -1837 -1747 216 216" xml:space="preserve">
<g id="edit" display="none">
	<path display="inline" fill="#020202" d="M-1652.4-1531.8h-153c-16.8,0-30.6-13.8-30.6-30.6v-153c0-16.8,13.8-30.6,30.6-30.6h153
		c16.8,0,30.6,13.8,30.6,30.6v153C-1621.8-1545.6-1635.6-1531.8-1652.4-1531.8z"/>
	<line display="inline" fill="none" stroke="#FFFFFF" stroke-miterlimit="10" x1="-1836" y1="-1677.2" x2="-1621.8" y2="-1677.2"/>
	<line display="inline" fill="none" stroke="#FFFFFF" stroke-miterlimit="10" x1="-1836" y1="-1600.7" x2="-1621.8" y2="-1600.7"/>
	<line display="inline" fill="none" stroke="#FFFFFF" stroke-miterlimit="10" x1="-1767.2" y1="-1746" x2="-1767.2" y2="-1531.8"/>
</g>
<g id="統合">
	<g>
		<path fill="#020202" d="M-1836-1593v30.6c0,16.8,13.8,30.6,30.6,30.6h30.6v-61.2H-1836z"/>
		<rect x="-1836" y="-1669.5" fill="#020202" width="61.2" height="61.2"/>
		<path fill="#020202" d="M-1774.8-1746h-30.6c-16.8,0-30.6,13.8-30.6,30.6v30.6h61.2V-1746z"/>
		<path fill="#020202" d="M-1652.4-1746h-107.1v61.2h137.7v-30.6C-1621.8-1732.2-1635.6-1746-1652.4-1746z"/>
		<path fill="#020202" d="M-1759.5-1531.8h107.1c16.8,0,30.6-13.8,30.6-30.6v-30.6h-137.7V-1531.8z"/>
		<rect x="-1759.5" y="-1669.5" fill="#020202" width="137.7" height="61.2"/>
	</g>
</g>
<g id="補足">
</g>
</svg>
