<?xml version="1.0" encoding="utf-8"?>
<!-- Generator: Adobe Illustrator 18.1.1, SVG Export Plug-In . SVG Version: 6.00 Build 0)  -->
<svg version="1.1" id="Layer_1" xmlns="http://www.w3.org/2000/svg" xmlns:xlink="http://www.w3.org/1999/xlink" x="0px" y="0px"
	 viewBox="-5368 -5311 460 521" enable-background="new -5368 -5311 460 521" xml:space="preserve">
<g id="edit" display="none">
	<g display="inline">
		
			<circle fill="none" stroke="#000000" stroke-width="2" stroke-linecap="round" stroke-linejoin="round" stroke-miterlimit="10" cx="-5140.8" cy="-5170.1" r="45.9"/>
		<path fill="none" stroke="#000000" stroke-width="2" stroke-linecap="round" stroke-linejoin="round" stroke-miterlimit="10" d="
			M-5094.9-4867.2v-73.4c15.3,0,30.6-13.8,30.6-29.1v-82.6c0-16.8-13.8-29.1-29.1-29.1h-94.9c-16.8,0-29.1,13.8-29.1,29.1v82.6
			c0,16.8,15.3,29.1,30.6,29.1v73.4"/>
	</g>
	<g display="inline">
		<path fill="none" stroke="#000000" stroke-width="2" stroke-linecap="round" stroke-linejoin="round" stroke-miterlimit="10" d="
			M-5355-5203.8v359.6c0,16.8,12.2,38.2,29.1,38.2h367.2c16.8,0,32.1-21.4,32.1-38.2v-428.4c0-16.8-15.3-23-32.1-23h-289.2"/>
		<path fill="none" stroke="#000000" stroke-width="2" stroke-linecap="round" stroke-linejoin="round" stroke-miterlimit="10" d="
			M-5309.1-5173.2h30.6c16.8,0,30.6-13.8,30.6-30.6v-91.8l-107.1,91.8"/>
	</g>
</g>
<g id="統合">
	<g>
		<path fill="#FFFFFF" d="M-5140.8-5108.9c33.7,0,61.2-27.5,61.2-61.2c0-33.7-27.5-61.2-61.2-61.2c-33.7,0-61.2,27.5-61.2,61.2
			C-5202-5136.5-5174.5-5108.9-5140.8-5108.9z M-5140.8-5200.7c16.8,0,30.6,13.8,30.6,30.6c0,16.8-13.8,30.6-30.6,30.6
			c-16.8,0-30.6-13.8-30.6-30.6C-5171.4-5187-5157.6-5200.7-5140.8-5200.7z"/>
		<path fill="#FFFFFF" d="M-5093.4-5096.7h-94.9c-24.5,0-44.4,19.9-44.4,44.4v82.6c0,18.4,13.8,35.2,30.6,41.3v59.7
			c0,9.2,6.1,15.3,15.3,15.3s15.3-6.1,15.3-15.3v-73.4c0-9.2-6.1-15.3-15.3-15.3c-7.6,0-15.3-6.1-15.3-13.8v-82.6
			c0-7.6,6.1-13.8,13.8-13.8h94.9c7.7,0,13.8,6.1,13.8,13.8v82.6c0,7.6-7.6,13.8-15.3,13.8c-9.2,0-15.3,6.1-15.3,15.3v73.4
			c0,9.2,6.1,15.3,15.3,15.3s15.3-6.1,15.3-15.3v-59.7c16.8-6.1,30.6-23,30.6-41.3v-82.6C-5049-5076.8-5068.9-5096.7-5093.4-5096.7z
			"/>
		<path fill="#FFFFFF" d="M-4958.7-5310.9h-289.2l0,0c-1.5,0-3.1,0-4.6,1.5l0,0c-1.5,0-3.1,1.5-4.6,3.1l-107.1,91.8l0,0
			c-1.5,0-1.5,1.5-1.5,3.1l-1.5,1.5c0,1.5,0,1.5,0,3.1s0,1.5,0,3.1l0,0v359.6c0,26,18.4,53.5,44.4,53.5h367.2
			c26,0,47.4-29.1,47.4-53.5v-428.4C-4911.3-5295.6-4929.7-5310.9-4958.7-5310.9z M-4941.9-4844.2c0,9.2-9.2,22.9-16.8,22.9h-367.2
			c-6.1,0-13.8-12.2-13.8-22.9v-351.9l76.5-65.8v58.1c0,9.2-6.1,15.3-15.3,15.3h-30.6c-9.2,0-15.3,6.1-15.3,15.3s6.1,15.3,15.3,15.3
			h30.6c26,0,45.9-19.9,45.9-45.9v-76.5h273.9c7.6,0,16.8,1.5,16.8,7.7V-4844.2z"/>
	</g>
</g>
<g id="補足">
</g>
</svg>
