<?xml version="1.0" encoding="utf-8"?>
<!-- Generator: Adobe Illustrator 18.1.1, SVG Export Plug-In . SVG Version: 6.00 Build 0)  -->
<svg version="1.1" id="レイヤー_1" xmlns="http://www.w3.org/2000/svg" xmlns:xlink="http://www.w3.org/1999/xlink" x="0px"
	 y="0px" viewBox="0 0 438.2 50.1" enable-background="new 0 0 438.2 50.1" xml:space="preserve">
<g>
	<path fill="#F46F50" d="M1.2,46.9c2.1-2.3,4.4-4.5,6.9-6.7c3.9-3.6,9.5-5.2,15.2-5.2c9.3,0,17.6,4.2,23.1,10.9c0-0.1,0-0.2,0-0.2
		V1.3c0-0.5-0.3-1-0.8-1.2c-0.5-0.2-1.1-0.1-1.4,0.3L0.4,44.6c-0.4,0.4-0.5,1-0.3,1.4C0.3,46.5,0.7,46.8,1.2,46.9z"/>
	<g>
		<path fill="#3F3F3F" d="M87.5,9.6L87.5,9.6C87.5,9.6,87.5,9.6,87.5,9.6H63.4v4.7h17.7c-2.8,10.4-12.8,17-20.2,20.6l2.6,4.4
			c6.9-3.2,11.2-6.4,15-10.5c3.6,3.7,7.2,7.7,9.4,10.4l3.8-3.6c-2.5-3.2-5.8-6.8-9.9-10.8C85.8,19.5,87.5,12.6,87.5,9.6z"/>
		<path fill="#3F3F3F" d="M142.9,15.5c-3.4-2.6-6.8-4.9-10-6.9l-3.1,4c3.2,2.1,6.6,4.5,10,7.1L142.9,15.5z"/>
		<path fill="#3F3F3F" d="M161.9,34.7l4.5,4.1c2.2-3.4,4-6.9,5.2-10.4c1.7-4.9,3-11.2,3.8-18.8l-5.4-0.9
			C168.9,20,166.2,28.7,161.9,34.7z"/>
		<path fill="#3F3F3F" d="M182,9.6c0.8,7.6,2.1,13.8,3.8,18.8c1.2,3.6,3,7,5.2,10.4l4.5-4.1c-4.3-6-7-14.7-8-26L182,9.6z"/>
		<path fill="#3F3F3F" d="M224.5,6.9c-5.9,7-14.4,12.1-25.4,15.5l2.9,5c5-1.9,9.1-3.8,12.4-5.6v17h5.1V18.4c3.5-2.6,6.6-5.3,9.4-8.2
			L224.5,6.9z"/>
		<rect x="190.6" y="6.5" fill="#3F3F3F" width="3.1" height="6.9"/>
		<rect x="194.9" y="6.5" fill="#3F3F3F" width="3.1" height="6.9"/>
		<path fill="#3F3F3F" d="M93.3,22.4l3.4,3.6c1.6-1.4,3.1-2.9,4.4-4.4l10.7,6.6c-3.3,2.8-8,5-14.8,6.5l2.1,5
			c5.5-1.4,13-3.5,18.5-9.2c4.9-5.7,6.1-14.2,6.5-21.1h-22.1C100.5,14,97.9,18.5,93.3,22.4z M106.1,14.1h12.6
			c-0.5,3.8-1.5,7.3-3.4,10.2l-11-6.7C104.9,16.6,105.5,15.4,106.1,14.1z"/>
		<path fill="#3F3F3F" d="M130.2,32.5l1.3,5.6c9.5-1,25.2-3.5,29.5-23.6l-4.9-1.7C153.9,22.8,147.6,31,130.2,32.5z"/>
	</g>
	<g>
		<path fill="#3F3F3F" d="M240.2,8.5h9.1c0.4,0,1,0,1.7,0c0.7,0,1.5,0.1,2.3,0.3c0.8,0.1,1.6,0.4,2.5,0.7c0.8,0.3,1.6,0.8,2.3,1.4
			c0.7,0.6,1.2,1.4,1.7,2.3c0.4,0.9,0.7,2.1,0.7,3.4c0,1.5-0.3,2.7-0.8,3.7c-0.5,1-1.2,1.7-1.9,2.3c-0.8,0.6-1.6,1-2.6,1.3
			c-0.9,0.3-1.8,0.5-2.7,0.6l9,14.8h-3.3l-8.7-14.7h-6.4v14.7h-2.9V8.5z M243.1,22.1h7.1c1.5,0,2.7-0.2,3.7-0.6
			c0.9-0.4,1.7-0.8,2.2-1.4c0.5-0.6,0.9-1.1,1.1-1.8c0.2-0.6,0.3-1.2,0.3-1.7s-0.1-1.1-0.3-1.7c-0.2-0.6-0.5-1.2-1.1-1.8
			c-0.5-0.6-1.3-1-2.2-1.4c-0.9-0.4-2.2-0.6-3.7-0.6h-7.1V22.1z"/>
		<path fill="#3F3F3F" d="M284.2,35.3c-1,1.5-2.3,2.6-3.8,3.3c-1.5,0.7-3.2,1-5,1c-1.5,0-2.9-0.3-4.2-0.8c-1.3-0.5-2.3-1.3-3.2-2.2
			c-0.9-0.9-1.6-2.1-2.1-3.4c-0.5-1.3-0.7-2.7-0.7-4.3c0-1.5,0.2-2.9,0.7-4.2c0.5-1.3,1.2-2.4,2.1-3.3c0.9-0.9,2-1.7,3.2-2.2
			c1.2-0.5,2.6-0.8,4.1-0.8c1.5,0,2.9,0.3,4.1,0.8c1.2,0.5,2.2,1.3,3,2.1c0.8,0.9,1.4,1.9,1.8,3s0.6,2.3,0.6,3.4v1.8h-16.9
			c0,0.6,0.1,1.3,0.3,2.1c0.2,0.9,0.6,1.7,1.2,2.5c0.6,0.8,1.4,1.5,2.3,2.1s2.2,0.9,3.8,0.9c1.3,0,2.6-0.3,3.9-1
			c1.2-0.6,2.2-1.5,2.9-2.6L284.2,35.3z M282.2,27.3c0-0.9-0.2-1.7-0.5-2.5c-0.4-0.8-0.9-1.5-1.5-2.1c-0.6-0.6-1.4-1.1-2.2-1.4
			s-1.8-0.5-2.7-0.5c-1.4,0-2.6,0.3-3.6,0.9c-0.9,0.6-1.7,1.3-2.2,2c-0.6,0.8-0.9,1.5-1.2,2.2c-0.2,0.7-0.3,1.2-0.3,1.5H282.2z"/>
		<path fill="#3F3F3F" d="M307.7,36.1c-1,1.2-2.1,2.1-3.4,2.6c-1.3,0.6-2.6,0.9-4.1,0.9c-1.5,0-3-0.3-4.3-0.8
			c-1.3-0.5-2.4-1.3-3.4-2.2c-0.9-0.9-1.7-2.1-2.2-3.4c-0.5-1.3-0.8-2.7-0.8-4.3c0-1.5,0.3-3,0.8-4.3c0.5-1.3,1.3-2.4,2.2-3.4
			c0.9-0.9,2.1-1.7,3.4-2.2s2.7-0.8,4.3-0.8c1.5,0,2.9,0.3,4.1,0.9c1.3,0.6,2.4,1.5,3.4,2.6l-2.1,1.6c-0.8-0.8-1.6-1.5-2.5-2
			c-0.9-0.5-1.9-0.7-2.9-0.7c-1.2,0-2.3,0.2-3.3,0.7s-1.8,1-2.5,1.8c-0.7,0.7-1.2,1.6-1.6,2.6c-0.4,1-0.5,2.1-0.5,3.2
			s0.2,2.2,0.5,3.2c0.4,1,0.9,1.9,1.6,2.6s1.5,1.3,2.5,1.8c1,0.4,2.1,0.7,3.3,0.7c1.1,0,2.1-0.3,3-0.8c0.9-0.5,1.7-1.2,2.4-2
			L307.7,36.1z"/>
		<path fill="#3F3F3F" d="M354.6,11.2c0-0.6,0.2-1,0.6-1.4c0.4-0.4,0.8-0.6,1.4-0.6c0.6,0,1,0.2,1.4,0.6c0.4,0.4,0.6,0.8,0.6,1.4
			c0,0.6-0.2,1-0.6,1.4c-0.4,0.4-0.8,0.6-1.4,0.6c-0.6,0-1-0.2-1.4-0.6C354.8,12.2,354.6,11.8,354.6,11.2z M355.3,18.5h2.6v20.9
			h-2.6V18.5z"/>
		<path fill="#3F3F3F" d="M382.8,11.2c0-0.6,0.2-1,0.6-1.4c0.4-0.4,0.8-0.6,1.4-0.6c0.6,0,1,0.2,1.4,0.6c0.4,0.4,0.6,0.8,0.6,1.4
			c0,0.6-0.2,1-0.6,1.4c-0.4,0.4-0.8,0.6-1.4,0.6c-0.6,0-1-0.2-1.4-0.6C383,12.2,382.8,11.8,382.8,11.2z M383.5,18.5h2.6v20.9h-2.6
			V18.5z"/>
		<path fill="#3F3F3F" d="M438.2,38.3c0,2.5-0.4,4.5-1.1,6.1c-0.7,1.5-1.6,2.7-2.7,3.6c-1.1,0.8-2.3,1.4-3.5,1.7s-2.4,0.4-3.4,0.4
			c-1,0-2-0.1-3-0.3c-1-0.2-1.9-0.5-2.8-0.8c-0.9-0.4-1.7-0.8-2.4-1.3c-0.7-0.5-1.3-1.1-1.9-1.8l2.1-1.9c0.9,1.3,2.1,2.3,3.5,2.9
			c1.4,0.6,2.9,0.9,4.5,0.9c1.3,0,2.5-0.2,3.4-0.5c0.9-0.3,1.7-0.8,2.3-1.4s1.1-1.2,1.4-1.9c0.3-0.7,0.6-1.4,0.7-2.1
			c0.2-0.7,0.3-1.3,0.3-1.9c0-0.6,0-1.1,0-1.5v-2.8h-0.1c-0.8,1.2-1.8,2.2-3.1,2.9s-2.8,1-4.6,1c-1.5,0-2.9-0.3-4.2-0.8
			c-1.3-0.5-2.5-1.3-3.4-2.2c-1-0.9-1.7-2-2.3-3.3c-0.6-1.3-0.9-2.6-0.9-4c0-1.4,0.3-2.8,0.9-4c0.6-1.3,1.3-2.3,2.3-3.3
			c1-0.9,2.1-1.7,3.4-2.2c1.3-0.6,2.7-0.8,4.2-0.8c1.7,0,3.3,0.3,4.6,1c1.3,0.7,2.3,1.7,3.1,2.9h0.1v-4.4h2.6V38.3z M435.7,29.3
			c0-1.1-0.2-2.1-0.6-3.1c-0.4-1-1-1.8-1.7-2.5c-0.7-0.7-1.6-1.3-2.5-1.7c-1-0.4-2-0.6-3.1-0.6s-2.1,0.2-3.1,0.6
			c-1,0.4-1.8,1-2.5,1.7c-0.7,0.7-1.3,1.6-1.7,2.5c-0.4,1-0.6,2-0.6,3.1c0,1.1,0.2,2.1,0.6,3.1c0.4,1,1,1.8,1.7,2.5
			c0.7,0.7,1.6,1.3,2.5,1.7c1,0.4,2,0.6,3.1,0.6s2.1-0.2,3.1-0.6c1-0.4,1.8-1,2.5-1.7c0.7-0.7,1.3-1.6,1.7-2.5
			C435.5,31.4,435.7,30.4,435.7,29.3z"/>
		<polygon fill="#3F3F3F" points="371.6,20.8 377.4,20.8 377.4,18.5 371.6,18.5 371.6,12.6 369,12.6 369,18.5 363.2,18.5 
			363.2,20.8 369,20.8 369,39.4 371.6,39.4 		"/>
		<path fill="#3F3F3F" d="M403.1,18.5L403.1,18.5c-2.4,0-4.6,1-6.1,2.5v-2.5h-2.6v8.7v12.2h2.6V27.2c0-3.4,2.7-6.1,6.1-6.1h0.1
			c3.4,0,6.1,2.7,6.1,6.1v12.2h2.6V27.2C411.8,22.4,407.9,18.5,403.1,18.5z"/>
		<path fill="#3F3F3F" d="M322.3,18.5c-2.4,0-4.5,1-6.1,2.5v-2.5h-2.6v20.9h2.6V27.2c0-3.4,2.7-6.1,6.1-6.1h1.7v-2.6H322.3z"/>
		<path fill="#3F3F3F" d="M346.8,18.7L346.8,18.7h-2.6h0v12.2c0,3.4-2.7,6.1-6.1,6.1h-0.1c-3.4,0-6.1-2.7-6.1-6.1V18.7h-2.6v12.2
			c0,4.8,3.9,8.7,8.7,8.7h0.1c2.4,0,4.5-1,6.1-2.5v2.3h2.6v-8.5l0,0V18.7z"/>
	</g>
</g>
</svg>
