<?xml version="1.0" encoding="utf-8"?>
<!-- Generator: Adobe Illustrator 18.1.1, SVG Export Plug-In . SVG Version: 6.00 Build 0)  -->
<!DOCTYPE svg PUBLIC "-//W3C//DTD SVG 1.1//EN" "http://www.w3.org/Graphics/SVG/1.1/DTD/svg11.dtd">
<svg version="1.1" xmlns="http://www.w3.org/2000/svg" xmlns:xlink="http://www.w3.org/1999/xlink" x="0px" y="0px"
	 viewBox="0 0 10.9 10" enable-background="new 0 0 10.9 10" xml:space="preserve">
<g id="base">
</g>
<g id="header">
</g>
<g id="h1求人詳細用" display="none">
</g>
<g id="main">
</g>
<g id="global_navigation">
	<path fill="#38B0E1" d="M10.3,10C10,10,9.8,9.8,9.8,9.5V4.3H1.6H1.4l3.1,3.1c0.2,0.2,0.2,0.5,0,0.7C4.3,8.3,4,8.3,3.8,8.1L0.1,4.5
		C0.1,4.4,0,4.3,0,4.1c0-0.2,0.1-0.3,0.1-0.4l3.6-3.6C4,0,4.3,0,4.5,0.1c0.2,0.1,0.2,0.5,0,0.7L2.1,3.3h8.3c0.3,0,0.5,0.2,0.5,0.5
		v5.7C10.9,9.8,10.6,10,10.3,10z"/>
</g>
<g id="headding">
</g>
<g id="hover" display="none">
	<g id="h1_1_" display="inline">
	</g>
	<g id="help" display="inline">
	</g>
</g>
<g id="レイヤー_3">
</g>
<g id="guide">
</g>
<g id="header_1_">
	<g id="hover_1_">
	</g>
</g>
</svg>
