<?xml version="1.0" encoding="utf-8"?>
<!-- Generator: Adobe Illustrator 18.1.1, SVG Export Plug-In . SVG Version: 6.00 Build 0)  -->
<svg version="1.1" id="Layer_1" xmlns="http://www.w3.org/2000/svg" xmlns:xlink="http://www.w3.org/1999/xlink" x="0px" y="0px"
	 viewBox="-3673 -1747 216 216" enable-background="new -3673 -1747 216 216" xml:space="preserve">
<g id="edit" display="none">
	<path display="inline" fill="#020202" d="M-3488.4-1531.8h-153c-16.8,0-30.6-13.8-30.6-30.6v-153c0-16.8,13.8-30.6,30.6-30.6h153
		c16.8,0,30.6,13.8,30.6,30.6v153C-3457.8-1545.6-3471.6-1531.8-3488.4-1531.8z"/>
	
		<line display="inline" fill="none" stroke="#FFFFFF" stroke-miterlimit="10" x1="-3641.4" y1="-1600.7" x2="-3488.4" y2="-1600.7"/>
	
		<line display="inline" fill="none" stroke="#FFFFFF" stroke-miterlimit="10" x1="-3641.4" y1="-1570.1" x2="-3488.4" y2="-1570.1"/>
	
		<text transform="matrix(1 0 0 1 -3622.9624 -1629.3386)" display="inline" fill="#FFFFFF" font-family="'Avenir-Medium'" font-size="153">w</text>
</g>
<g id="統合">
	<path fill="#020202" d="M-3488.4-1746h-153c-16.8,0-30.6,13.8-30.6,30.6v153c0,16.8,13.8,30.6,30.6,30.6h153
		c16.8,0,30.6-13.8,30.6-30.6v-153C-3457.8-1732.2-3471.6-1746-3488.4-1746z M-3606.2-1700.1l16.8,45.9l0,0l16.8-45.9h15.3
		l18.4,45.9l0,0l15.3-45.9h15.3l-22.9,76.5h-13.8l-19.9-61.2l0,0l-16.8,61.2h-15.3l-24.5-76.5H-3606.2z M-3488.4-1562.4h-153v-15.3
		h153V-1562.4z M-3488.4-1593h-153v-15.3h153V-1593z"/>
</g>
<g id="補足">
</g>
</svg>
