<?xml version="1.0" encoding="utf-8"?>
<!-- Generator: Adobe Illustrator 18.1.1, SVG Export Plug-In . SVG Version: 6.00 Build 0)  -->
<svg version="1.1" id="Layer_1" xmlns="http://www.w3.org/2000/svg" xmlns:xlink="http://www.w3.org/1999/xlink" x="0px" y="0px"
	 viewBox="-9150 -3491 552 460" enable-background="new -9150 -3491 552 460" xml:space="preserve">
<g id="edit" display="none">
	<g display="inline">
		<path fill="none" stroke="#000000" stroke-width="2" stroke-linecap="round" stroke-linejoin="round" stroke-miterlimit="10" d="
			M-8644.5-3123h-459c-16.8,0-30.6-13.8-30.6-30.6v-290.7c0-16.8,13.8-30.6,30.6-30.6h459c16.8,0,30.6,13.8,30.6,30.6v290.7
			C-8613.9-3136.8-8627.7-3123-8644.5-3123z"/>
		
			<line fill="none" stroke="#000000" stroke-width="2" stroke-linecap="round" stroke-linejoin="round" stroke-miterlimit="10" x1="-8996.4" y1="-3046.5" x2="-8751.6" y2="-3046.5"/>
		<g>
			
				<line fill="none" stroke="#000000" stroke-width="2" stroke-linejoin="round" stroke-miterlimit="10" x1="-8904.6" y1="-3123" x2="-8904.6" y2="-3046.5"/>
			
				<line fill="none" stroke="#000000" stroke-width="2" stroke-linejoin="round" stroke-miterlimit="10" x1="-8843.4" y1="-3123" x2="-8843.4" y2="-3046.5"/>
		</g>
	</g>
</g>
<g id="統合">
	<g>
		<path d="M-8644.5-3107.7h-459c-26,0-45.9-19.9-45.9-45.9v-290.7c0-26,19.9-45.9,45.9-45.9h459c26,0,45.9,19.9,45.9,45.9v290.7
			C-8598.6-3127.6-8618.5-3107.7-8644.5-3107.7z M-9103.5-3459.6c-9.2,0-15.3,6.1-15.3,15.3v290.7c0,9.2,6.1,15.3,15.3,15.3h459
			c9.2,0,15.3-6.1,15.3-15.3v-290.7c0-9.2-6.1-15.3-15.3-15.3H-9103.5z"/>
		<path d="M-8751.6-3031.2h-244.8c-9.2,0-15.3-6.1-15.3-15.3s6.1-15.3,15.3-15.3h244.8c9.2,0,15.3,6.1,15.3,15.3
			S-8742.4-3031.2-8751.6-3031.2z"/>
		<g>
			<rect x="-8919.9" y="-3123" width="30.6" height="76.5"/>
			<rect x="-8858.7" y="-3123" width="30.6" height="76.5"/>
		</g>
	</g>
</g>
<g id="補足">
</g>
</svg>
