<?xml version="1.0" encoding="utf-8"?>
<!-- Generator: Adobe Illustrator 18.1.1, SVG Export Plug-In . SVG Version: 6.00 Build 0)  -->
<svg version="1.1" id="Layer_1" xmlns="http://www.w3.org/2000/svg" xmlns:xlink="http://www.w3.org/1999/xlink" x="0px" y="0px"
	 viewBox="1836 -1747 215 216" enable-background="new 1836 -1747 215 216" xml:space="preserve">
<g id="edit" display="none">
	<path display="inline" fill="#020202" d="M2019.6-1531.8h-153c-16.8,0-30.6-13.8-30.6-30.6v-153c0-16.8,13.8-30.6,30.6-30.6h153
		c16.8,0,30.6,13.8,30.6,30.6v153C2050.2-1545.6,2036.4-1531.8,2019.6-1531.8z"/>
	<g display="inline">
		<path fill="#FFFFFF" d="M1859-1593L1859-1593c-4.6,0-7.7-3.1-7.7-7.7v-76.5c0-4.6,3.1-7.7,7.7-7.7l0,0c4.6,0,7.6,3.1,7.6,7.7v76.5
			C1866.6-1596.1,1863.5-1593,1859-1593z"/>
		<path fill="#FFFFFF" d="M1996.7-1593L1996.7-1593c-4.6,0-7.7-3.1-7.7-7.7v-76.5c0-4.6,3.1-7.7,7.7-7.7h7.7v84.2
			C2004.3-1596.1,2001.2-1593,1996.7-1593z"/>
		<g>
			<path fill="#FFFFFF" d="M1881.9-1669.5c9.2,0,15.3,6.1,15.3,15.3c0,9.2-6.1,15.3-15.3,15.3h-15.3v-30.6H1881.9 M1881.9-1684.8
				H1859c-4.6,0-7.7,3.1-7.7,7.7v53.6h30.6c16.8,0,30.6-13.8,30.6-30.6C1912.5-1671,1898.7-1684.8,1881.9-1684.8L1881.9-1684.8z"/>
		</g>
		<g>
			<g>
				<path fill="#FFFFFF" d="M1927.8-1671c18.4,0,32.1,13.8,32.1,32.1s-13.8,32.1-32.1,32.1h-1.5v-64.3H1927.8 M1927.8-1684.8h-7.7
					c-4.6,0-7.7,3.1-7.7,7.7v76.5c0,4.6,3.1,7.7,7.7,7.7h7.7c26,0,45.9-19.9,45.9-45.9S1953.8-1684.8,1927.8-1684.8L1927.8-1684.8z"
					/>
			</g>
		</g>
		<path fill="#FFFFFF" d="M2027.2-1669.5H1989v-7.7c0-4.6,3.1-7.7,7.7-7.7h30.6c4.6,0,7.7,3.1,7.7,7.7l0,0
			C2034.9-1672.6,2031.8-1669.5,2027.2-1669.5z"/>
		<path fill="#FFFFFF" d="M2027.2-1623.6H1989v-15.3h38.2c4.6,0,7.7,3.1,7.7,7.7l0,0C2034.9-1626.7,2031.8-1623.6,2027.2-1623.6z"/>
	</g>
</g>
<g id="統合">
	<g>
		<path fill="#020202" d="M1881.9-1669.5h-15.3v30.6h15.3c9.2,0,15.3-6.1,15.3-15.3C1897.2-1663.4,1891.1-1669.5,1881.9-1669.5z"/>
		<path fill="#020202" d="M2019.6-1746h-153c-16.8,0-30.6,13.8-30.6,30.6v153c0,16.8,13.8,30.6,30.6,30.6h153
			c16.8,0,30.6-13.8,30.6-30.6v-153C2050.2-1732.2,2036.4-1746,2019.6-1746z M1927.8-1593h-7.7c-4.6,0-7.7-3.1-7.7-7.7v-53.6
			c0,16.8-13.8,30.6-30.6,30.6h-15.3v22.9c0,4.6-3.1,7.7-7.6,7.7c-4.6,0-7.7-3.1-7.7-7.7v-22.9v-53.6c0-4.6,3.1-7.7,7.7-7.7h22.9
			c16.8,0,30.6,13.8,30.6,30.6v-22.9c0-4.6,3.1-7.7,7.7-7.7h7.7c26,0,45.9,19.9,45.9,45.9S1953.8-1593,1927.8-1593z M2027.2-1638.9
			c4.6,0,7.7,3.1,7.7,7.7c0,4.6-3.1,7.7-7.7,7.7h-22.9v22.9c0,4.6-3.1,7.7-7.7,7.7s-7.7-3.1-7.7-7.7v-22.9v-15.3v-30.6v-7.7
			c0-4.6,3.1-7.7,7.7-7.7h7.7h22.9c4.6,0,7.7,3.1,7.7,7.7s-3.1,7.7-7.7,7.7h-22.9v30.6H2027.2z"/>
		<path fill="#020202" d="M1927.8-1669.5L1927.8-1669.5v61.2l0,0c18.4,0,32.1-12.2,32.1-30.6S1946.2-1669.5,1927.8-1669.5z"/>
	</g>
</g>
<g id="補足">
</g>
</svg>
