<?xml version="1.0" encoding="utf-8"?>
<!-- Generator: Adobe Illustrator 18.1.1, SVG Export Plug-In . SVG Version: 6.00 Build 0)  -->
<svg version="1.1" id="Layer_1" xmlns="http://www.w3.org/2000/svg" xmlns:xlink="http://www.w3.org/1999/xlink" x="0px" y="0px"
	 viewBox="0 0 30 30" enable-background="new 0 0 30 30" xml:space="preserve">
<g id="edit" display="none">
	<path display="inline" fill="none" stroke="#000000" stroke-linejoin="round" stroke-miterlimit="10" d="M149.3,276.9h-17.5
		c-0.8,0-1.2-0.5-1.2-1.2v-15c0-0.8,0.5-1.2,1.2-1.2h17.5c0.8,0,1.2,0.5,1.2,1.2v15C150.6,276.4,150.1,276.9,149.3,276.9z"/>
	<path display="inline" fill="none" stroke="#000000" stroke-linejoin="round" stroke-miterlimit="10" d="M139.4,256.9v-2.5
		c0-0.8,0.5-1.2,1.2-1.2h17.5c0.8,0,1.2,0.5,1.2,1.2v15c0,0.8-0.5,1.2-1.2,1.2h-5"/>
</g>
<g id="統合">
	<path fill="#38B0E1" d="M19.3,27.5H1.9c-1,0-1.9-0.9-1.9-1.9v-15c0-1,0.9-1.9,1.9-1.9h17.5c1,0,1.9,0.9,1.9,1.9v15
		C21.2,26.6,20.3,27.5,19.3,27.5z M1.9,10c-0.4,0-0.6,0.3-0.6,0.6v15c0,0.4,0.3,0.6,0.6,0.6h17.5c0.4,0,0.6-0.3,0.6-0.6v-15
		c0-0.4-0.3-0.6-0.6-0.6H1.9z"/>
	<path fill="#38B0E1" d="M28.1,21.2h-5V20h5c0.4,0,0.6-0.3,0.6-0.6v-15c0-0.4-0.3-0.6-0.6-0.6H10.6C10.2,3.8,10,4,10,4.4v2.5H8.7
		V4.4c0-1,0.9-1.9,1.9-1.9H28c1,0,1.9,0.9,1.9,1.9v15C29.9,20.4,29.1,21.2,28.1,21.2z"/>
</g>
<g id="補足">
</g>
</svg>
