<?xml version="1.0" encoding="utf-8"?>
<!-- Generator: Adobe Illustrator 18.1.1, SVG Export Plug-In . SVG Version: 6.00 Build 0)  -->
<svg version="1.1" id="Layer_1" xmlns="http://www.w3.org/2000/svg" xmlns:xlink="http://www.w3.org/1999/xlink" x="0px" y="0px"
	 viewBox="122 -5281 491 567" enable-background="new 122 -5281 491 567" xml:space="preserve">
<g id="edit" display="none">
	<path display="inline" fill="none" stroke="#000000" stroke-width="2" stroke-linejoin="round" stroke-miterlimit="10" d="
		M214.2-4836.6v-397.8c0-16.8,13.8-30.6,30.6-30.6h244.8c16.8,0,30.6,13.8,30.6,30.6v397.8"/>
	
		<line display="inline" fill="none" stroke="#000000" stroke-width="2" stroke-linecap="round" stroke-linejoin="round" stroke-miterlimit="10" x1="596.7" y1="-4836.6" x2="137.7" y2="-4836.6"/>
	<path display="inline" fill="none" stroke="#4D4D52" stroke-width="2" stroke-miterlimit="10" d="M428.4-4714.2"/>
	
		<path display="inline" fill="none" stroke="#000000" stroke-width="2" stroke-linecap="round" stroke-linejoin="round" stroke-miterlimit="10" d="
		M306-4847.3v-76.5c0-16.8,13.8-30.6,30.6-30.6h61.2c16.8,0,30.6,13.8,30.6,30.6v76.5"/>
	
		<line display="inline" fill="none" stroke="#000000" stroke-width="2" stroke-linecap="round" stroke-linejoin="round" stroke-miterlimit="10" x1="275.4" y1="-5081.4" x2="459" y2="-5081.4"/>
	
		<line display="inline" fill="none" stroke="#000000" stroke-width="2" stroke-linecap="round" stroke-linejoin="round" stroke-miterlimit="10" x1="275.4" y1="-5020.2" x2="459" y2="-5020.2"/>
	
		<line display="inline" fill="none" stroke="#000000" stroke-width="2" stroke-linecap="round" stroke-linejoin="round" stroke-miterlimit="10" x1="275.4" y1="-5142.6" x2="459" y2="-5142.6"/>
	
		<line display="inline" fill="none" stroke="#000000" stroke-width="2" stroke-linecap="round" stroke-linejoin="round" stroke-miterlimit="10" x1="275.4" y1="-5203.8" x2="459" y2="-5203.8"/>
</g>
<g id="統合">
	<g>
		<path fill="#FFFFFF" d="M535.5-4836.6h-30.6v-397.8c0-9.2-6.1-15.3-15.3-15.3H244.8c-9.2,0-15.3,6.1-15.3,15.3v397.8h-30.6v-397.8
			c0-26,19.9-45.9,45.9-45.9h244.8c26,0,45.9,19.9,45.9,45.9V-4836.6z"/>
		<path fill="#FFFFFF" d="M596.7-4821.3h-459c-9.2,0-15.3-6.1-15.3-15.3s6.1-15.3,15.3-15.3h459c9.2,0,15.3,6.1,15.3,15.3
			S605.9-4821.3,596.7-4821.3z"/>
		<path fill="none" stroke="#4D4D52" stroke-width="2" stroke-miterlimit="10" d="M428.4-4714.2"/>
		<path fill="#FFFFFF" d="M428.4-4832c-9.2,0-15.3-6.1-15.3-15.3v-76.5c0-9.2-6.1-15.3-15.3-15.3h-61.2c-9.2,0-15.3,6.1-15.3,15.3
			v76.5c0,9.2-6.1,15.3-15.3,15.3c-9.2,0-15.3-6.1-15.3-15.3v-76.5c0-26,19.9-45.9,45.9-45.9h61.2c26,0,45.9,19.9,45.9,45.9v76.5
			C443.7-4838.1,437.6-4832,428.4-4832z"/>
		<path fill="#FFFFFF" d="M459-5066.1H275.4c-9.2,0-15.3-6.1-15.3-15.3c0-9.2,6.1-15.3,15.3-15.3H459c9.2,0,15.3,6.1,15.3,15.3
			C474.3-5072.2,468.2-5066.1,459-5066.1z"/>
		<path fill="#FFFFFF" d="M459-5004.9H275.4c-9.2,0-15.3-6.1-15.3-15.3s6.1-15.3,15.3-15.3H459c9.2,0,15.3,6.1,15.3,15.3
			S468.2-5004.9,459-5004.9z"/>
		<path fill="#FFFFFF" d="M459-5127.3H275.4c-9.2,0-15.3-6.1-15.3-15.3s6.1-15.3,15.3-15.3H459c9.2,0,15.3,6.1,15.3,15.3
			S468.2-5127.3,459-5127.3z"/>
		<path fill="#FFFFFF" d="M459-5188.5H275.4c-9.2,0-15.3-6.1-15.3-15.3c0-9.2,6.1-15.3,15.3-15.3H459c9.2,0,15.3,6.1,15.3,15.3
			C474.3-5194.6,468.2-5188.5,459-5188.5z"/>
	</g>
</g>
<g id="補足">
</g>
</svg>
