<?xml version="1.0" encoding="utf-8"?>
<!-- Generator: Adobe Illustrator 18.1.1, SVG Export Plug-In . SVG Version: 6.00 Build 0)  -->
<svg version="1.1" id="Layer_1" xmlns="http://www.w3.org/2000/svg" xmlns:xlink="http://www.w3.org/1999/xlink" x="0px" y="0px"
	 viewBox="3672 -1747 215 216" enable-background="new 3672 -1747 215 216" xml:space="preserve">
<g id="edit" display="none">
	<path display="inline" fill="#020202" d="M3855.6-1531.8h-153c-16.8,0-30.6-13.8-30.6-30.6v-153c0-16.8,13.8-30.6,30.6-30.6h153
		c16.8,0,30.6,13.8,30.6,30.6v153C3886.2-1545.6,3872.4-1531.8,3855.6-1531.8z"/>
	<rect x="3702.6" y="-1709.3" display="inline" fill="#FFFFFF" width="153" height="107.1"/>
	<circle display="inline" cx="3736.3" cy="-1672.6" r="18.4"/>
	<g display="inline">
		<g>
			<defs>
				<rect id="SVGID_11_" x="3702.6" y="-1709.3" width="153" height="107.1"/>
			</defs>
			<clipPath id="SVGID_2_">
				<use xlink:href="#SVGID_11_"  overflow="visible"/>
			</clipPath>
			<g clip-path="url(#SVGID_2_)">
				<polygon fill="none" stroke="#020202" stroke-linecap="round" stroke-linejoin="round" stroke-miterlimit="10" points="
					3763.8,-1585.3 3826.5,-1677.2 3886.2,-1585.3 				"/>
				<polygon fill="#FFFFFF" stroke="#020202" stroke-linecap="round" stroke-linejoin="round" stroke-miterlimit="10" points="
					3724,-1585.3 3771.4,-1646.6 3815.8,-1585.3 				"/>
			</g>
		</g>
	</g>
</g>
<g id="統合">
	<polygon fill="none" points="3872.4,-1577.7 3826.5,-1648.1 3799,-1606.8 3820.4,-1577.7 	"/>
	<path fill="#FFFFFF" d="M3724-1562.4L3724-1562.4L3724-1562.4z"/>
	<g>
		<circle fill="#020202" cx="3736.3" cy="-1664.9" r="18.4"/>
		<path fill="#020202" d="M3886.2-1715.4c0-16.8-13.8-30.6-30.6-30.6h-153c-16.8,0-30.6,13.8-30.6,30.6v153
			c0,16.8,13.8,30.6,30.6,30.6h153c16.8,0,30.6-13.8,30.6-30.6l0,0V-1715.4z M3799-1606.8l29.1-41.3l29.1,44.4v10.7h-47.4
			L3799-1606.8z M3702.6-1700.1h153v68.8l-21.4-33.7c-1.5-1.5-3.1-3.1-6.1-3.1c-1.5,0-4.6,1.5-6.1,3.1l-32.1,45.9l-12.2-15.3
			c-1.5-1.5-3.1-3.1-6.1-3.1l0,0c-3.1,0-4.6,1.5-6.1,3.1l-32.1,42.8h-30.6V-1700.1z M3792.9-1593H3747l22.9-30.6L3792.9-1593z"/>
	</g>
	<path fill="#020202" d="M3823.5-1570.1c0-3.1-1.5-4.6-3.1-6.1l-1.5-1.5h-15.3l10.7,15.3l0,0l0,0
		C3820.4-1562.4,3823.5-1565.5,3823.5-1570.1z"/>
	<path fill="#020202" d="M3800.5-1577.7h-21.4h-18.4l-1.5,3.1c-1.5,3.1-1.5,6.1,0,7.6c1.5,3.1,4.6,4.6,6.1,4.6h52l-10.7-15.3H3800.5
		z"/>
	<rect x="3702.6" y="-1700.1" fill="none" width="153" height="107.1"/>
</g>
<g id="補足">
</g>
</svg>
